<svg width="48" height="48" viewBox="0 0 48 48" fill="none" xmlns="http://www.w3.org/2000/svg">
<g id="icon-1">
<path id="Vector" d="M9.38654 23.6L6.5235 24.74C4.7694 25.44 3.68066 27.5 4.0839 29.32L4.91056 33.04C6.34206 39.44 11.4027 44 18.7014 44H28.2986C35.5973 44 40.6579 39.44 42.0894 33.04L42.9161 29.32C43.3193 27.5 42.2306 25.44 40.4765 24.74L37.6135 23.6M9.38654 23.6L20.4959 19.18C22.4314 18.42 24.5686 18.42 26.5041 19.18L37.6135 23.6M9.38654 23.6L9.38656 16C9.38656 12.7 12.1084 10 15.4352 10H31.5649C34.8916 10 37.6135 12.7 37.6135 16L37.6135 23.6M23.5 44V20M28.5405 10H18.4595V6C18.4595 4.9 19.3668 4 20.4757 4H26.5243C27.6333 4 28.5405 4.9 28.5405 6V10Z" stroke="#D08935" stroke-width="2" stroke-linecap="round" stroke-linejoin="round"/>
</g>
</svg>
