<svg width="100" height="100" viewBox="0 0 100 100" fill="none" xmlns="http://www.w3.org/2000/svg">
<g id="3">
<g id="Vector">
<path d="M69.2794 12.2114C69.7803 12.2114 70.0809 11.9099 70.1811 11.7088C70.3815 11.4073 70.3815 10.9047 70.1811 10.6031C70.0809 10.201 69.6802 10 69.1792 10C55.7534 10 42.4277 10 29.3025 10C28.7013 10 28 10.201 28 11.1057C28 19.7503 28 28.2944 28 36.8385C28 37.2405 28.1002 37.5421 28.3006 37.7431C28.8015 38.2457 30.104 38.0447 30.104 36.8385V12.513L30.3044 12.3119C30.4046 12.2114 30.605 12.1109 30.7052 12.1109C43.4297 12.2114 56.2543 12.2114 69.2794 12.2114Z" fill="#D08935"/>
<path d="M49.4412 18.4436C50.0424 18.4436 50.4432 17.941 50.4432 17.4384C50.4432 16.8353 49.9422 16.3327 49.4412 16.3327H35.3141C34.7129 16.3327 34.3121 16.8353 34.3121 17.3379C34.3121 17.941 34.8131 18.4436 35.3141 18.4436H49.4412Z" fill="#D08935"/>
<path d="M69.4798 16.6342C66.6744 16.6342 63.9692 17.7399 62.0655 19.7503C60.0617 21.7607 58.9595 24.4747 58.9595 27.2892C58.9595 30.1037 60.0617 32.8177 62.0655 34.8281C64.0694 36.8385 66.6744 37.9442 69.4798 37.9442C72.2852 37.9442 74.9904 36.8385 76.894 34.8281C78.8979 32.8177 80 30.1037 80 27.2892C80 24.4747 78.8979 21.7607 76.894 19.7503C74.8902 17.7399 72.2852 16.6342 69.4798 16.6342ZM74.5896 33.9234L74.3892 34.1245C72.8863 35.2302 71.183 35.8333 69.3796 35.8333C69.1792 35.8333 68.8786 35.8333 68.6782 35.8333C65.8728 35.6322 63.5684 34.0239 62.1657 31.6115C60.763 29.199 60.6628 26.284 61.7649 23.771C62.8671 21.3586 65.1715 19.4487 67.6763 19.0467H67.8767L68.2775 19.3482V19.6498C68.2775 22.2633 68.2775 24.7762 68.2775 27.1887C68.2775 27.5907 68.3777 27.8923 68.7784 28.1939C70.5819 29.8022 72.4855 31.511 74.3892 33.1193L74.4894 33.2198L74.5896 33.5213V33.6219C74.6898 33.7224 74.5896 33.8229 74.5896 33.9234ZM76.7938 31.3099L76.6936 31.511L76.0925 31.712L75.7919 31.511L70.5819 26.8871L70.4817 26.6861C70.4817 26.5856 70.3815 26.485 70.3815 26.3845V19.5493C70.3815 19.2477 70.4817 19.1472 70.5819 19.0467C70.6821 18.9462 70.8825 18.8456 71.0829 18.9462C73.6879 19.5493 75.7919 21.2581 76.894 23.6705C78.0963 26.083 77.9961 28.797 76.7938 31.3099Z" fill="#D08935"/>
<path d="M49.4412 24.7762C50.0424 24.7762 50.4432 24.2736 50.4432 23.771C50.4432 23.1679 49.9422 22.6653 49.4412 22.6653H35.3141C34.7129 22.6653 34.3121 23.1679 34.3121 23.6705C34.3121 24.2736 34.8131 24.7762 35.3141 24.7762H49.4412Z" fill="#D08935"/>
<path d="M49.4412 31.2094C50.0424 31.2094 50.4432 30.7068 50.4432 30.2042C50.4432 29.6011 49.9422 29.0985 49.4412 29.0985H35.3141C34.7129 29.0985 34.3121 29.6011 34.3121 30.1037C34.3121 30.7068 34.8131 31.2094 35.3141 31.2094H49.4412Z" fill="#D08935"/>
</g>
<path id="Vector_2" d="M95.9021 64.3968C96 64.0992 96 63.8016 95.9021 63.504C92.4774 57.254 89.1505 51.3016 85.9215 45.5476C85.9215 45.4484 85.8236 45.3492 85.7258 45.3492C85.628 45.25 85.5301 45.25 85.4323 45.25L50.8914 39C50.5979 39 50.3043 39 50.1086 39L15.2742 45.25C15.1763 45.25 15.1763 45.25 15.0785 45.3492C14.9806 45.4484 14.9806 45.4484 14.9806 45.4484C11.7516 51.3016 8.52258 57.254 5.1957 63.3056C5.09785 63.6032 5 63.8016 5 64C5 64.5952 5.48925 64.9921 6.07634 64.9921C7.83763 64.9921 9.59892 64.9921 11.3602 64.9921C12.3387 64.9921 13.2194 64.9921 14.1978 64.9921C14.3935 64.9921 14.5892 65.0913 14.6871 65.1905C14.7849 65.2897 14.8828 65.4881 14.8828 65.6865C14.8828 70.6468 14.8828 75.9048 14.8828 81.6587C14.8828 82.254 15.2742 82.75 15.8613 82.8492L50.3043 89C50.5 89 50.5978 89 50.7935 89C62.4376 86.9167 73.886 84.9325 85.1387 82.8492C85.628 82.75 86.1172 82.4524 86.1172 81.6587C86.1172 76.3016 86.1172 70.9444 86.1172 65.5873C86.1172 65.1905 86.4108 64.9921 86.7043 64.9921C89.2484 64.9921 91.7925 64.9921 94.4344 64.9921C94.728 64.9921 95.0215 64.9921 95.3151 64.8929C95.6086 64.8929 95.8043 64.6944 95.9021 64.3968ZM8.62043 62.9087L8.32688 62.7103L8.22903 62.6111C8.22903 62.5119 8.13118 62.4127 8.13118 62.3135V62.2143L8.22903 62.0159L16.4484 47.2341L16.7419 47.1349H16.8398L47.8581 41.5794L48.1516 41.6786L48.2495 41.7778C48.3473 41.877 48.3473 41.9762 48.3473 42.0754V42.1746L48.2495 42.373L39.8344 62.7103L39.5409 62.9087H8.62043ZM49.0323 86.5198H48.7387L16.9376 80.8651L16.8398 80.369V65.3889L17.1333 65.0913H17.4269C24.9613 65.0913 32.6914 65.0913 40.4215 65.0913C40.8129 65.0913 41.2043 64.7936 41.4 64.496C43.7484 59.0397 45.9989 53.4841 48.3473 47.8294C48.543 47.4325 48.8366 47.3333 48.9344 47.4325C49.1301 47.4325 49.3258 47.631 49.3258 48.0278V86.2222L49.0323 86.5198ZM83.4753 80.9643L52.2613 86.5198H52.1634C51.9677 86.5198 51.8699 86.4206 51.772 86.4206C51.6742 86.3214 51.5763 86.2222 51.5763 85.9246V48.0278C51.5763 47.5317 51.8699 47.4325 51.9677 47.4325C52.1634 47.4325 52.457 47.4325 52.5548 47.8294C53.3376 49.7143 54.1204 51.5992 54.9032 53.4841C56.371 57.1548 57.9366 60.7262 59.4043 64.3968C59.6 64.9921 60.1871 65.0913 60.5785 65.0913C68.2108 65.0913 75.843 65.0913 83.2796 65.0913H83.4753L83.671 65.2897C83.7688 65.3889 83.8667 65.5873 83.8667 65.6865V80.369C83.9645 80.6667 83.7688 80.9643 83.4753 80.9643ZM92.771 62.6111C92.6731 62.7103 92.6731 62.8095 92.5753 62.8095L92.4774 62.9087H61.3613L61.0677 62.7103L60.9699 62.5119L52.5548 42.2738V41.9762L52.6527 41.877C52.7505 41.7778 52.8484 41.7778 52.8484 41.6786L52.9462 41.5794H53.1419L84.2581 47.1349L84.5516 47.4325L92.8688 62.2143V62.5119L92.771 62.6111Z" fill="#D08935"/>
</g>
</svg>
