<svg width="48" height="48" viewBox="0 0 48 48" fill="none" xmlns="http://www.w3.org/2000/svg">
<g id="icon-6">
<g id="Vector">
<path d="M10.5618 10.8956C11.1916 10.9089 11.7138 10.9036 12.1283 10.8797C12.5696 10.8544 12.958 10.5119 13.243 10.0963C14.0347 8.94565 15.0179 8.18842 16.1924 7.82463C16.6428 7.68478 17.26 7.61884 18.044 7.62681C19.7034 7.64274 21.2611 7.6454 22.7172 7.63477C24.2056 7.62415 25.6444 8.28667 26.6969 9.59047C27.4759 10.5557 28.3785 10.9912 29.5154 10.889C29.5562 10.8854 29.5794 10.858 29.585 10.8066C29.7821 9.08329 30.4503 7.76002 31.5896 6.83683C32.3634 6.21148 33.2142 5.98976 34.1727 6.00038C36.4226 6.02428 38.7925 6.02428 41.2823 6.00038C42.34 5.98976 43.2479 6.20086 44.1008 6.95366C45.3781 8.08132 46.0111 9.67943 45.9999 11.748C45.9893 13.7209 45.9893 15.7563 45.9999 17.8541C46.003 18.3692 45.9091 18.7888 45.548 19.0384C45.3806 19.1543 45.2124 19.1964 45.0435 19.1645C44.5234 19.0671 44.2644 18.6533 44.2665 17.9231C44.2715 15.7775 44.2708 13.6422 44.2644 11.517C44.2616 10.4274 43.9273 9.54533 43.2616 8.87086C42.738 8.34111 42.1194 8.16984 41.4628 8.17382C39.0208 8.18798 36.582 8.18665 34.1463 8.16984C33.7811 8.16718 33.4549 8.21409 33.1678 8.31057C32.0573 8.68366 31.2846 10.0034 31.2846 11.4652C31.2846 17.7549 31.2846 24.1509 31.2846 30.6531C31.2846 31.2532 30.8613 31.7152 30.3926 31.7152C23.5494 31.7143 16.6449 31.7148 9.67927 31.7166C9.07863 31.7166 8.78833 31.147 8.78833 30.4579C8.79256 23.3751 8.79256 17.0588 8.78833 11.509C8.78622 9.83344 7.87206 8.46857 6.55571 8.20967C6.3657 8.17249 5.96104 8.16187 5.34175 8.1778C3.78049 8.21896 2.73015 9.68872 2.73015 11.6139C2.72875 20.0616 2.7291 28.3261 2.73121 36.4073C2.73121 36.4542 2.74986 36.4777 2.78716 36.4777L44.1937 36.479C44.2331 36.479 44.2535 36.4542 44.2549 36.4047C44.269 35.6045 44.2753 34.7995 44.2739 33.9896C44.2648 30.0127 44.2644 26.1526 44.2729 22.4094C44.2739 21.5902 44.9907 21.1122 45.5554 21.5066C45.8475 21.7101 45.9935 22.0314 45.9935 22.4705C45.9963 27.3546 45.9967 32.368 45.9946 37.5106C45.9946 38.278 45.5554 38.6777 44.9706 38.6551C44.4674 38.6365 43.9713 38.637 43.4822 38.6564C43.4708 38.6569 43.4597 38.6609 43.4497 38.668C43.4398 38.6752 43.4314 38.6854 43.4252 38.6976C42.7876 39.9855 42.1662 41.2339 41.561 42.443C41.3752 42.8139 41.1113 42.9993 40.7693 42.9993C29.2075 43.0002 17.664 43.0002 6.13874 42.9993C5.77033 42.9993 5.54759 42.6714 5.34914 42.2731C4.75518 41.0808 4.16227 39.8877 3.57043 38.6936C3.56453 38.6817 3.55643 38.6719 3.54685 38.6649C3.53727 38.658 3.52651 38.6542 3.51553 38.6538C3.02995 38.6423 2.49229 38.6414 1.90255 38.6511C1.36841 38.6604 1 38.1612 1 37.4907C1.00141 29.0793 1.00211 20.6692 1.00211 12.2605C1.00211 11.8108 1.01232 11.3749 1.03272 10.9527C1.07988 9.99144 1.34096 9.10188 1.81599 8.28402C2.70482 6.75318 3.98845 5.98976 5.48215 6.00303C5.81291 6.00569 6.14191 6.01277 6.46915 6.02428C7.12152 6.04817 7.86995 6.35222 8.42731 6.79169C9.59905 7.71311 10.2873 9.05541 10.4921 10.8186C10.4977 10.869 10.521 10.8947 10.5618 10.8956ZM14.8444 17.1796C15.5485 18.0891 16.6147 18.5352 17.6302 18.5285C19.184 18.5179 20.7773 18.5201 22.41 18.5352C23.6303 18.5471 24.6426 18.2125 25.5198 17.1517C25.688 16.9499 25.8615 16.7609 26.0403 16.5848C26.0755 16.5503 26.093 16.5051 26.093 16.4494V11.8834C26.093 11.8197 26.073 11.7683 26.0329 11.7294C25.8436 11.5515 25.6616 11.3568 25.4871 11.1452C24.764 10.2649 23.8013 9.81353 22.7921 9.81087C21.0926 9.80556 19.3385 9.806 17.5299 9.8122C16.6192 9.81485 15.8057 10.1676 15.0893 10.8704C14.7061 11.2461 14.4137 11.7745 14.0263 12.1622C14.0111 12.1775 13.9989 12.1969 13.9905 12.219C13.9821 12.2411 13.9777 12.2652 13.9777 12.2897L13.9767 16.0364C13.9767 16.0524 13.9792 16.0682 13.9841 16.0828C13.989 16.0974 13.9962 16.1105 14.0052 16.1214C14.3029 16.4879 14.5826 16.8406 14.8444 17.1796ZM27.8528 15.4616C28.3925 15.2898 28.9372 15.2221 29.4869 15.2584C29.5333 15.2611 29.5565 15.2332 29.5565 15.1748V13.1567C29.5565 13.1 29.534 13.073 29.489 13.0757C28.9612 13.1075 28.4302 13.0434 27.896 12.8832C27.8496 12.869 27.8264 12.892 27.8264 12.9522V15.435C27.8265 15.4392 27.8273 15.4433 27.8287 15.447C27.8302 15.4508 27.8323 15.454 27.8348 15.4566C27.8373 15.4591 27.8403 15.4609 27.8434 15.4618C27.8465 15.4626 27.8497 15.4626 27.8528 15.4616ZM12.2508 13.1168C12.2508 13.1063 12.2474 13.0961 12.2415 13.0887C12.2355 13.0812 12.2275 13.077 12.2191 13.077H10.5491C10.5407 13.077 10.5326 13.0812 10.5267 13.0887C10.5208 13.0961 10.5174 13.1063 10.5174 13.1168V15.2146C10.5174 15.2252 10.5208 15.2353 10.5267 15.2428C10.5326 15.2502 10.5407 15.2544 10.5491 15.2544H12.2191C12.2275 15.2544 12.2355 15.2502 12.2415 15.2428C12.2474 15.2353 12.2508 15.2252 12.2508 15.2146V13.1168ZM26.6441 18.7954C25.6412 20.0129 24.2394 20.6927 22.8555 20.69C21.2214 20.6865 19.6306 20.6914 18.083 20.7046C17.2702 20.7108 16.6358 20.6431 16.1798 20.5015C15.0186 20.139 13.9693 19.3331 13.2029 18.174C12.9285 17.7598 12.4925 17.4584 12.0755 17.4451C11.6406 17.431 11.1399 17.4274 10.5734 17.4345C10.5354 17.4345 10.5164 17.4584 10.5164 17.5062L10.5174 25.1299C10.5174 25.1679 10.5326 25.1869 10.5628 25.1869H29.5154C29.5263 25.1869 29.5367 25.1815 29.5445 25.1718C29.5522 25.1621 29.5565 25.1489 29.5565 25.1352V17.5301C29.5565 17.4761 29.5351 17.4473 29.4921 17.4438C28.3193 17.3376 27.4516 17.8142 26.6441 18.7954ZM29.5576 27.4201C29.5576 27.4046 29.5527 27.3898 29.544 27.3788C29.5353 27.3679 29.5234 27.3617 29.5111 27.3617H10.5628C10.5505 27.3617 10.5387 27.3679 10.53 27.3788C10.5213 27.3898 10.5164 27.4046 10.5164 27.4201V29.486C10.5164 29.5015 10.5213 29.5164 10.53 29.5273C10.5387 29.5383 10.5505 29.5444 10.5628 29.5444H29.5111C29.5234 29.5444 29.5353 29.5383 29.544 29.5273C29.5527 29.5164 29.5576 29.5015 29.5576 29.486V27.4201ZM40.308 40.8312C40.3137 40.8312 40.3193 40.8293 40.3243 40.8259C40.3292 40.8224 40.3334 40.8174 40.3365 40.8113L41.3773 38.7122C41.3806 38.7057 41.3823 38.6982 41.3825 38.6905C41.3826 38.6828 41.3811 38.6752 41.378 38.6685C41.375 38.6619 41.3706 38.6563 41.3652 38.6526C41.3599 38.6488 41.3539 38.6469 41.3478 38.6471H5.64893C5.64291 38.6472 5.637 38.6492 5.63182 38.6531C5.62664 38.657 5.62237 38.6625 5.61946 38.6691C5.61656 38.6758 5.61511 38.6833 5.61528 38.6908C5.61545 38.6984 5.61723 38.7058 5.62043 38.7122L6.66127 40.8113C6.6643 40.8174 6.6685 40.8224 6.67348 40.8259C6.67847 40.8293 6.68407 40.8312 6.68977 40.8312H40.308Z" fill="#D08935"/>
<path d="M42.5332 21.2357C42.5332 21.5248 42.4419 21.8021 42.2794 22.0065C42.1168 22.2109 41.8964 22.3258 41.6665 22.3258H33.8845C33.6547 22.3258 33.4343 22.2109 33.2717 22.0065C33.1092 21.8021 33.0179 21.5248 33.0179 21.2357V11.4532C33.0179 11.1641 33.1092 10.8869 33.2717 10.6825C33.4343 10.478 33.6547 10.3632 33.8845 10.3632H41.6665C41.8964 10.3632 42.1168 10.478 42.2794 10.6825C42.4419 10.8869 42.5332 11.1641 42.5332 11.4532V21.2357ZM40.8062 12.5818C40.8062 12.567 40.8015 12.5528 40.7932 12.5423C40.7849 12.5319 40.7736 12.526 40.7619 12.526H34.7892C34.7775 12.526 34.7662 12.5319 34.7579 12.5423C34.7495 12.5528 34.7449 12.567 34.7449 12.5818V20.0965C34.7449 20.1113 34.7495 20.1255 34.7579 20.136C34.7662 20.1464 34.7775 20.1523 34.7892 20.1523H40.7619C40.7736 20.1523 40.7849 20.1464 40.7932 20.136C40.8015 20.1255 40.8062 20.1113 40.8062 20.0965V12.5818Z" fill="#D08935"/>
<path d="M17.2569 12.0485L17.1832 12.025C16.7424 11.8847 16.2946 12.2205 16.183 12.775L15.7309 15.0223C15.6193 15.5768 15.8863 16.14 16.3271 16.2803L16.4008 16.3037C16.8417 16.444 17.2895 16.1083 17.401 15.5538L17.8531 13.3065C17.9647 12.752 17.6977 12.1888 17.2569 12.0485Z" fill="#D08935"/>
<path d="M20.7271 12.0516L20.6535 12.0276C20.2127 11.8843 19.7629 12.2175 19.6489 12.7719L19.1879 15.0137C19.0739 15.5681 19.3389 16.1338 19.7797 16.2772L19.8533 16.3011C20.2941 16.4445 20.7439 16.1113 20.8579 15.5569L21.3188 13.3151C21.4328 12.7607 21.1679 12.195 20.7271 12.0516Z" fill="#D08935"/>
<path d="M24.1826 12.0508L24.1089 12.0272C23.6683 11.886 23.22 12.2207 23.1077 12.775L22.6524 15.0213C22.5401 15.5755 22.8063 16.1393 23.2469 16.2806L23.3206 16.3042C23.7612 16.4455 24.2095 16.1107 24.3218 15.5565L24.7771 13.3102C24.8894 12.7559 24.6232 12.1921 24.1826 12.0508Z" fill="#D08935"/>
</g>
</g>
</svg>
