<svg width="48" height="48" viewBox="0 0 48 48" fill="none" xmlns="http://www.w3.org/2000/svg">
<g id="icon-5">
<path id="Vector" d="M32.8982 32.6383C31.3893 33.8001 30.4168 35.6141 30.4168 37.6512C30.4168 41.1548 33.2924 44 36.8334 44C40.3745 44 43.2501 41.1548 43.2501 37.6512C43.2501 35.5252 42.1923 33.6432 40.5698 32.4914M3.40342 23.2284C5.8216 21.2158 8.94377 20.0014 12.3474 20.0014C20.0254 20.0014 26.2542 26.1661 26.2542 33.762M26.5493 32.2093H40.4754C41.4718 32.2093 42.9073 31.1908 43.2731 30.1967L45.9268 22.9971C46.2944 22.0022 45.2081 21.3256 44.2117 21.3256H26.7748L22.78 6.80035C22.5728 5.83533 21.9742 5 20.9778 5H6.55218C5.5576 5 4.75001 5.8054 4.75001 6.80035V21.9187M33.1668 21.3256C33.1668 21.3256 33.1668 16.5812 33.1668 14.8189C33.1668 10.2904 36.5319 9.53488 38.6668 9.53488V11.3488C38.6668 11.3488 36.8334 11.2137 36.8334 14.9767C36.8334 16.7381 36.8334 21.3256 36.8334 21.3256M12.0834 29.9419C14.3585 29.9419 16.2084 31.773 16.2084 34.0233C16.2084 36.2726 14.3585 38.1047 12.0834 38.1047C9.80819 38.1047 7.95835 36.2726 7.95835 34.0233C7.95835 31.773 9.80819 29.9419 12.0834 29.9419ZM12.0834 24.0465C6.51735 24.0465 2 28.5152 2 34.0233C2 39.5304 6.51735 44 12.0834 44C17.6494 44 22.1667 39.5304 22.1667 34.0233C22.1667 28.5152 17.6494 24.0465 12.0834 24.0465ZM22.0925 16.7907H8.42127V8.62791H19.843L22.0925 16.7907Z" stroke="#D08935" stroke-width="2" stroke-miterlimit="10" stroke-linecap="round" stroke-linejoin="round"/>
<path id="Vector_2" d="M36.5 40C37.8807 40 39 38.8807 39 37.5C39 36.1193 37.8807 35 36.5 35C35.1193 35 34 36.1193 34 37.5C34 38.8807 35.1193 40 36.5 40Z" fill="#D08935"/>
</g>
</svg>
