<svg width="100" height="101" viewBox="0 0 100 101" fill="none" xmlns="http://www.w3.org/2000/svg">
<g id="2">
<path id="Vector" d="M12 71.6111L28.8889 88.5M28.8889 71.6111L12 88.5M71.1111 12.5L88 29.3889M88 12.5L71.1111 29.3889M45.7778 80.0556H69C72.9193 80.0556 76.6781 78.4986 79.4495 75.7272C82.2208 72.9559 83.7778 69.1971 83.7778 65.2778C83.7778 61.3585 82.2208 57.5997 79.4495 54.8283C76.6781 52.0569 72.9193 50.5 69 50.5H35.2222C31.3029 50.5 27.5441 48.9431 24.7728 46.1717C22.0014 43.4003 20.4444 39.6415 20.4444 35.7222C20.4444 31.8029 22.0014 28.0441 24.7728 25.2728C27.5441 22.5014 31.3029 20.9444 35.2222 20.9444H54.2222" stroke="#D08935" stroke-width="2" stroke-linecap="round" stroke-linejoin="round"/>
</g>
</svg>
