<svg width="100" height="101" viewBox="0 0 100 101" fill="none" xmlns="http://www.w3.org/2000/svg">
<g id="5">
<path id="Vector" d="M65.8333 28.2273V21.8636C65.8333 20.1759 65.1661 18.5573 63.9783 17.3639C62.7906 16.1705 61.1797 15.5 59.5 15.5H40.5C38.8203 15.5 37.2094 16.1705 36.0217 17.3639C34.8339 18.5573 34.1667 20.1759 34.1667 21.8636V28.2273M88 49.8239C76.4507 56.5352 63.3417 60.0614 50 60.0455C36.6559 60.0804 23.542 56.5529 12 49.8239M45.25 47.3182H54.75M15.1667 28.2273H84.8333C86.5822 28.2273 88 29.6518 88 31.4091V82.3182C88 84.0755 86.5822 85.5 84.8333 85.5H15.1667C13.4178 85.5 12 84.0755 12 82.3182V31.4091C12 29.6518 13.4178 28.2273 15.1667 28.2273Z" stroke="#D08935" stroke-width="2" stroke-linecap="round" stroke-linejoin="round"/>
</g>
</svg>
