<svg width="48" height="48" viewBox="0 0 48 48" fill="none" xmlns="http://www.w3.org/2000/svg">
<g id="icon-4">
<g id="Vector">
<path d="M26.3839 39.5502C25.2285 36.9763 25.0658 34.3747 25.8958 31.7453C27.5946 26.3599 33.3763 23.0947 39.0468 24.2799C43.3237 25.1737 46.7264 28.3908 47.7118 32.5469C48.8982 37.5487 46.3384 42.7192 41.5673 44.9228C36.7659 47.1402 31.155 45.85 27.823 41.8283C27.8015 41.8022 27.7735 41.7891 27.7391 41.7891C19.0129 41.7891 10.2802 41.7858 1.54118 41.7793C1.28246 41.7793 1.00859 41.8097 0.773114 41.7292C0.11723 41.5046 0 41.0297 0 40.3665C0 28.7394 0 17.1124 0 5.48543C0 5.04719 0.0498566 4.73879 0.14957 4.56022C0.408285 4.09321 0.83274 4 1.38756 4C13.4172 4 25.4471 4 37.4774 4C38.588 4 38.9316 4.41698 38.9316 5.45011C38.9316 11.4435 38.9316 17.4342 38.9316 23.4224C38.9317 23.4263 38.9309 23.4302 38.9292 23.4338C38.9275 23.4374 38.925 23.4406 38.9219 23.4431C38.9188 23.4456 38.9152 23.4475 38.9113 23.4485C38.9074 23.4495 38.9033 23.4496 38.8993 23.4489C38.1912 23.3207 37.4774 23.2546 36.7578 23.2507C36.7329 23.2507 36.709 23.2411 36.6913 23.224C36.6737 23.2069 36.6638 23.1836 36.6638 23.1594V6.24089C36.6638 6.22814 36.6586 6.21592 36.6493 6.2069C36.64 6.19788 36.6274 6.19282 36.6143 6.19282H26.7811C26.769 6.19282 26.7575 6.19747 26.7489 6.20575C26.7404 6.21403 26.7356 6.22526 26.7356 6.23697C26.7356 9.7893 26.7353 13.3472 26.7346 16.9107C26.7346 17.2344 26.6992 17.4712 26.6285 17.621C26.4102 18.0841 25.819 18.346 25.3167 18.2067C25.1779 18.1688 24.9694 18.0533 24.6912 17.8604C23.9763 17.3659 23.2591 16.8701 22.5396 16.373C22.5295 16.3661 22.5173 16.3624 22.5049 16.3624C22.4924 16.3624 22.4802 16.3661 22.4698 16.373C21.7671 16.859 21.0611 17.3473 20.3516 17.8378C19.8372 18.194 19.3188 18.4373 18.7872 18.0703C17.9652 17.5019 17.148 16.9362 16.3355 16.373C16.3246 16.3655 16.3115 16.3616 16.2981 16.3618C16.2847 16.362 16.2716 16.3662 16.2607 16.374C15.5324 16.8809 14.8 17.3872 14.0636 17.8928C13.7813 18.0864 13.5543 18.1985 13.3825 18.2293C12.86 18.3235 12.286 17.9997 12.1232 17.5033C12.0828 17.3796 12.0626 17.1481 12.0626 16.8086C12.0633 13.2877 12.0629 9.76183 12.0616 6.23108C12.0616 6.22093 12.0574 6.2112 12.0501 6.20403C12.0427 6.19685 12.0326 6.19282 12.0222 6.19282H2.29206C2.27387 6.19282 2.26477 6.20132 2.26477 6.21833V39.5413C2.26544 39.5773 2.28397 39.5953 2.32035 39.5953H26.3536C26.3873 39.5953 26.3974 39.5802 26.3839 39.5502ZM15.526 14.189C16.0201 13.8554 16.481 13.7867 16.9812 14.1301C17.7803 14.6783 18.5777 15.2261 19.3733 15.7735C19.3831 15.7801 19.3946 15.7836 19.4064 15.7836C19.4181 15.7836 19.4295 15.7801 19.439 15.7735C20.1593 15.2718 20.8842 14.7708 21.6139 14.2704C22.1616 13.8947 22.6386 13.7367 23.1965 14.1262C23.7489 14.5121 24.1569 14.7944 24.4203 14.9729C24.4587 14.9991 24.4779 14.9896 24.4779 14.9445L24.4769 6.23697C24.4769 6.22526 24.4722 6.21403 24.4639 6.20575C24.4555 6.19747 24.4442 6.19282 24.4324 6.19282H14.3729C14.3603 6.19282 14.3482 6.19768 14.3393 6.20633C14.3304 6.21497 14.3254 6.2267 14.3254 6.23893V14.968C14.3252 14.973 14.3265 14.9778 14.3291 14.982C14.3318 14.9863 14.3356 14.9897 14.3402 14.9919C14.3448 14.9942 14.35 14.9951 14.3553 14.9947C14.3605 14.9943 14.3655 14.9925 14.3698 14.9896C14.7525 14.7182 15.1379 14.4513 15.526 14.189ZM45.737 35.0183C45.737 32.6889 44.7839 30.4549 43.0873 28.8078C41.3906 27.1606 39.0895 26.2353 36.6901 26.2353C35.502 26.2353 34.3256 26.4625 33.228 26.9039C32.1303 27.3452 31.133 27.9922 30.2929 28.8078C29.4528 29.6234 28.7864 30.5916 28.3318 31.6572C27.8771 32.7228 27.6431 33.8649 27.6431 35.0183C27.6431 36.1717 27.8771 37.3139 28.3318 38.3795C28.7864 39.4451 29.4528 40.4133 30.2929 41.2289C31.133 42.0445 32.1303 42.6914 33.228 43.1328C34.3256 43.5742 35.502 43.8014 36.6901 43.8014C39.0895 43.8014 41.3906 42.876 43.0873 41.2289C44.7839 39.5817 45.737 37.3477 45.737 35.0183Z" fill="#D08935"/>
<path d="M36.0979 33.2317C35.6835 33.3602 35.3409 33.7419 34.8275 33.4485C34.6995 33.3746 34.5301 33.2003 34.3192 32.9256C33.7512 32.1852 33.1829 31.447 32.6143 30.7112C32.1616 30.1255 32.0848 29.6967 32.7447 29.2611C35.1671 27.6628 38.4395 27.7197 40.774 29.3464C41.346 29.7448 41.1075 30.2638 40.7447 30.7337C40.0985 31.569 39.4544 32.4056 38.8124 33.2435C38.5466 33.5908 38.1211 33.6134 37.7371 33.4407C37.1459 33.1758 36.7457 33.0306 36.0979 33.2317ZM39.0751 30.1833C37.6259 29.5476 35.7391 29.4347 34.3081 30.1892C34.2717 30.2088 34.266 30.235 34.2909 30.2677L35.4258 31.7374C35.4481 31.7662 35.4764 31.7747 35.5107 31.763C36.2956 31.5039 37.0788 31.5033 37.8604 31.761C37.8988 31.7734 37.9304 31.7639 37.9554 31.7325L39.0943 30.2579C39.0989 30.2518 39.1021 30.2448 39.1036 30.2375C39.1051 30.2301 39.1049 30.2226 39.1031 30.2154C39.1012 30.2082 39.0978 30.2016 39.0929 30.1961C39.0881 30.1905 39.082 30.1862 39.0751 30.1833Z" fill="#D08935"/>
<path d="M9.54211 36.7289C9.54192 36.8344 9.52033 36.9389 9.47856 37.0363C9.43679 37.1337 9.37566 37.2222 9.29867 37.2967C9.22167 37.3712 9.13033 37.4302 9.02983 37.4704C8.92934 37.5106 8.82167 37.5312 8.71298 37.531L5.20214 37.5251C4.98263 37.5247 4.77225 37.4397 4.6173 37.2887C4.46235 37.1378 4.37552 36.9332 4.3759 36.7201L4.38203 33.3078C4.38222 33.2023 4.40382 33.0978 4.44559 33.0004C4.48736 32.903 4.54849 32.8145 4.62548 32.74C4.70247 32.6655 4.79382 32.6065 4.89431 32.5663C4.99481 32.5261 5.10247 32.5055 5.21117 32.5056L8.722 32.5116C8.94152 32.512 9.15189 32.597 9.30684 32.7479C9.46179 32.8989 9.54863 33.1034 9.54825 33.3165L9.54211 36.7289ZM7.92983 34.1213C7.92984 34.1157 7.92872 34.1102 7.92655 34.1051C7.92437 34.1 7.92118 34.0953 7.91715 34.0914C7.91312 34.0875 7.90834 34.0844 7.90307 34.0822C7.8978 34.0801 7.89215 34.079 7.88644 34.079L6.03906 34.0759C6.03336 34.0759 6.02771 34.0769 6.02243 34.0791C6.01715 34.0812 6.01236 34.0843 6.00831 34.0882C6.00427 34.0921 6.00106 34.0967 5.99887 34.1018C5.99667 34.107 5.99554 34.1124 5.99553 34.118L5.99229 35.9154C5.99228 35.9209 5.9934 35.9264 5.99557 35.9316C5.99775 35.9367 6.00094 35.9413 6.00497 35.9453C6.009 35.9492 6.01379 35.9523 6.01905 35.9544C6.02432 35.9566 6.02997 35.9577 6.03568 35.9577L7.88306 35.9608C7.88877 35.9608 7.89442 35.9597 7.8997 35.9576C7.90497 35.9555 7.90977 35.9524 7.91381 35.9485C7.91785 35.9446 7.92106 35.9399 7.92326 35.9348C7.92545 35.9297 7.92659 35.9242 7.9266 35.9187L7.92983 34.1213Z" fill="#D08935"/>
<path d="M16.6841 36.7314C16.6841 36.9427 16.5977 37.1453 16.4438 37.2947C16.2899 37.4441 16.0811 37.5281 15.8635 37.5281H12.3425C12.1249 37.5281 11.9162 37.4441 11.7623 37.2947C11.6084 37.1453 11.5219 36.9427 11.5219 36.7314V33.3053C11.5219 33.094 11.6084 32.8914 11.7623 32.7419C11.9162 32.5925 12.1249 32.5086 12.3425 32.5086H15.8635C16.0811 32.5086 16.2899 32.5925 16.4438 32.7419C16.5977 32.8914 16.6841 33.094 16.6841 33.3053V36.7314ZM15.0682 34.1226C15.0682 34.1166 15.067 34.1108 15.0646 34.1053C15.0623 34.0998 15.0589 34.0948 15.0545 34.0906C15.0502 34.0865 15.0451 34.0831 15.0395 34.0809C15.0338 34.0786 15.0278 34.0774 15.0217 34.0774H13.1844C13.1721 34.0774 13.1602 34.0822 13.1515 34.0906C13.1428 34.0991 13.1379 34.1106 13.1379 34.1226V35.9141C13.1379 35.9261 13.1428 35.9376 13.1515 35.946C13.1602 35.9545 13.1721 35.9592 13.1844 35.9592H15.0217C15.0278 35.9592 15.0338 35.9581 15.0395 35.9558C15.0451 35.9535 15.0502 35.9502 15.0545 35.946C15.0589 35.9418 15.0623 35.9368 15.0646 35.9314C15.067 35.9259 15.0682 35.92 15.0682 35.9141V34.1226Z" fill="#D08935"/>
<path d="M40.6082 40.7059C40.1322 41.013 39.4965 41.4771 38.9771 41.0738C38.8612 40.9842 38.7278 40.7792 38.5769 40.4587C38.1268 39.5031 37.6775 38.5471 37.2287 37.5908C37.0034 37.1121 37.2985 36.801 37.7149 36.5273C38.272 36.1617 38.5624 35.6446 38.586 34.9761C38.5961 34.6916 38.6247 34.5045 38.6719 34.4149C38.8316 34.1108 39.0812 34.0274 39.44 33.9764C40.4654 33.8325 41.4905 33.6896 42.5152 33.5476C43.2944 33.4397 43.6916 33.6222 43.7552 34.4041C43.9604 36.9207 42.781 39.3049 40.6082 40.7059ZM39.8695 39.3078C41.2176 38.365 42.0888 36.8638 42.1565 35.244C42.1585 35.2028 42.1383 35.1851 42.0958 35.191L40.2232 35.451C40.1881 35.4562 40.1676 35.4759 40.1615 35.5099C40.02 36.3085 39.6428 36.9786 39.0297 37.5202C39.0182 37.5305 39.0104 37.5441 39.0073 37.559C39.0042 37.574 39.006 37.5896 39.0125 37.6036L39.8058 39.2911C39.8084 39.2967 39.8122 39.3017 39.817 39.3057C39.8218 39.3097 39.8274 39.3126 39.8335 39.3142C39.8396 39.3158 39.846 39.3161 39.8522 39.315C39.8585 39.3139 39.8643 39.3114 39.8695 39.3078Z" fill="#D08935"/>
<path d="M36.112 37.5761C35.6643 38.6544 35.1358 39.712 34.6335 40.7687C34.3384 41.3898 33.7381 41.2799 33.2106 40.9875C30.774 39.6385 29.2803 37.0051 29.6189 34.2511C29.7139 33.475 30.297 33.4721 30.9751 33.5663C32.0322 33.7121 33.0896 33.8599 34.1474 34.0097C34.3866 34.0437 34.5634 34.17 34.678 34.3884C34.8366 34.6916 34.7416 35.0576 34.8225 35.3961C34.9377 35.8742 35.1728 36.2254 35.5279 36.4498C36.0009 36.7481 36.3546 36.9924 36.112 37.5761ZM33.5582 39.2803L34.3455 37.6095C34.3531 37.5939 34.3554 37.5764 34.3519 37.5596C34.3484 37.5428 34.3394 37.5276 34.3263 37.5163C33.7105 36.974 33.3342 36.3023 33.1974 35.501C33.1927 35.4736 33.1762 35.4579 33.1479 35.454L31.255 35.189C31.2467 35.1878 31.2383 35.1885 31.2303 35.1909C31.2222 35.1933 31.2149 35.1975 31.2088 35.203C31.2026 35.2086 31.1979 35.2154 31.1949 35.223C31.1919 35.2306 31.1907 35.2388 31.1914 35.2469C31.3261 36.943 32.0871 38.2943 33.4743 39.301C33.5114 39.3278 33.5394 39.3209 33.5582 39.2803Z" fill="#D08935"/>
<path d="M36.6901 35.97C37.2315 35.97 37.6704 35.5439 37.6704 35.0183C37.6704 34.4927 37.2315 34.0666 36.6901 34.0666C36.1487 34.0666 35.7098 34.4927 35.7098 35.0183C35.7098 35.5439 36.1487 35.97 36.6901 35.97Z" fill="#D08935"/>
</g>
</g>
</svg>
