<svg width="68" height="68" viewBox="0 0 68 68" fill="none" xmlns="http://www.w3.org/2000/svg">
<g id="icon-2">
<path id="Vector" d="M66.9015 46.3383C66.9015 46.2388 67 45.9403 67 45.0448C67 41.5622 67 38.1791 67 34.6965C67 34 66.7045 33.801 66.409 33.602C64.9313 32.9055 63.5522 32.3085 62.0746 31.6119L61.8776 31.4129C61.7791 31.3134 61.7791 31.2139 61.7791 31.1144L60.597 25.1443C60.3015 23.8507 60.1045 22.9552 59.9075 22.4577C59.1194 20.5672 57.0507 19.2736 54.9821 19.2736C52.7164 19.2736 50.3522 19.2736 48.0866 19.2736C47.791 19.2736 47.4955 19.0746 47.4955 18.6766C47.4955 17.6816 47.4955 16.6866 47.4955 15.6915C47.4955 14.796 47.397 14.4975 47.003 14.199C46.9045 14.199 46.609 14 45.8209 14H2.47761C1.68955 14.199 1.29552 14.398 1.09851 14.796C1.09851 14.8955 1 15.194 1 16.0896V45.3433C1 46.2388 1.09851 46.6368 1.59104 46.8358C1.68955 46.8358 1.98507 46.9353 2.77313 46.9353C2.97015 46.9353 3.26567 46.9353 3.46269 46.9353C3.85672 46.9353 4.25075 46.9353 4.64478 46.9353C4.9403 46.9353 5.23582 47.1343 5.23582 47.4328C5.43284 49.5224 6.2209 51.2139 7.69851 52.408C9.96418 54.2985 13.0179 54.398 15.3821 52.806C17.1552 51.6119 18.1403 49.8209 18.3373 47.4328V46.9353H19.8149L20.1104 47.2338V47.4328C20.209 49.6219 21.2925 51.6119 22.9672 52.806C24.5433 54 26.6119 54.2985 28.5821 53.7015C31.1433 52.9055 33.0149 50.4179 33.1134 47.4328V47.2338L33.409 46.9353H47.397L47.6925 47.2338V47.4328C47.791 50.6169 49.9582 53.3035 52.9134 53.801C54.7851 54.199 56.6567 53.7015 58.0358 52.5075C59.6119 51.3134 60.4985 49.4229 60.597 47.3333V47.1343L60.794 46.9353C60.8925 46.8358 61.0896 46.7363 61.1881 46.7363C62.5672 46.7363 63.8478 46.7363 65.2269 46.7363C66.3104 46.9353 66.606 46.8358 66.9015 46.3383ZM3.16716 16.7861L3.46269 16.4876H45.0328L45.3284 16.7861V36.3881L45.0328 36.6866H3.46269L3.16716 36.3881V16.7861ZM15.7761 49.0249C15.5791 49.6219 15.2836 50.0199 14.791 50.5174C14.397 50.9154 13.9045 51.3134 13.4119 51.5124C12.9194 51.7114 12.3284 51.8109 11.7373 51.8109C10.5552 51.8109 9.47164 51.3134 8.68358 50.5174C7.89552 49.6219 7.40299 48.5274 7.40299 47.3333C7.40299 46.7363 7.50149 46.1393 7.69851 45.6418C7.89552 45.0448 8.19105 44.6468 8.68358 44.1493C9.07761 43.7512 9.57015 43.3532 10.0627 43.1542C11.1463 42.6567 12.3284 42.6567 13.4119 43.1542C13.9045 43.3532 14.397 43.7512 14.791 44.1493C15.1851 44.5473 15.4806 45.0448 15.7761 45.6418C15.9731 46.2388 16.0716 46.7363 16.0716 47.3333C16.0716 47.9303 15.9731 48.4279 15.7761 49.0249ZM30.6507 49.0249C30.4537 49.6219 30.1582 50.0199 29.6657 50.5174C29.2716 50.9154 28.7791 51.3134 28.2866 51.5124C27.794 51.7114 27.203 51.8109 26.6119 51.8109C25.4299 51.8109 24.3463 51.3134 23.5582 50.5174C22.7701 49.6219 22.2776 48.5274 22.2776 47.3333C22.2776 46.7363 22.3761 46.1393 22.5731 45.6418C22.7701 45.0448 23.0657 44.6468 23.5582 44.1493C23.9522 43.7512 24.4448 43.3532 24.9373 43.1542C26.0209 42.6567 27.203 42.6567 28.2866 43.1542C28.7791 43.3532 29.2716 43.7512 29.6657 44.1493C30.0597 44.5473 30.3552 45.0448 30.6507 45.6418C30.8478 46.2388 30.9463 46.7363 30.9463 47.3333C30.9463 47.9303 30.8478 48.4279 30.6507 49.0249ZM45.4269 44.3483L45.1313 44.6468H33.0149C32.8179 44.6468 32.6209 44.5473 32.5224 44.3483C32.4239 44.1493 32.3254 43.9503 32.1284 43.7512C30.8478 41.5622 28.6806 40.3682 26.3164 40.4677C23.9522 40.5672 21.7851 41.9602 20.7015 44.3483V44.5473L20.406 44.7463H17.9433L17.7463 44.6468C17.6478 44.6468 17.5493 44.5473 17.5493 44.3483C16.4657 41.9602 14.2 40.5672 11.7373 40.5672C9.17612 40.5672 7.00896 41.9602 5.82687 44.4478L5.72836 44.5473L5.43284 44.7463H3.16716L3.06866 44.1493V39.2736L3.36418 38.9751H45.3284L45.4269 39.5721V44.3483ZM64.8328 37.3831V39.6716L64.5373 40.0697H63.6507C63.4537 40.0697 63.1582 39.9701 63.0597 39.7711C62.8627 39.5721 62.8627 39.3731 62.8627 39.1741V37.9801C62.8627 37.8806 62.8627 37.7811 62.9612 37.6816C62.9612 37.5821 63.0597 37.4826 63.1582 37.3831C63.2567 37.2836 63.3552 37.1841 63.4537 37.1841C63.5522 37.1841 63.6507 37.0846 63.7493 37.0846H64.5373L64.8328 37.3831ZM58.4299 25.0448L58.5284 25.2438L59.7104 31.3134L59.6119 31.5124L59.3164 31.8109H54.9821L54.6866 31.5124V25.1443L54.9821 24.8458H58.1343L58.4299 25.0448ZM57.4448 50.4179C56.6567 51.3134 55.4746 51.7114 54.391 51.7114C53.3075 51.7114 52.1254 51.2139 51.3373 50.4179C50.5493 49.5224 50.0567 48.4279 50.0567 47.2338C50.0567 46.6368 50.1552 46.0398 50.3522 45.5423C50.5493 44.9453 50.8448 44.5473 51.3373 44.0498C51.7313 43.6517 52.2239 43.2537 52.7164 43.0547C53.8 42.5572 54.9821 42.5572 56.0657 43.0547C56.5582 43.2537 57.0507 43.6517 57.4448 44.0498C57.8388 44.4478 58.1343 44.9453 58.4299 45.5423C58.6269 46.1393 58.7254 46.6368 58.7254 47.2338C58.6269 48.4279 58.2328 49.6219 57.4448 50.4179ZM64.8328 44.1493C64.8328 44.4478 64.5373 44.7463 64.2418 44.7463H60.597L60.4 44.6468C60.3015 44.5473 60.203 44.5473 60.203 44.4478C60.1045 44.2488 59.9075 43.9503 59.809 43.7512C58.5284 41.6617 56.5582 40.5672 54.2925 40.5672C51.9284 40.6667 49.7612 41.9602 48.5791 44.1493L48.3821 44.4478H47.9881L47.594 44.3483V21.9602L47.8896 21.6617H55.1791C56.0657 21.6617 56.7552 21.9602 57.4448 22.5572L57.7403 22.7562L57.4448 23.1542C57.4448 23.2537 57.2478 23.4527 56.9522 23.4527H54.391C53.5045 23.4527 53.406 23.6517 53.406 24.3483V31.9104C53.406 32.5075 53.5045 32.806 53.603 32.9055C53.7015 33.005 53.997 33.1045 54.391 33.1045C56.1642 33.1045 57.8388 33.1045 59.6119 33.1045C59.9075 33.1045 60.203 33.204 60.4985 33.3035C61.5821 33.801 62.5672 34.2985 63.6507 34.6965L63.9463 34.796V35.194C63.9463 35.2935 63.8478 35.592 63.4537 35.6915C62.5672 35.8905 61.9761 36.3881 61.7791 37.2836C61.6806 37.6816 61.6806 38.1791 61.6806 38.6766V39.0746C61.6806 40.2687 62.4687 41.1642 63.6507 41.2637L64.8328 41.3632L64.9313 41.8607V44.1493H64.8328Z" fill="#D08935"/>
<rect id="Rectangle 14" x="7" y="20" width="2" height="13" rx="1" fill="#D08935"/>
<rect id="Rectangle 15" x="13.5" y="20" width="2" height="13" rx="1" fill="#D08935"/>
<rect id="Rectangle 16" x="20" y="20" width="2" height="13" rx="1" fill="#D08935"/>
<rect id="Rectangle 17" x="26.5" y="20" width="2" height="13" rx="1" fill="#D08935"/>
<rect id="Rectangle 18" x="33" y="20" width="2" height="13" rx="1" fill="#D08935"/>
<rect id="Rectangle 19" x="39.5" y="20" width="2" height="13" rx="1" fill="#D08935"/>
<rect id="Rectangle 20" x="54" y="38" width="2" height="5" rx="1" transform="rotate(-90 54 38)" fill="#D08935"/>
</g>
</svg>
