<svg width="48" height="48" viewBox="0 0 48 48" fill="none" xmlns="http://www.w3.org/2000/svg">
<g id="icon-2">
<g id="Vector">
<path d="M42.6949 42.6949C46.6112 38.7786 41.4161 27.2337 31.0912 16.9088C20.7663 6.58393 9.22145 1.38876 5.3051 5.30511C1.38876 9.22145 6.58393 20.7663 16.9088 31.0912C27.2337 41.4161 38.7786 46.6112 42.6949 42.6949Z" stroke="#D08935" stroke-width="2" stroke-linecap="round" stroke-linejoin="round"/>
<path d="M31.0912 31.0912C41.4161 20.7663 46.6112 9.22145 42.6949 5.3051C38.7786 1.38876 27.2337 6.58393 16.9088 16.9088C6.58393 27.2337 1.38876 38.7786 5.3051 42.6949C9.22145 46.6112 20.7663 41.4161 31.0912 31.0912Z" stroke="#D08935" stroke-width="2" stroke-linecap="round" stroke-linejoin="round"/>
</g>
<path id="Vector_2" d="M24 27C25.6569 27 27 25.6569 27 24C27 22.3431 25.6569 21 24 21C22.3431 21 21 22.3431 21 24C21 25.6569 22.3431 27 24 27Z" fill="#D08935"/>
</g>
</svg>
