<svg width="100" height="101" viewBox="0 0 100 101" fill="none" xmlns="http://www.w3.org/2000/svg">
<g id="1">
<path id="Vector" d="M28.2857 12.5H17.4286C15.9888 12.5 14.608 13.0719 13.59 14.09C12.5719 15.108 12 16.4888 12 17.9286V28.7857M71.7143 12.5H82.5714C84.0112 12.5 85.392 13.0719 86.41 14.09C87.4281 15.108 88 16.4888 88 17.9286V28.7857M88 72.2143V83.0714C88 84.5112 87.4281 85.892 86.41 86.91C85.392 87.9281 84.0112 88.5 82.5714 88.5H71.7143M28.2857 88.5H17.4286C15.9888 88.5 14.608 87.9281 13.59 86.91C12.5719 85.892 12 84.5112 12 83.0714V72.2143M28.2857 36.9286L50 26.0714L71.7143 36.9286M28.2857 36.9286L50 47.7857M28.2857 36.9286V64.0714L50 74.9286M50 47.7857L71.7143 36.9286M50 47.7857V74.9286M71.7143 36.9286V64.0714L50 74.9286" stroke="#D08935" stroke-width="2" stroke-linecap="round" stroke-linejoin="round"/>
</g>
</svg>
