<svg width="68" height="68" viewBox="0 0 68 68" fill="none" xmlns="http://www.w3.org/2000/svg">
<g id="icon-2" clip-path="url(#clip0_262_9371)">
<g id="Group 15">
<path id="Vector" d="M61.4033 48.6223L67.5944 35.9282C68.1018 34.9442 68.2033 34.5505 67.5944 34.0585C67.3914 33.7633 67.1884 33.7633 67.1884 33.7633C65.869 33.7633 64.4481 33.7633 63.1287 33.7633H62.9257L62.7227 33.5665C62.6212 33.4681 62.5197 33.2713 62.5197 33.1729V27.9574C62.5197 27.6622 62.4182 27.4654 62.2153 27.4654C62.1138 27.4654 62.0123 27.367 61.5048 27.367L57.4451 27.2686L57.2421 26.875V21.4628C57.2421 20.6755 57.0391 20.5771 56.1257 20.5771H35.5227C34.9138 20.5771 34.7108 20.6755 34.7108 21.5612V27.0718L34.4063 27.367H34.2033C32.9854 27.367 31.666 27.367 30.4481 27.367C29.9406 27.367 29.7376 27.4654 29.7376 27.4654C29.6361 27.5638 29.4332 27.6622 29.4332 27.9574C29.4332 29.6303 29.4332 31.3032 29.4332 32.9761V33.1729L29.2302 33.3697C29.1287 33.4681 28.9257 33.5665 28.8242 33.4681C26.8959 33.2713 24.7645 32.0904 23.2421 30.3192L21.7197 28.4495C21.4153 28.0559 21.0093 28.0559 20.2988 28.0559H19.9944C19.7914 28.0559 19.5884 27.9574 19.3854 27.6622C17.9645 24.9069 16.6451 22.1516 15.2242 19.3963C15.0212 18.9043 14.7167 18.7074 14.2093 18.7074C13.6003 18.7074 12.8899 18.7074 12.2809 18.7074H12.0779L11.7735 18.4122V18.2154C11.7735 16.9362 11.7735 15.7553 11.7735 14.4761C11.7735 13.5904 11.672 13.1968 11.266 13C10.9615 13.1968 10.657 13.0984 9.84511 13.0984C8.72869 13.0984 7.61227 13.0984 6.39436 13.0984C5.58242 13.0984 5.27794 13.2952 5.07496 13.6888C5.07496 13.7872 4.97346 14.0824 4.97346 14.8697C4.97346 16.0505 4.97346 17.2314 4.97346 18.4122V18.609L4.77048 18.8059C4.66899 18.9043 4.466 19.0027 4.36451 19.0027C3.95854 19.0027 3.55257 19.1011 3.34958 19.2979C3.1466 19.4947 3.04511 19.8883 3.04511 20.3803V27.6622C3.04511 27.9574 2.84212 28.2527 2.43615 28.2527C2.23317 28.2527 2.03018 28.2527 1.8272 28.2527C1.7257 28.2527 1.62421 28.2527 1.62421 28.2527C0.913762 28.2527 0.507792 28.3511 0.203315 28.7447C0.000329509 29.1383 0.000329517 29.3351 0.101822 29.6303C1.21824 32.3856 2.43615 35.0426 3.55257 37.6995C4.06003 38.9787 4.36451 39.8644 4.56749 40.4548C5.17645 43.0133 4.77048 45.4734 3.34958 47.8351C3.1466 48.2287 3.1466 48.3271 3.1466 48.7207C3.1466 49.2128 3.1466 49.6064 3.1466 50.0984C3.85705 49.6064 4.56749 49.2128 5.37943 48.9176C5.37943 48.8192 5.48093 48.6223 5.48093 48.5239C6.08988 47.5399 6.49585 46.4575 6.69884 45.2766V45.0798L6.90182 44.883C7.00331 44.7846 7.2063 44.7846 7.30779 44.7846H60.0839L60.3884 44.883L60.4899 45.0798V45.4734L59.069 48.4255C59.8809 48.4255 60.5914 48.5239 61.4033 48.6223ZM60.8959 28.6463L61.2003 28.9415V33.4681L60.8959 33.7633H52.1675L51.863 33.4681V28.9415L52.1675 28.6463H60.8959ZM46.4839 22.25L46.7884 21.9548H55.6182L55.9227 22.3484V22.4468L55.8212 27.1702L55.6182 27.367L55.3138 27.4654H46.7884L46.4839 27.1702V22.25ZM50.5436 29.2367V33.4681L50.2391 33.7633H41.5108L41.2063 33.4681V28.9415L41.5108 28.6463H50.1376L50.4421 28.9415L50.5436 29.2367ZM35.8272 22.25L36.1317 21.9548H44.9615L45.266 22.25V27.0718L44.9615 27.367H36.1317L35.8272 27.0718V22.25ZM30.5496 29.0399L30.8541 28.7447H39.5824L39.8869 29.0399V33.4681L39.5824 33.7633H30.8541L30.5496 33.4681V29.0399ZM7.10481 15.6569L7.40928 15.3617H9.03316L9.33764 15.6569V18.7074L9.13466 19.0027H7.40928L7.10481 18.7074V15.6569ZM5.48093 21.1676H13.1944L13.4988 21.3644L13.6003 21.4628L16.7466 27.5638V27.859L16.6451 28.0559L16.2391 28.2527H5.48093L5.17645 27.9574V21.4628L5.48093 21.1676ZM7.30779 42.7181L7.00331 42.4229V42.2261C6.90182 40.8484 6.59734 39.5692 6.08988 38.2899C5.07496 35.9282 4.06003 33.5665 3.04511 31.2048V30.8112L3.1466 30.6144L3.34958 30.516H19.7914L19.9944 30.6144C20.0959 30.6144 20.1973 30.7128 20.1973 30.8112L20.2988 30.9096C20.9078 31.6968 21.5167 32.3856 22.1257 32.9761C24.257 35.0426 26.8959 36.0266 29.8391 36.0266H64.4481L64.7526 36.5186L64.8541 36.7154L62.1138 42.4229C62.0123 42.6197 61.8093 42.8165 61.5048 42.8165H7.30779V42.7181Z" fill="#D08935"/>
<path id="Vector_2" d="M66.9002 54.4089C67.1002 54.1089 67.1002 53.7089 67.0002 53.4089C67.0002 53.3089 66.9002 53.1089 66.5002 52.8089C65.6002 51.8089 64.7002 50.9089 63.7002 49.9089C62.6002 48.8089 61.1002 48.1089 59.5002 48.1089C57.9002 48.1089 56.4002 48.8089 55.2002 50.0089C54.7002 50.6089 54.1002 51.1089 53.6002 51.7089C52.5002 52.8089 50.8002 53.1089 49.4002 52.5089C48.6002 52.1089 47.8002 51.3089 47.1002 50.5089C46.9002 50.3089 46.7002 50.1089 46.5002 49.9089C44.5002 47.9089 41.4002 47.6089 39.0002 49.3089C38.4002 49.7089 37.8002 50.4089 37.2002 51.0089L36.7002 51.5089C36.3002 51.9089 35.9002 52.2089 35.7002 52.4089C34.6002 53.0089 33.2002 53.1089 32.1002 52.5089C31.7002 52.3089 31.3002 51.9089 30.6002 51.2089L30.3002 50.9089C29.9002 50.1089 29.3002 49.5089 28.7002 49.1089C26.3002 47.5089 23.2002 47.8089 21.2002 50.0089C21.1002 50.1089 20.9002 50.3089 20.8002 50.5089C20.1002 51.2089 19.4002 52.0089 18.6002 52.4089C17.5002 53.0089 16.2002 52.9089 15.2002 52.3089C14.9002 52.1089 14.4002 51.8089 13.9002 51.2089L13.5002 50.7089C13.0002 50.2089 12.6002 49.7089 12.1002 49.4089C9.70023 47.5089 6.30023 47.7089 4.20023 50.0089C3.20023 51.0089 2.30023 52.1089 1.30023 53.1089C1.10023 53.4089 0.900231 53.7089 1.00023 54.1089C1.10023 54.4089 1.30023 54.7089 1.50023 54.8089C2.10023 55.1089 2.60023 55.0089 3.00023 54.5089C3.80023 53.6089 4.70023 52.7089 5.50023 51.8089C5.90023 51.3089 6.30023 51.0089 6.60023 50.8089C7.70023 50.2089 9.10023 50.1089 10.2002 50.7089C10.6002 50.9089 11.0002 51.3089 11.7002 52.0089L12.0002 52.4089C12.5002 53.0089 13.1002 53.5089 13.6002 53.9089C15.9002 55.6089 19.1002 55.3089 21.1002 53.2089L22.5002 51.7089C23.0002 51.2089 23.3002 50.9089 23.6002 50.7089C24.2002 50.4089 24.8002 50.2089 25.4002 50.2089C26.4002 50.2089 27.3002 50.6089 28.1002 51.4089C28.3002 51.6089 28.5002 51.8089 28.7002 52.0089C29.3002 52.6089 29.9002 53.3089 30.4002 53.7089C32.8002 55.5089 36.0002 55.3089 38.2002 53.1089C38.4002 52.9089 38.6002 52.7089 38.7002 52.5089C39.6002 51.5089 40.7002 50.3089 42.3002 50.2089C43.8002 50.2089 44.7002 50.9089 45.6002 51.8089C46.0002 52.2089 46.4002 52.6089 46.8002 53.1089C48.8002 55.1089 51.8002 55.5089 54.1002 54.0089C54.9002 53.5089 55.7002 52.6089 56.4002 51.8089L56.7002 51.4089C57.8002 50.2089 59.6002 49.8089 61.0002 50.6089C61.4002 50.8089 61.9002 51.2089 62.6002 51.9089C63.4002 52.7089 64.2002 53.5089 64.9002 54.3089C65.3002 54.8089 65.6002 54.9089 65.9002 54.8089C66.4002 54.9089 66.7002 54.7089 66.9002 54.4089Z" fill="#D08935"/>
<circle id="Ellipse 14" cx="8" cy="33.0984" r="1" fill="#D08935"/>
<circle id="Ellipse 15" cx="12" cy="33.0984" r="1" fill="#D08935"/>
<circle id="Ellipse 16" cx="16" cy="33.0984" r="1" fill="#D08935"/>
<rect id="Rectangle 13" x="7" y="24.0984" width="6" height="2" rx="1" fill="#D08935"/>
</g>
</g>
<defs>
<clipPath id="clip0_262_9371">
<rect width="68" height="68" fill="white"/>
</clipPath>
</defs>
</svg>
