<svg width="84" height="84" viewBox="0 0 84 84" fill="none" xmlns="http://www.w3.org/2000/svg">
<g id="Group 11">
<g id="Vector">
<path d="M30 28.3999C30.8 27.9999 31.7 27.9999 32.5 27.9999V25.8999C31.7 25.9999 30.9 25.9999 30.2 26.1999C28.7 26.5999 27.5 27.3999 26.7 28.7999C26.1 29.8999 26 31.0999 26 32.4999H28.1C28.1 31.1999 28.1 29.3999 30 28.3999Z" fill="#D08935"/>
<path d="M50.1 25.9999H43.6V28.0999H50.1V25.9999Z" fill="#D08935"/>
<path d="M58.9 34.7999H56.8V41.2999H58.9V34.7999Z" fill="#D08935"/>
<path d="M28.1 43.5999H26V50.0999H28.1V43.5999Z" fill="#D08935"/>
<path d="M52.4 58.8999C52.7 58.8999 53 58.8999 53.2 58.8999H53.3C55.4 58.8999 57.2 57.7999 58.2 55.9999C58.8 54.8999 58.9 53.6999 58.9 52.3999H56.8C56.8 53.1999 56.8 53.9999 56.5 54.7999C55.6 56.7999 53.8 56.8999 52.4 56.7999V58.8999Z" fill="#D08935"/>
<path d="M41.3 56.7999H34.8V58.8999H41.3V56.7999Z" fill="#D08935"/>
</g>
<path id="Vector_2" d="M58.801 3.97976C58.3035 2.28836 57.0101 0.895447 55.2192 0.298481C54.9207 0.198986 54.1248 0 52.7319 0C36.0169 0 20.1973 0 5.67117 0C3.68128 0 2.18887 0.795952 0.994942 2.38786C0.397976 3.2833 0 4.17875 0 5.0742C0 21.1922 0 37.2108 0 53.3288C0 54.5228 0.298485 55.6172 0.994942 56.6121C1.6914 57.6071 2.68634 58.403 3.88027 58.7015C4.17875 58.9005 4.87521 59 6.46712 59C12.3373 59 18.2074 59 23.9781 59V56.9106C17.8094 56.9106 11.7403 56.9106 5.67117 56.9106C4.27825 56.9106 3.08432 56.2142 2.48735 55.1197C2.18887 54.6223 2.08937 53.9258 2.08937 53.1298C2.08937 36.7133 2.08937 20.7943 2.08937 5.77066C2.08937 4.77571 2.38786 3.88027 2.98482 3.2833C3.58179 2.58685 4.47723 2.18887 5.57167 2.18887C20.8938 2.18887 36.8128 2.18887 53.5278 2.18887C54.5228 2.18887 55.3187 2.48735 55.9157 3.08432C56.6121 3.78077 56.9106 4.77571 56.9106 5.87015C56.9106 11.8398 56.9106 17.9089 56.9106 23.9781H59C59 18.1079 59 12.2378 59 6.26813C59 4.9747 58.9005 4.37774 58.801 3.97976Z" fill="#D08935"/>
<path id="Vector_3" d="M25.199 80.0202C25.6965 81.7116 26.9899 83.1046 28.7808 83.7015C29.0793 83.801 29.8752 84 31.2681 84C47.9831 84 63.8027 84 78.3288 84C80.3187 84 81.8111 83.204 83.0051 81.6121C83.602 80.7167 84 79.8213 84 78.9258C84 62.8078 84 46.7892 84 30.6712C84 29.4772 83.7015 28.3828 83.0051 27.3879C82.3086 26.3929 81.3137 25.597 80.1197 25.2985C79.8213 25.0995 79.1248 25 77.5329 25C71.6627 25 65.7926 25 60.0219 25V27.0894C66.1906 27.0894 72.2597 27.0894 78.3288 27.0894C79.7218 27.0894 80.9157 27.7858 81.5126 28.8803C81.8111 29.3777 81.9106 30.0742 81.9106 30.8702C81.9106 47.2867 81.9106 63.2057 81.9106 78.2293C81.9106 79.2243 81.6121 80.1197 81.0152 80.7167C80.4182 81.4132 79.5228 81.8111 78.4283 81.8111C63.1062 81.8111 47.1872 81.8111 30.4722 81.8111C29.4772 81.8111 28.6813 81.5126 28.0843 80.9157C27.3879 80.2192 27.0894 79.2243 27.0894 78.1299C27.0894 72.1602 27.0894 66.0911 27.0894 60.0219H25C25 65.8921 25 71.7622 25 77.7319C25 79.0253 25.0995 79.6223 25.199 80.0202Z" fill="#D08935"/>
</g>
</svg>
