<svg width="68" height="68" viewBox="0 0 68 68" fill="none" xmlns="http://www.w3.org/2000/svg">
<g id="icon-2">
<g id="Group 16">
<path id="Vector" d="M33.9609 47.9989V59.509C33.9609 60.2349 34.0646 60.546 34.4794 60.8571C34.5831 60.9608 34.8942 60.9608 35.5164 60.9608H59.47C60.6106 60.9608 60.9217 60.6497 60.9217 59.509V47.7915C60.9217 47.1693 60.7143 46.7545 60.4032 46.5471C60.2995 46.4434 59.9885 46.4434 59.3663 46.4434H54.9074C54.8037 46.4434 54.7 46.3397 54.7 46.236C54.7 42.6067 54.7 38.9774 54.7 35.348C54.7 34.4148 54.3889 34 53.352 34C49.4115 34 45.3674 34 41.427 34C40.8048 34 40.4937 34.1037 40.2864 34.5185C40.2864 34.6222 40.1827 34.9333 40.1827 35.5554C40.1827 39.0811 40.1827 42.6067 40.1827 46.236C40.1827 46.3397 40.079 46.4434 39.9753 46.4434C38.5235 46.4434 36.9681 46.4434 35.5164 46.4434C34.7905 46.4434 34.3757 46.5471 34.1683 46.9619C34.0646 47.0656 33.9609 47.3767 33.9609 47.9989ZM56.3591 52.2504C56.4628 52.1467 56.5665 51.8356 56.5665 51.6282C56.5665 50.6949 56.5665 49.7617 56.5665 48.8284C56.5665 48.621 56.6702 48.5173 56.8776 48.5173H58.9515V58.6795L58.8478 58.7832C58.8478 58.8869 58.7441 58.8869 58.7441 58.8869H48.6857L48.582 58.7832C48.582 58.7832 48.4783 58.6795 48.4783 58.5758V48.7247C48.4783 48.5173 48.582 48.4136 48.7894 48.4136H50.6559C50.7596 48.4136 50.967 48.5173 50.967 48.7247V51.4208C50.967 52.043 51.1744 52.3541 51.7965 52.3541C53.1446 52.3541 54.5963 52.3541 55.9443 52.3541C56.1517 52.3541 56.2554 52.2504 56.3591 52.2504ZM55.0111 48.5173C55.1148 48.621 55.2185 48.7247 55.2185 48.7247V50.9023C55.2185 50.9023 55.2185 50.9023 55.1148 50.9023H52.5224L52.4187 50.7986C52.315 50.7986 52.315 50.6949 52.315 50.5913V48.5173L52.4187 48.4136C52.4187 48.4136 52.5224 48.4136 52.5224 48.31H52.6261L55.0111 48.5173ZM46.0933 36.1776L46.197 36.0739H48.8931V38.3552L48.7894 38.4589C48.7894 38.4589 48.6857 38.5626 48.582 38.5626H46.0933L45.9896 38.4589C45.9896 38.4589 45.8859 38.3552 45.8859 38.2515L46.0933 36.1776ZM42.2566 36.1776C42.3603 36.0739 42.464 36.0739 42.5676 36.0739H44.5379C44.6416 36.0739 44.8489 36.1776 44.8489 36.385C44.8489 37.2146 44.8489 38.0441 44.8489 38.9774C44.8489 39.3922 44.9526 39.7032 45.0563 39.8069C45.16 39.9106 45.3674 40.0143 45.7822 40.0143C47.0265 40.0143 48.2709 40.0143 49.5152 40.0143C50.3448 40.0143 50.5522 39.8069 50.5522 39.0811C50.5522 38.1478 50.5522 37.3183 50.5522 36.385V36.1776L50.6559 36.0739C50.4485 36.0739 50.4485 36.0739 50.5522 36.0739H52.6261C52.7298 36.1776 52.7298 36.1776 52.7298 36.2813V46.4434H42.464L42.3603 46.3397C42.2566 46.3397 42.2566 46.236 42.2566 46.236V36.1776ZM39.8716 48.7247C39.9753 48.5173 39.9753 48.5173 40.079 48.5173H42.5676L42.6713 48.621C42.775 48.7247 42.775 48.7247 42.775 48.8284V50.9023L42.6713 51.006C42.6713 51.006 42.5676 51.1097 42.464 51.1097H39.9753L39.8716 51.006C39.8716 50.9023 39.7679 50.9023 39.7679 50.7986V48.7247H39.8716ZM36.0348 48.7247C36.0348 48.621 36.1385 48.5173 36.2422 48.5173H38.1088C38.2124 48.5173 38.4198 48.621 38.4198 48.8284C38.4198 49.7617 38.4198 50.6949 38.4198 51.6282C38.4198 51.8356 38.5235 52.043 38.6272 52.1467C38.7309 52.2504 39.042 52.3541 39.4568 52.3541H43.2935C43.6046 52.3541 44.0194 52.1467 44.0194 51.7319C44.0194 50.6949 44.0194 49.7617 44.0194 48.7247C44.0194 48.621 44.1231 48.5173 44.3305 48.5173H46.3007L46.4044 48.621V58.7832L46.3007 58.8869H36.2422L36.1385 58.7832C36.1385 58.7832 36.0348 58.6795 36.0348 58.5758V48.7247Z" fill="#D08935"/>
<path id="Vector_2" d="M18.5359 42.6274H26.1539C26.4804 42.6274 26.8069 42.5186 27.0246 42.3009C30.9424 38.8183 34.8603 35.3356 38.887 31.853C38.9958 31.7442 39.1046 31.7442 39.1046 31.7442C43.1313 31.7442 47.2668 31.7442 51.2935 31.7442C52.9259 31.7442 54.3407 31.5265 55.5378 31.2C57.3879 30.6558 58.585 30.3293 59.0204 30.1117C60.6528 29.4587 61.7411 27.935 61.9588 26.3025C62.1764 24.6701 61.5234 23.0376 60.2175 22.0581C59.6733 21.6227 58.585 21.0786 57.9321 20.6432L57.8232 20.5344C55.6467 19.3373 53.3612 18.6843 50.8582 18.4666C50.314 18.4666 49.5522 18.3578 48.5728 18.3578C46.7227 18.3578 44.8726 18.3578 42.9136 18.3578C42.8048 18.3578 42.696 18.3578 42.696 18.2489L30.2895 7.36568C30.0718 7.14802 29.8541 7.03918 29.5276 7.03918C27.0246 7.03918 24.6303 7.03918 22.1273 7.03918C21.6919 7.03918 21.4743 7.03918 21.3655 7.14802C20.9301 7.36568 20.6037 7.90984 20.7125 8.34517C20.7125 8.45401 20.8213 8.67167 21.1478 8.99817L28.3305 18.0313V18.2489C28.3305 18.2489 28.2217 18.3578 28.1129 18.3578H20.386C20.2772 18.3578 20.2772 18.3578 20.1683 18.3578C20.0595 18.3578 20.0595 18.2489 20.0595 18.2489C17.3388 15.3105 14.7269 12.4808 12.115 9.54233C11.8973 9.32467 11.5708 9.107 11.2443 9.107C10.3737 9.107 9.50307 9.107 8.63244 9.107C7.7618 9.107 7.32649 9.32467 7.21766 9.97766C7.21766 10.1953 7.21766 10.413 7.32649 10.7395C8.19712 13.8956 9.17658 17.0518 10.156 20.0991C10.156 20.2079 10.156 20.4256 10.0472 20.4256C9.39424 20.7521 8.74127 20.9697 8.08829 21.2962C7.43532 21.6227 7.21766 21.8404 7.21766 22.4934C7.21766 23.1464 7.21766 23.9082 7.21766 24.5612C7.21766 24.9965 7.43532 25.323 8.08829 25.5407C8.95893 25.976 9.93839 26.4114 10.809 26.8467L10.9179 26.9555C10.9179 26.9555 10.9179 27.0644 11.0267 27.0644V27.1732C11.0267 27.282 11.0267 27.282 11.0267 27.282C9.82956 29.0234 8.63244 30.6558 7.43532 32.3972C7.10883 32.6148 7 32.7237 7 32.8325C7 33.0502 7 33.2678 7.10883 33.3767C7.21766 33.4855 7.43532 33.5943 7.65298 33.5943C8.74127 33.5943 9.72073 33.5943 10.7002 33.5943C10.809 33.5943 10.9179 33.5943 11.1355 33.4855L17.1211 29.894C17.2299 29.7852 17.3388 29.7852 17.4476 29.894L21.1478 31.6353C21.4743 31.7442 21.5831 31.853 21.9096 31.853C22.6714 31.853 23.542 31.853 24.3038 31.853H24.4127L24.6303 32.0707V32.2883L17.5564 40.7773C17.2299 41.1038 17.2299 41.5391 17.3388 41.8656C17.5564 42.3009 17.9918 42.6274 18.5359 42.6274ZM24.3038 9.54233V9.32467C24.3038 9.32467 24.3038 9.21583 24.4127 9.21583H29.2012L39.1046 17.9224V18.1401C39.1046 18.2489 38.9958 18.2489 38.9958 18.2489H31.2689L31.1601 18.1401L24.3038 9.54233ZM18.7536 27.0644L18.6447 27.1732L10.7002 32.1795H9.50307L9.39424 32.0707H9.28541V31.853L12.7679 26.8467L12.9856 26.7379H18.5359L18.6447 26.8467V26.9555C18.7536 26.9555 18.7536 27.0644 18.7536 27.0644ZM20.9301 40.1243C24.195 35.9886 27.5687 31.853 30.8336 27.7174C31.3777 27.0644 31.1601 26.4114 30.7248 26.0849C30.2894 25.7584 29.7453 25.6495 29.2012 26.3025C28.3305 27.3909 27.4599 28.3704 26.5893 29.4587H26.4804C26.3716 29.4587 26.3716 29.4587 26.3716 29.4587C25.0656 29.4587 23.6509 29.4587 22.3449 29.4587C22.1273 29.4587 21.9096 29.4587 21.6919 29.3498C21.039 29.0234 20.4948 28.8057 19.8418 28.4792L19.733 28.3704V28.1527C19.733 28.1527 19.733 28.0439 19.8418 28.0439C20.4948 27.6085 21.2566 27.1732 21.9096 26.7379C22.2361 26.5202 22.4537 26.4114 22.4537 26.3025C22.5626 26.1937 22.5626 25.976 22.4537 25.7584C22.3449 25.5407 22.2361 25.4319 22.0184 25.323C21.9096 25.323 21.8008 25.2142 21.4743 25.2142C18.6447 25.2142 15.8152 25.2142 12.9856 25.2142C12.7679 25.2142 12.5503 25.2142 12.3326 25.1054C11.3532 24.6701 10.3737 24.2347 9.39424 23.6906C9.28541 23.6906 9.28541 23.5817 9.17658 23.4729C9.17658 23.3641 9.06775 23.3641 9.06775 23.2552C9.06775 23.1464 9.06775 23.0376 9.17658 23.0376C9.28541 23.0376 9.28541 22.9287 9.39424 22.8199L11.7885 21.7316C12.5503 21.4051 12.5503 20.7521 12.3326 20.2079C11.5708 17.4871 10.7002 14.5486 9.82956 11.6101V11.5013L9.93839 11.3925H10.7002C10.809 11.3925 10.9179 11.3925 10.9179 11.5013L18.7536 20.2079C19.08 20.5344 19.2977 20.5344 19.8418 20.5344C29.31 20.5344 38.7781 20.5344 48.2463 20.5344C49.3346 20.5344 50.0964 20.5344 50.5317 20.5344C52.8171 20.7521 54.9937 21.2962 56.9526 22.3846C57.1703 22.4934 57.1703 22.6022 57.1703 22.7111C57.1703 22.8199 57.0614 22.9287 56.8438 22.9287C56.082 22.9287 55.3202 22.9287 54.5584 22.9287C53.9054 22.9287 53.6877 23.2552 53.6877 23.5817C53.6877 23.9082 54.0142 24.3436 54.4495 24.3436C56.082 24.3436 57.7144 24.3436 59.3468 24.3436C59.4557 24.3436 59.4557 24.3436 59.5645 24.3436C59.6733 24.3436 59.6733 24.4524 59.6733 24.4524C59.9998 25.1054 59.9998 25.976 59.6733 26.629C59.3469 27.282 58.8027 27.8262 58.1497 28.0439C56.6261 28.588 54.5584 29.241 52.7083 29.3498C52.1641 29.3498 51.4023 29.4587 50.4229 29.4587H41.8253C41.8253 29.4587 41.8253 29.241 41.9342 29.1322C42.3695 28.8057 42.8048 28.3704 43.2401 27.935C43.5666 27.6085 43.6754 27.3909 43.7843 27.3909C44.0019 26.9555 43.8931 26.5202 43.5666 26.1937C43.349 25.976 42.9136 25.7584 42.4783 25.8672C42.3695 25.8672 42.1518 25.976 41.8253 26.3025C36.6015 30.9823 31.2689 35.5533 26.0451 40.2331C25.9363 40.3419 25.8275 40.3419 25.7186 40.3419H21.1478L20.9301 40.1243Z" fill="#D08935"/>
</g>
</g>
</svg>
