<svg width="100" height="101" viewBox="0 0 100 101" fill="none" xmlns="http://www.w3.org/2000/svg">
<g id="3">
<path id="Vector" d="M63.4286 26.0263H83.5714V45.6053L97 52.1316V71.7105H83.5714M83.5714 71.7105C83.5714 77.1171 79.0623 81.5 73.5 81.5C67.9377 81.5 63.4286 77.1171 63.4286 71.7105M83.5714 71.7105C83.5714 66.3039 79.0623 61.9211 73.5 61.9211C67.9377 61.9211 63.4286 66.3039 63.4286 71.7105M16.4286 71.7105C16.4286 77.1171 20.9377 81.5 26.5 81.5C32.0623 81.5 36.5714 77.1171 36.5714 71.7105M16.4286 71.7105C16.4286 66.3039 20.9377 61.9211 26.5 61.9211C32.0623 61.9211 36.5714 66.3039 36.5714 71.7105M16.4286 71.7105H3V19.5H63.4286V71.7105M36.5714 71.7105H63.4286M43.2857 32.5526L50 39.0789M50 39.0789L43.2857 45.6053M50 39.0789H26.5C23.8289 39.0789 21.2672 40.1103 19.3784 41.9462C17.4897 43.7821 16.4286 46.2721 16.4286 48.8684" stroke="#D08935" stroke-width="2" stroke-linecap="round" stroke-linejoin="round"/>
</g>
</svg>
