<svg width="48" height="48" viewBox="0 0 48 48" fill="none" xmlns="http://www.w3.org/2000/svg">
<g id="icon-3">
<path id="Vector" d="M32.712 31.854C31.0611 33.6818 28.8446 34.989 26.3393 35.4978M35.0678 20.1051C35.4978 21.3242 35.7324 22.6351 35.7324 24C35.7324 25.3658 35.4978 26.6785 35.0669 27.8986M26.3448 12.5032C28.8483 13.0119 31.0629 14.3182 32.712 16.1469M15.3916 16.0296C17.0233 14.2678 19.1912 13.0073 21.6359 12.5068M12.901 27.8078C12.4913 26.6134 12.2685 25.3328 12.2685 24C12.2685 22.6681 12.4903 21.3884 12.8992 20.1958M21.778 35.5207C19.259 35.0394 17.0269 33.7506 15.3595 31.9365M26.1074 39.9821L26.5658 31.073C27.4054 30.7668 28.1672 30.3149 28.8391 29.7493L36.7573 34.0531M11.0108 34.0265L19.1078 29.7063C19.8108 30.3085 20.6166 30.7787 21.5076 31.0932L22.0356 39.9821M8.96117 17.5458L16.586 22.6763C16.5099 23.1081 16.4522 23.5453 16.4522 24C16.4522 24.4547 16.509 24.8919 16.586 25.3237L8.89608 30.4983M22.0356 8.01792L21.5076 16.9068C20.6157 17.2203 19.8099 17.6906 19.1078 18.2928L11.1245 14.034M36.9974 13.8177L28.84 18.2516C28.1681 17.6851 27.4063 17.2332 26.5667 16.927L26.1083 8.01792M38.9013 30.5221L31.4085 25.3952C31.4956 24.9405 31.5506 24.4767 31.5506 24C31.5506 23.5233 31.4947 23.0595 31.4085 22.6048L38.8793 17.4926M23.9982 7.5C33.0979 7.5 40.5 14.9012 40.5 24C40.5 33.0988 33.0979 40.5 23.9982 40.5C14.8993 40.5 7.5 33.0988 7.5 24C7.5 14.9012 14.8993 7.5 23.9982 7.5ZM24 2C11.8505 2 2 11.8496 2 24C2 36.1504 11.8505 46 24 46C36.1495 46 46 36.1504 46 24C46 11.8496 36.1495 2 24 2ZM26.75 24C26.75 25.5188 25.5188 26.75 24 26.75C22.4812 26.75 21.25 25.5188 21.25 24C21.25 22.4812 22.4812 21.25 24 21.25C25.5188 21.25 26.75 22.4812 26.75 24Z" stroke="#D08935" stroke-width="2" stroke-miterlimit="10" stroke-linecap="round" stroke-linejoin="round"/>
</g>
</svg>
