<svg width="100" height="100" viewBox="0 0 100 100" fill="none" xmlns="http://www.w3.org/2000/svg">
<g id="1">
<path id="Vector" d="M84.702 92.2984C89.4015 90.5943 91.9013 85.783 90.7014 80.9717C88.2017 71.2488 85.7019 60.9245 82.9022 50.1993C82.3023 47.9941 80.6024 46.0896 78.4027 45.4882C77.8027 45.2877 76.9028 45.1875 75.503 45.0873C70.0035 44.6863 64.6041 44.2854 59.1047 43.8844H58.9047L58.6047 43.5837V38.6722C58.6047 38.4717 58.7047 38.2712 58.8047 38.171C60.9045 36.2665 62.2043 33.9611 62.7043 31.2547C62.9043 30.4528 62.9043 29.3502 62.9043 28.1474C62.9043 23.8373 62.9043 19.4269 62.9043 14.9163C62.9043 13.0118 62.2043 11.2075 60.9045 9.90448C59.6046 8.60142 57.9048 8 56.005 8C52.6053 8 49.3057 8 45.906 8C45.806 8 45.7061 8 45.7061 8C44.4062 8 43.5063 8.10024 42.9063 8.20047C39.9067 9.00236 37.9069 11.6085 37.9069 14.5153C37.9069 18.9257 37.9069 23.3361 37.9069 27.9469C37.9069 29.3502 38.0068 30.4528 38.1068 31.2547C38.6068 33.9611 39.9067 36.2665 42.0064 38.171C42.1064 38.2712 42.1064 38.3715 42.2064 38.4717V43.5837L42.0064 43.7842C41.9064 43.8844 41.8065 43.9847 41.6065 43.9847C35.8071 44.4859 30.0077 44.8868 24.3083 45.2877C23.4084 45.388 22.7084 45.4882 22.2085 45.6887C20.6086 46.2901 19.4088 47.2925 18.5089 48.796C18.2089 49.2972 18.0089 49.9988 17.8089 50.8007C15.4092 60.9245 12.9094 70.7476 10.5097 80.2701C10.2097 81.3726 10.0097 82.2748 10.0097 82.8762C9.80976 87.2866 12.7095 91.1958 16.909 92.4988C17.309 92.5991 17.609 92.6993 18.0089 92.7995C18.4089 92.8998 18.7088 92.8998 19.1088 92.8998C22.7084 92.8998 26.408 92.8998 30.0077 92.8998C31.6075 92.8998 32.8074 92.7995 33.3073 92.6993C35.8071 92.0979 37.7069 90.0932 38.3068 87.6875C38.4068 87.3868 38.6068 87.1863 38.9068 87.1863H62.1044C62.4043 87.1863 62.6043 87.3868 62.7043 87.6875C63.0043 88.7901 63.4042 89.6922 64.1042 90.4941C65.504 92.0979 67.3038 93 69.6036 93C73.8032 93 78.0027 93 82.2023 93C82.4023 93 82.6022 93 82.7022 92.8998C82.9022 92.7995 83.2022 92.7995 83.4022 92.6993C83.9021 92.4988 84.3021 92.3986 84.702 92.2984ZM75.9029 46.8915C77.0028 46.9917 77.8027 47.092 78.3027 47.3927C79.7025 47.9941 80.7024 49.1969 81.1024 50.8007C82.6022 56.7146 84.1021 62.7288 85.6019 68.7429L85.7019 68.9434L85.5019 69.2441C85.4019 69.3443 85.302 69.4446 85.002 69.4446H78.0027C77.8027 69.4446 77.7027 69.3443 77.6028 69.2441C77.5028 69.1439 77.4028 68.9434 77.4028 68.7429C77.4028 62.7288 77.4028 57.0153 77.4028 51.6026C77.4028 51.1014 76.9028 50.7005 76.4029 50.7005C69.0036 50.7005 61.6044 50.7005 54.0052 50.7005C53.6052 50.7005 53.5052 50.5 53.4053 50.3998C53.4053 50.2995 53.3053 49.9988 53.6052 49.7984L57.7048 45.6887C57.8048 45.5884 57.9048 45.5884 58.0048 45.4882H58.3048C64.3041 45.9894 70.1035 46.4906 75.9029 46.8915ZM75.603 53.3066V60.5236L75.403 60.7241C75.303 60.8243 75.203 60.8243 75.003 60.8243H57.6048L57.4048 60.6238C57.3049 60.5236 57.2049 60.3231 57.2049 60.2229V53.0059L57.4048 52.8054C57.5048 52.7052 57.7048 52.605 57.8048 52.605H75.203L75.403 52.8054C75.603 53.0059 75.603 53.1061 75.603 53.3066ZM55.2051 60.6238C55.0051 60.8243 54.9051 60.8243 54.7051 60.8243H46.106L45.906 60.6238C45.806 60.5236 45.7061 60.3231 45.7061 60.2229V53.1061L45.906 52.9057C46.006 52.8054 46.206 52.7052 46.306 52.7052H54.9051L55.1051 52.9057C55.2051 53.0059 55.3051 53.2064 55.3051 53.3066V60.4234L55.2051 60.6238ZM55.3051 63.3302V69.0436L55.1051 69.2441C55.0051 69.3443 54.8051 69.4446 54.7051 69.4446H46.006L45.806 69.2441C45.7061 69.1439 45.6061 68.9434 45.6061 68.8432V63.1297L45.806 62.9292C45.906 62.829 46.106 62.7288 46.206 62.7288H54.9051L55.1051 62.9292C55.3051 63.0295 55.3051 63.1297 55.3051 63.3302ZM56.8049 43.7842C56.8049 43.9847 56.7049 44.1851 56.6049 44.3856L50.8055 50.0991H50.5056C50.3056 50.0991 50.2056 49.9988 50.1056 49.8986L44.5062 44.2854C44.4062 44.1851 44.3062 43.9847 44.3062 43.7842V40.0755L44.8061 39.7748L45.1061 39.875C48.8057 41.579 52.5053 41.579 56.105 39.875H56.5049L56.9049 40.2759V40.4764L56.8049 43.7842ZM39.9067 15.0165C39.9067 14.1144 40.0066 13.4127 40.2066 12.8113C40.9065 10.7064 42.7064 9.60377 45.1061 9.60377C48.8057 9.60377 52.5054 9.60377 56.205 9.60377C59.0047 9.60377 61.2045 11.7087 61.2045 14.4151C61.2045 15.3172 61.2045 16.3196 61.2045 17.2217V17.3219L61.0045 17.6226L60.7045 17.7229H60.4045L60.3045 17.6226C59.2047 16.8208 57.8048 16.3196 56.305 16.3196C52.1054 16.3196 48.3058 16.3196 44.7062 16.3196C43.3063 16.3196 41.8065 16.8208 40.8066 17.6226C40.5066 17.8231 40.3066 17.7229 40.2066 17.7229C40.1066 17.7229 39.9067 17.5224 39.9067 17.1215C39.9067 16.4198 39.9067 15.7182 39.9067 15.0165ZM60.9045 21.4316V21.7323L60.8045 21.8325C60.8045 21.9328 60.7045 21.9328 60.6045 22.033L60.5045 22.1333H40.5066L40.3066 21.9328C40.2066 21.7323 40.2066 21.5318 40.3066 21.4316C41.2065 19.4269 42.9063 18.3243 45.3061 18.3243C48.7057 18.3243 52.2054 18.3243 55.605 18.3243C56.6049 18.3243 57.3049 18.4245 57.9048 18.625C59.3046 19.1262 60.3045 20.0283 60.9045 21.4316ZM39.9067 29.0495C39.9067 27.9469 39.9067 26.4434 39.9067 24.5389C39.9067 24.2382 40.2066 23.9375 40.5066 23.9375H47.8058L48.0058 24.138C48.1058 24.2382 48.2058 24.4387 48.2058 24.5389C48.2058 26.3432 48.2058 28.0472 48.2058 29.8514C48.2058 30.3526 48.3058 30.6533 48.5058 30.8538C48.7057 31.0542 49.1057 31.1545 49.6056 31.1545C50.2056 31.1545 50.9055 31.1545 51.5055 31.1545V29.25H50.7055C50.5056 29.25 50.4056 29.1498 50.3056 29.0495C50.1056 28.9493 50.0056 28.7488 50.0056 28.6486V24.3384L50.2056 24.138C50.3056 24.0377 50.5056 23.9375 50.6055 23.9375H60.8045L61.1045 24.2382V24.4387C61.1045 25.7417 61.1045 27.2453 61.1045 28.8491C61.1045 32.3573 59.3046 35.6651 56.205 37.5696C54.4052 38.6722 52.5054 39.2736 50.5056 39.2736C48.8057 39.2736 47.0059 38.8726 45.4061 37.9705C42.0064 36.1663 40.0066 32.8585 39.9067 29.0495ZM15.3092 68.7429C16.709 63.1297 18.2089 57.4163 19.6087 51.5024C19.9087 50.3998 20.1087 49.6981 20.4087 49.1969C21.2086 47.8939 22.6084 46.9917 24.2083 46.8915C30.3076 46.3903 36.407 45.9894 42.5064 45.4882H42.6064L42.8064 45.5884C42.9063 45.5884 43.0063 45.6887 43.0063 45.7889L47.1059 49.7984C47.4059 50.0991 47.3059 50.2995 47.3059 50.5C47.3059 50.6002 47.1059 50.8007 46.706 50.8007C39.2067 50.8007 31.8075 50.8007 24.4083 50.8007C23.5083 50.8007 23.4084 51.6026 23.4084 51.9033C23.4084 57.717 23.4084 63.3302 23.4084 68.9434V69.1439L23.1084 69.4446H15.8091L15.6092 69.3443L15.4092 69.1439V69.0436C15.3092 68.9434 15.3092 68.8432 15.3092 68.7429ZM43.8062 53.3066L43.7063 60.6238L43.6063 60.7241C43.5063 60.8243 43.5063 60.8243 43.4063 60.8243H25.8081L25.6081 60.6238C25.5081 60.5236 25.4081 60.3231 25.4081 60.2229V53.0059L25.6081 52.8054C25.7081 52.7052 25.9081 52.605 26.0081 52.605L43.5063 52.8054L43.6063 52.9057C43.7063 53.0059 43.7063 53.0059 43.7063 53.1061L43.8062 53.3066ZM18.6089 79.4682C18.0089 80.1698 17.7089 80.9717 17.7089 81.8738C17.7089 84.2795 17.7089 86.8856 17.7089 89.8927C17.7089 90.1934 17.509 90.3939 17.409 90.3939C17.309 90.3939 17.209 90.4941 17.109 90.4941C17.009 90.4941 16.909 90.4941 16.809 90.3939C14.5093 89.4917 13.0094 87.7877 12.2095 85.5825C11.6096 83.7783 11.8096 82.2748 12.3095 80.3703C13.1094 77.3632 13.8093 74.4564 14.5093 71.6498C14.6093 71.3491 14.8092 71.2488 15.1092 71.2488H23.1084L23.3084 71.4493C23.4084 71.5495 23.5083 71.75 23.5083 71.8502V77.8644L23.3084 78.0649C23.2084 78.1651 23.0084 78.1651 22.8084 78.1651C21.1086 77.8644 19.7087 78.2653 18.6089 79.4682ZM36.207 87.888C35.6071 89.2913 34.6072 90.1934 33.2073 90.6946C32.7074 90.8951 31.9075 90.9953 30.7076 90.9953C30.6076 90.9953 30.6076 90.9953 30.5076 90.9953C26.908 90.9953 23.5083 90.9953 20.2087 90.9953C19.8087 90.9953 19.6087 90.6946 19.6087 90.3939V81.8738C19.6087 81.1722 19.9087 80.5708 20.5087 80.1698C21.1086 79.7689 21.9085 79.8691 22.5084 80.1698C23.1084 80.5708 23.5083 81.1722 23.5083 81.9741C23.5083 83.4776 23.5083 84.8809 23.5083 86.2842C23.5083 86.5849 23.9083 87.0861 24.3083 87.0861C28.1079 87.0861 31.9075 87.0861 35.7071 87.0861H35.8071L36.107 87.1863L36.307 87.3868V87.487C36.307 87.7877 36.207 87.888 36.207 87.888ZM26.0081 85.2818C25.8081 85.2818 25.7081 85.1816 25.6081 85.0814C25.5081 84.9811 25.4081 84.7807 25.4081 84.5802V63.1297L25.6081 62.9292C25.7081 62.829 25.9081 62.7288 26.0081 62.7288H43.4063L43.6063 62.9292C43.7063 63.0295 43.8062 63.23 43.8062 63.3302C43.8062 65.6356 43.8062 67.941 43.8062 70.3467C43.8062 70.6474 43.9062 70.9481 44.1062 71.1486C44.3062 71.3491 44.5062 71.4493 44.9061 71.4493C48.6058 71.4493 52.3054 71.4493 56.205 71.4493C56.5049 71.4493 56.8049 71.3491 57.0049 71.1486C57.2049 70.9481 57.3049 70.7476 57.3049 70.5472C57.3049 68.1415 57.3049 65.8361 57.3049 63.4304V63.23L57.6048 62.9292H75.303L75.503 63.1297C75.603 63.23 75.7029 63.4304 75.7029 63.5307V84.8809C75.7029 85.2818 75.403 85.4823 75.103 85.4823H26.0081V85.2818ZM81.4024 90.4941V90.6946L81.1024 90.9953H80.9024C77.5028 90.9953 73.9031 90.9953 70.3035 90.9953H70.2035C69.2036 90.9953 68.4037 90.8951 67.9038 90.6946C66.5039 90.1934 65.504 89.2913 64.9041 87.888L64.8041 87.6875L64.9041 87.3868C65.0041 87.2866 65.104 87.0861 65.404 87.0861H76.8028C77.0028 87.0861 77.2028 86.9859 77.3028 86.7854C77.5028 86.5849 77.6028 86.3844 77.6028 86.2842C77.6028 84.7807 77.6028 83.2771 77.6028 81.7736C77.6028 80.5708 78.6027 79.8691 79.5026 79.8691C80.5025 79.8691 81.5023 80.5708 81.5023 81.8738C81.4024 84.6804 81.4024 87.5873 81.4024 90.4941ZM83.3022 90.1934V89.9929C83.3022 87.487 83.3022 84.9811 83.3022 82.4752C83.3022 81.6733 83.2022 81.0719 83.1022 80.671C82.4023 78.6663 80.3025 77.6639 78.2027 78.3656H77.8027L77.6028 78.1651L77.5028 77.8644V71.9505C77.5028 71.6498 77.8027 71.3491 78.1027 71.3491H85.8019C86.1019 71.3491 86.3019 71.5495 86.4018 71.8502C87.2018 75.158 88.0017 78.3656 88.8016 81.5731C89.7015 85.3821 87.8017 89.0908 84.0021 90.5943H83.6021L83.4022 90.3939L83.3022 90.1934Z" fill="#D08935"/>
</g>
</svg>
