<svg width="79" height="95" viewBox="0 0 79 95" fill="none" xmlns="http://www.w3.org/2000/svg">
<g id="Group 12">
<path id="Vector" d="M8.12284 78.4516L8.11891 78.4456L8.1149 78.4397C6.45146 76.003 5.85379 73.0681 6.2456 70.2103C6.74202 67.3655 8.21939 64.8163 10.4889 62.9481C12.6583 61.1807 15.2133 60.2986 17.9818 60.2986H17.9831H17.9843H17.9856H17.9868H17.9881H17.9894H17.9906H17.9919H17.9931H17.9944H17.9956H17.9969H17.9981H17.9994H18.0006H18.0019H18.0031H18.0044H18.0056H18.0069H18.0082H18.0094H18.0107H18.0119H18.0132H18.0144H18.0157H18.0169H18.0182H18.0194H18.0207H18.0219H18.0232H18.0244H18.0257H18.0269H18.0282H18.0295H18.0307H18.032H18.0332H18.0345H18.0357H18.037H18.0382H18.0395H18.0407H18.042H18.0432H18.0445H18.0457H18.047H18.0482H18.0495H18.0508H18.052H18.0533H18.0545H18.0558H18.057H18.0583H18.0595H18.0608H18.062H18.0633H18.0645H18.0658H18.067H18.0683H18.0696H18.0708H18.0721H18.0733H18.0746H18.0758H18.0771H18.0783H18.0796H18.0808H18.0821H18.0833H18.0846H18.0858H18.0871H18.0883H18.0896H18.0909H18.0921H18.0934H18.0946H18.0959H18.0971H18.0984H18.0996H18.1009H18.1021H18.1034H18.1046H18.1059H18.1071H18.1084H18.1096H18.1109H18.1122H18.1134H18.1147H18.1159H18.1172H18.1184H18.1197H18.1209H18.1222H18.1234H18.1247H18.1259H18.1272H18.1284H18.1297H18.1309H18.1322H18.1335H18.1347H18.136H18.1372H18.1385H18.1397H18.141H18.1422H18.1435H18.1447H18.146H18.1472H18.1485H18.1497H18.151H18.1523H18.1535H18.1548H18.156H18.1573H18.1585H18.1598H18.161H18.1623H18.1635H18.1648H18.166H18.1673H18.1685H18.1698H18.171H18.1723H18.1736H18.1748H18.1761H18.1773H18.1786H18.1798H18.1811H18.1823H18.1836H18.1848H18.1861H18.1873H18.1886H18.1898H18.1911H18.1924H18.1936H18.1949H18.1961H18.1974H18.1986H18.1999H18.2011H18.2024H18.2036H18.2049H18.2061H18.2074H18.2086H18.2099H18.2111H18.2124H18.2137H18.2149H18.2162H18.2174H18.2187H18.2199H18.2212H18.2224H18.2237H18.2249H18.2262H18.2274H18.2287H18.2299H18.2312H18.2324H18.2337H18.235H18.2362H18.2375H18.2387H18.24H18.2412H18.2425H18.2437H18.245H18.2462H18.2475H18.2487H18.25H18.2512H18.2525H18.2538H18.255H18.2563H18.2575H18.2588H18.26H18.2613H18.2625H18.2638H18.265H18.2663H18.2675H18.2688H18.27H18.2713H18.2725H18.2738H18.2751H18.2763H18.2776H18.2788H18.2801H18.2813H18.2826H18.2838H18.2851H18.2863H18.2876H18.2888H18.2901H18.2913H18.2926H18.2938H18.2951H18.2964H18.2976H18.2989H18.3001H18.3014H18.3026H18.3039H18.3051H18.3064H18.3076H18.3089H18.3101H18.3114H18.3126H18.3139H18.3152H18.3164H18.3177H18.3189H18.3202H18.3214H18.3227H18.3239H18.3252H18.3264H18.3277H18.3289H18.3302H18.3314H18.3327H18.3339H18.3352H18.3365H18.3377H18.339H18.3402H18.3415H18.3427H18.344H18.3452H18.3465H18.3477H18.349H18.3502H18.3515H18.3527H18.354H18.3552H18.3565H18.3578H18.359H18.3603H18.3615H18.3628H18.364H18.3653H18.3665H18.3678H18.369H18.3703H18.3715H18.3728H18.374H18.3753H18.3766H18.3778H18.3791H18.3803H18.3816H18.3828H18.3841H18.3853H18.3866H18.3878H18.3891H18.3903H18.3916H18.3928H18.3941H18.3953H18.3966H18.3979H18.3991H18.4004H18.4016H18.4029H18.4041H18.4054H18.4066H18.4079H18.4091H18.4104H18.4116H18.4129H18.4141H18.4154H18.4166H18.4179H18.4192H18.4204H18.4217H18.4229H18.4242H18.4254H18.4267H18.4279H18.4292H18.4304H18.4317H18.4329H18.4342H18.4354H18.4367H18.438H18.4392H18.4405H18.4417H18.443H18.4442H18.4455H18.4467H18.448H18.4492H18.4505H18.4517H18.453H18.4542H18.4555H18.4567H18.458H18.4593H18.4605H18.4618H18.463H18.4643H18.4655H18.4668H18.468H18.4693H18.4705H18.4718H18.473H18.4743H18.4755H18.4768H18.4781H18.4793H18.4806H18.4818H18.4831H18.4843H18.4856H18.4868H18.4881H18.4893H18.4906H18.4918H18.4931H18.4943H18.4956H18.4968H18.4981H18.4994H18.5006H18.5019H18.5031H18.5044H18.5056H18.5069H18.5081H18.5094H18.5106H18.5119H18.5131H18.5144H18.5156H18.5169H18.5181H18.5194H18.5207H18.5219H18.5232H18.5244H18.5257H18.5269H18.5282H18.5294H18.5307H18.5319H18.5332H18.5344H18.5357H18.5369H18.5382H18.5395H18.5407H18.542H18.5432H18.5445H18.5457H18.547H18.5482H18.5495H18.5507H18.552H18.5532H18.5545H18.5557H18.557H18.5582H18.5595H18.5608H18.562H18.5633H18.5645H18.5658H18.567H18.5683H18.5695H18.5708H18.572H18.5733H18.5745H18.5758H18.577H18.5783H18.5795H18.5808H18.5821H18.5833H18.5846H18.5858H18.5871H18.5883H18.5896H18.5896C21.5619 60.5032 24.3105 61.6885 26.365 63.735C28.2267 65.5894 29.4155 68.1441 29.7125 70.8064C30.0063 73.4403 29.3206 76.1902 27.8395 78.4536C27.839 78.4543 27.8385 78.4551 27.838 78.4558L18.1696 93.0609C18.1607 93.069 18.154 93.0747 18.1472 93.0801C18.1353 93.0896 18.1145 93.1049 18.0707 93.1268L18.015 93.1545L17.9818 93.1766L17.7834 93.0448L8.12284 78.4516ZM12.0278 62.1609L12.0216 62.1645L12.0155 62.1682C10.2818 63.2044 8.75591 64.7104 7.80264 66.5911C6.7453 68.3629 6.28532 70.4591 6.39596 72.5342C6.40218 74.6701 7.12006 76.6611 8.27521 78.3873C8.27538 78.3876 8.27555 78.3878 8.27572 78.3881L17.1498 91.7007L17.9818 92.949L18.8139 91.7007L27.6879 78.3881C27.6881 78.3878 27.6883 78.3876 27.6885 78.3873C28.8703 76.6211 29.4507 74.6321 29.5662 72.5619C29.6858 70.418 29.0847 68.4311 28.1783 66.6255C27.2263 64.7288 25.6924 63.2106 23.9482 62.1682L23.9421 62.1645L23.9359 62.1609C20.3113 60.0645 15.6523 60.0645 12.0278 62.1609ZM22.5974 72.1233C22.5974 74.6874 20.5187 76.7661 17.9546 76.7661C15.3904 76.7661 13.3117 74.6874 13.3117 72.1233C13.3117 69.5591 15.3904 67.4804 17.9546 67.4804C20.5187 67.4804 22.5974 69.5591 22.5974 72.1233Z" stroke="#D08935" stroke-width="2"/>
<path id="Vector_2" d="M38.8316 73.6622H61.4376C63.0952 73.6622 64.6493 73.3538 66.2034 72.737C67.7574 72.1202 69.1043 71.195 70.244 70.0641C71.3836 68.9333 72.3161 67.5968 72.9377 66.0548C73.5593 64.5128 73.8701 62.9707 73.8701 61.3259C73.8701 59.681 73.5593 58.139 72.9377 56.5969C72.3161 55.0549 71.3836 53.7184 70.244 52.5876C69.1043 51.4568 67.7574 50.5315 66.2034 49.9147C64.6493 49.2979 63.0952 48.9895 61.4376 48.9895H12.4326C11.0857 48.9895 9.73884 48.6811 8.49558 48.1671C7.25233 47.7559 6.11268 47.0362 5.18023 46.111C4.24779 45.1858 3.41895 44.055 2.90093 42.8213C2.38291 41.5877 2.07209 40.2512 2.07209 38.9148C2.07209 37.5784 2.38291 36.2419 2.90093 35.0083C3.41895 33.7747 4.14419 32.6438 5.18023 31.7186C6.11268 30.6906 7.25233 29.9709 8.49558 29.4569C9.73884 28.9429 11.0857 28.6345 12.4326 28.6345H46.7257L44.1356 31.1018C44.032 31.2046 43.9284 31.3074 43.9284 31.4102C43.8248 31.513 43.8248 31.7186 43.8248 31.8214C43.8248 31.9242 43.8248 32.1298 43.9284 32.2326C44.032 32.3354 44.032 32.4382 44.1356 32.541C44.2392 32.6438 44.3428 32.7466 44.4464 32.7466C44.7572 32.8494 44.9644 32.8494 45.2752 32.7466C45.3788 32.6438 45.4824 32.6438 45.5861 32.541L50.1447 28.4289C50.3519 28.2233 50.4555 27.9149 50.4555 27.7093C50.4555 27.4009 50.3519 27.1953 50.1447 26.9897L45.7933 22.6719C45.3788 22.2607 44.6536 22.2607 44.2392 22.6719C44.032 22.8775 43.9284 23.1859 43.9284 23.3916C43.9284 23.5972 44.032 23.9056 44.2392 24.1112L46.8293 26.5784H12.4326C10.7749 26.5784 9.22082 26.8869 7.66675 27.5037C6.21628 28.1205 4.76581 29.0457 3.62616 30.1766C2.48651 31.3074 1.55407 32.6438 0.932442 34.1859C0.310814 35.6251 0 37.27 0 38.9148C0 40.5597 0.310814 42.1017 0.932442 43.6437C1.55407 45.1858 2.48651 46.5222 3.62616 47.6531C4.76581 48.7839 6.11268 49.7091 7.66675 50.3259C9.22082 50.9428 10.7749 51.2512 12.4326 51.2512H61.334C62.6808 51.2512 64.0277 51.5596 65.2709 51.9708C66.5142 52.4848 67.6538 53.2044 68.5863 54.1297C69.5187 55.0549 70.3476 56.1857 70.8656 57.4193C71.3836 58.653 71.6944 59.9894 71.6944 61.3259C71.6944 62.6623 71.3836 63.9987 70.8656 65.2324C70.3476 66.466 69.6223 67.5968 68.5863 68.5221C67.6538 69.4473 66.5142 70.1669 65.2709 70.6809C64.0277 71.195 62.6808 71.4006 61.334 71.4006H38.8316C38.5208 71.4006 38.3136 71.5034 38.1064 71.709C37.8992 71.9146 37.7956 72.223 37.7956 72.4286C37.7956 72.6342 37.8992 72.9426 38.1064 73.1482C38.21 73.5594 38.5208 73.6622 38.8316 73.6622Z" fill="#D08935"/>
<path id="Vector_3" d="M56.3435 19.9711L56.3396 19.9652L56.3356 19.9593C54.6722 17.5225 54.0745 14.5877 54.4663 11.7299C54.9627 8.88505 56.4401 6.33587 58.7096 4.46765C60.879 2.70024 63.434 1.81812 66.2025 1.81812H66.2038H66.205H66.2063H66.2076H66.2088H66.2101H66.2113H66.2126H66.2138H66.2151H66.2163H66.2176H66.2188H66.2201H66.2213H66.2226H66.2238H66.2251H66.2263H66.2276H66.2289H66.2301H66.2314H66.2326H66.2339H66.2351H66.2364H66.2376H66.2389H66.2401H66.2414H66.2426H66.2439H66.2451H66.2464H66.2476H66.2489H66.2502H66.2514H66.2527H66.2539H66.2552H66.2564H66.2577H66.2589H66.2602H66.2614H66.2627H66.2639H66.2652H66.2664H66.2677H66.269H66.2702H66.2715H66.2727H66.274H66.2752H66.2765H66.2777H66.279H66.2802H66.2815H66.2827H66.284H66.2852H66.2865H66.2877H66.289H66.2903H66.2915H66.2928H66.294H66.2953H66.2965H66.2978H66.299H66.3003H66.3015H66.3028H66.304H66.3053H66.3065H66.3078H66.309H66.3103H66.3116H66.3128H66.3141H66.3153H66.3166H66.3178H66.3191H66.3203H66.3216H66.3228H66.3241H66.3253H66.3266H66.3278H66.3291H66.3304H66.3316H66.3329H66.3341H66.3354H66.3366H66.3379H66.3391H66.3404H66.3416H66.3429H66.3441H66.3454H66.3466H66.3479H66.3491H66.3504H66.3517H66.3529H66.3542H66.3554H66.3567H66.3579H66.3592H66.3604H66.3617H66.3629H66.3642H66.3654H66.3667H66.3679H66.3692H66.3705H66.3717H66.373H66.3742H66.3755H66.3767H66.378H66.3792H66.3805H66.3817H66.383H66.3842H66.3855H66.3867H66.388H66.3892H66.3905H66.3918H66.393H66.3943H66.3955H66.3968H66.398H66.3993H66.4005H66.4018H66.403H66.4043H66.4055H66.4068H66.408H66.4093H66.4105H66.4118H66.4131H66.4143H66.4156H66.4168H66.4181H66.4193H66.4206H66.4218H66.4231H66.4243H66.4256H66.4268H66.4281H66.4293H66.4306H66.4318H66.4331H66.4344H66.4356H66.4369H66.4381H66.4394H66.4406H66.4419H66.4431H66.4444H66.4456H66.4469H66.4481H66.4494H66.4506H66.4519H66.4532H66.4544H66.4557H66.4569H66.4582H66.4594H66.4607H66.4619H66.4632H66.4644H66.4657H66.4669H66.4682H66.4694H66.4707H66.4719H66.4732H66.4745H66.4757H66.477H66.4782H66.4795H66.4807H66.482H66.4832H66.4845H66.4857H66.487H66.4882H66.4895H66.4907H66.492H66.4932H66.4945H66.4958H66.497H66.4983H66.4995H66.5008H66.502H66.5033H66.5045H66.5058H66.507H66.5083H66.5095H66.5108H66.512H66.5133H66.5146H66.5158H66.5171H66.5183H66.5196H66.5208H66.5221H66.5233H66.5246H66.5258H66.5271H66.5283H66.5296H66.5308H66.5321H66.5333H66.5346H66.5359H66.5371H66.5384H66.5396H66.5409H66.5421H66.5434H66.5446H66.5459H66.5471H66.5484H66.5496H66.5509H66.5521H66.5534H66.5547H66.5559H66.5572H66.5584H66.5597H66.5609H66.5622H66.5634H66.5647H66.5659H66.5672H66.5684H66.5697H66.5709H66.5722H66.5734H66.5747H66.576H66.5772H66.5785H66.5797H66.581H66.5822H66.5835H66.5847H66.586H66.5872H66.5885H66.5897H66.591H66.5922H66.5935H66.5947H66.596H66.5973H66.5985H66.5998H66.601H66.6023H66.6035H66.6048H66.606H66.6073H66.6085H66.6098H66.611H66.6123H66.6135H66.6148H66.6161H66.6173H66.6186H66.6198H66.6211H66.6223H66.6236H66.6248H66.6261H66.6273H66.6286H66.6298H66.6311H66.6323H66.6336H66.6348H66.6361H66.6374H66.6386H66.6399H66.6411H66.6424H66.6436H66.6449H66.6461H66.6474H66.6486H66.6499H66.6511H66.6524H66.6536H66.6549H66.6561H66.6574H66.6587H66.6599H66.6612H66.6624H66.6637H66.6649H66.6662H66.6674H66.6687H66.6699H66.6712H66.6724H66.6737H66.6749H66.6762H66.6775H66.6787H66.68H66.6812H66.6825H66.6837H66.685H66.6862H66.6875H66.6887H66.69H66.6912H66.6925H66.6937H66.695H66.6962H66.6975H66.6988H66.7H66.7013H66.7025H66.7038H66.705H66.7063H66.7075H66.7088H66.71H66.7113H66.7125H66.7138H66.715H66.7163H66.7175H66.7188H66.7201H66.7213H66.7226H66.7238H66.7251H66.7263H66.7276H66.7288H66.7301H66.7313H66.7326H66.7338H66.7351H66.7363H66.7376H66.7389H66.7401H66.7414H66.7426H66.7439H66.7451H66.7464H66.7476H66.7489H66.7501H66.7514H66.7526H66.7539H66.7551H66.7564H66.7576H66.7589H66.7602H66.7614H66.7627H66.7639H66.7652H66.7664H66.7677H66.7689H66.7702H66.7714H66.7727H66.7739H66.7752H66.7764H66.7777H66.7789H66.7802H66.7815H66.7827H66.784H66.7852H66.7865H66.7877H66.789H66.7902H66.7915H66.7927H66.794H66.7952H66.7965H66.7977H66.799H66.8003H66.8015H66.8028H66.804H66.8053H66.8065H66.8078H66.809H66.8103H66.8103C69.7826 2.02275 72.5312 3.20806 74.5857 5.25456C76.4474 7.10897 77.6362 9.66363 77.9332 12.3259C78.227 14.9598 77.5413 17.7098 76.0602 19.9731C76.0597 19.9739 76.0592 19.9746 76.0587 19.9753L66.3903 34.5805C66.3814 34.5886 66.3747 34.5942 66.3679 34.5996C66.356 34.6091 66.3353 34.6245 66.2914 34.6463L66.2357 34.674L66.2025 34.6961L66.0041 34.5643L56.3435 19.9711ZM60.2485 3.68045L60.2423 3.68403L60.2362 3.68771C58.5025 4.72388 56.9766 6.22997 56.0233 8.11067C54.966 9.88246 54.506 11.9787 54.6167 14.0538C54.6229 16.1896 55.3408 18.1806 56.4959 19.9069C56.4961 19.9071 56.4963 19.9074 56.4964 19.9076L65.3705 33.2203L66.2025 34.4685L67.0346 33.2203L75.9086 19.9076C75.9088 19.9074 75.909 19.9071 75.9092 19.9069C77.091 18.1406 77.6714 16.1517 77.7869 14.0815C77.9065 11.9376 77.3054 9.95062 76.399 8.14498C75.447 6.24829 73.9131 4.73018 72.1689 3.68771L72.1628 3.68403L72.1566 3.68045C68.532 1.58405 63.873 1.58405 60.2485 3.68045ZM70.8181 13.6428C70.8181 16.207 68.7394 18.2856 66.1753 18.2856C63.6111 18.2856 61.5324 16.207 61.5324 13.6428C61.5324 11.0786 63.6111 8.99993 66.1753 8.99993C68.7394 8.99993 70.8181 11.0786 70.8181 13.6428Z" stroke="#D08935" stroke-width="2"/>
</g>
</svg>
