<svg width="100" height="101" viewBox="0 0 100 101" fill="none" xmlns="http://www.w3.org/2000/svg">
<g id="4">
<path id="Vector" d="M74.6923 22.6333V17.5667C74.6923 16.2229 74.1493 14.9342 73.1828 13.984C72.2162 13.0338 70.9053 12.5 69.5385 12.5H23.1538C21.787 12.5 20.4761 13.0338 19.5095 13.984C18.543 14.9342 18 16.2229 18 17.5667V83.4333C18 84.7771 18.543 86.0658 19.5095 87.016C20.4761 87.9662 21.787 88.5 23.1538 88.5H69.5385C70.9053 88.5 72.2162 87.9662 73.1828 87.016C74.1493 86.0658 74.6923 84.7771 74.6923 83.4333V58.1M41.1923 78.3667H51.5M46.3462 60.6333H28.3077M28.3077 50.5H48.9231M28.3077 40.3667H54.0769M63.7404 58.7333L54.0769 60.6333L56.0096 51.1333L77.2692 30.2333L85 37.8333L63.7404 58.7333Z" stroke="#D08935" stroke-width="2" stroke-linecap="round" stroke-linejoin="round"/>
</g>
</svg>
