<svg width="100" height="100" viewBox="0 0 100 100" fill="none" xmlns="http://www.w3.org/2000/svg">
<g id="4">
<path id="Vector" d="M57.7801 79.324C57.9796 79.4237 58.0793 79.6232 58.1791 79.8227C58.7776 81.6181 59.6755 83.3137 60.7728 84.7101C63.8654 88.7996 67.9555 91.7918 72.744 93.687C73.7416 94.0859 74.3401 94.0859 75.0385 93.7867C76.8341 93.1882 78.5301 92.3903 80.0264 91.3929C82.8197 89.6972 89.6034 84.8098 90.8005 77.1296C90.9002 76.2319 91 75.2345 91 74.0376C91 68.5517 91 62.9661 91 57.4802C91 57.2808 91 57.0813 90.9002 56.8818C90.7007 56.2833 90.2019 56.0838 88.9051 56.0838C88.7055 56.0838 88.506 56.0838 88.3065 56.0838C82.9195 55.7846 78.0312 53.291 75.0385 49.5008C74.8389 49.2016 74.4399 49.0021 74.1406 49.0021C73.8414 49.0021 73.4423 49.2016 73.143 49.5008C69.851 53.5903 64.3642 56.0838 58.4784 56.0838C57.8798 56.0838 57.1815 56.4828 57.1815 57.2808C57.1815 64.0633 57.1815 70.1476 57.1815 75.6335C57.1815 76.2319 56.7825 76.6309 56.1839 76.6309H10.7933L10.1947 76.1322V13.8925L10.2945 13.4936L10.5938 13.1943L10.9928 13.2941H28.351C28.9495 13.2941 29.3486 13.6931 29.3486 14.2915C29.3486 20.5753 29.3486 27.0586 29.3486 33.8412C29.3486 34.3399 29.3486 34.6391 29.4483 34.8386C29.5481 35.3373 30.1466 35.6365 30.7452 35.5368C30.9447 35.5368 31.1442 35.437 31.244 35.2376C32.8401 34.0406 34.2368 33.0432 35.3341 32.2453L35.5337 32.0458H35.9327C36.1322 32.0458 36.3317 32.1455 36.5313 32.2453L40.8209 35.3373C41.22 35.6365 41.7188 35.6365 42.2175 35.2376L46.607 32.0458H47.006C47.2055 32.0458 47.4051 32.1455 47.6046 32.2453C49.0012 33.2427 50.2981 34.2401 51.6947 35.2376C52.0938 35.5368 52.5925 35.6365 52.9916 35.437C53.3906 35.2376 53.5901 34.8386 53.5901 34.2401C53.5901 27.5573 53.5901 20.8746 53.5901 14.1918L53.6899 13.7928L54.0889 13.3938L54.3882 13.2941H72.0457C72.6442 13.2941 73.0433 13.6931 73.0433 14.2915V46.0098C73.7416 45.8103 74.5397 45.8103 75.238 46.0098C75.238 35.1378 75.238 23.9666 75.238 12.5959C75.238 12.0972 75.238 11.8977 75.1382 11.7979C75.0385 11.4987 74.9387 11 73.7416 11C51.8942 11 30.3462 11 9.09736 11C8.4988 11 8.29928 11.2992 8.09976 11.4987C8.09976 11.6982 8 11.9974 8 12.6956V77.8278C8 78.526 8.29928 78.8252 8.4988 78.925C8.59856 78.925 8.89784 79.1245 9.99519 79.1245C17.8762 79.1245 25.7572 79.1245 33.6382 79.1245C41.5192 79.1245 49.4002 79.1245 57.1815 79.1245H57.4808L57.7801 79.324ZM59.476 59.4751C59.476 58.9764 59.875 58.4777 60.3738 58.4777C65.4615 58.0787 69.851 56.0838 73.4423 52.7923C73.8413 52.3934 74.4399 52.3934 74.8389 52.7923C78.3305 56.0838 82.72 58.0787 87.9075 58.4777H88.3065L88.6058 58.7769C88.8053 58.9764 88.9051 59.1759 88.9051 59.4751C88.9051 64.3625 88.9051 69.4494 88.9051 74.636C88.9051 77.4288 88.107 80.1219 86.5108 82.5157C83.8173 86.5055 79.7272 89.797 74.7392 91.5924C74.6394 91.5924 74.4399 91.6921 74.3401 91.6921C74.2404 91.6921 74.1406 91.6921 74.0409 91.5924C73.5421 91.4926 73.0433 91.2931 72.4447 90.9939C67.2572 88.6998 60.8726 83.6129 59.875 76.9301C59.7752 76.1322 59.6755 75.035 59.6755 73.7384C59.476 68.9507 59.476 64.163 59.476 59.4751ZM31.643 14.2915C31.643 13.6931 32.0421 13.2941 32.6406 13.2941H50.8966L51.4952 13.7928V30.5496L51.1959 31.0483L50.6971 31.3476H50.1983L49.899 31.1481C49.2007 30.6494 48.5024 30.1507 47.9038 29.6519C47.1058 29.0535 46.607 29.3527 46.3077 29.5522C44.9111 30.5496 43.5144 31.5471 42.1178 32.5445C41.9183 32.6442 41.7188 32.744 41.5192 32.744C41.3197 32.744 41.1202 32.6442 40.9207 32.5445C39.6238 31.5471 38.2272 30.5496 36.8305 29.5522C36.631 29.4525 36.0325 29.0535 35.4339 29.4525C34.6358 29.9512 33.9375 30.5496 33.1394 31.1481L32.9399 31.3476H32.4411L31.9423 31.1481L31.643 30.6494V14.2915Z" fill="#D08935"/>
<path id="Vector_2" d="M67.5839 71.6072C69.2355 72.8929 70.7839 74.2858 72.4355 75.6786C73.0549 76.2144 73.8807 76.1072 74.5001 75.4644C77.0807 72.5715 79.6614 69.5715 82.4484 66.4644C82.9646 65.9286 83.0678 65.5001 82.8614 64.9644C82.7581 64.6429 82.5517 64.3215 82.242 64.1072C81.8291 64.0001 81.4162 64.0001 81.1065 64.1072C81.0033 64.1072 80.7968 64.3215 80.2807 64.8572C78.113 67.3215 75.9452 69.7858 73.8807 72.1429L73.571 72.3572L72.9517 72.4644L72.642 72.2501C71.5065 71.2858 70.4743 70.4286 69.3388 69.4644C68.9259 69.1429 68.513 68.9286 68.3065 68.9286C68.1001 68.9286 67.9968 68.9286 67.8936 69.0358C67.4807 69.2501 67.171 69.5715 67.0678 69.8929C66.9646 70.2144 66.9646 70.6429 67.171 70.9644C67.2743 71.1786 67.3775 71.3929 67.5839 71.6072Z" fill="#D08935"/>
<rect id="Rectangle 11" x="26" y="65" width="6" height="6" rx="1" stroke="#D08935" stroke-width="2"/>
<rect id="Rectangle 10" x="15" y="65" width="6" height="6" rx="1" stroke="#D08935" stroke-width="2"/>
</g>
</svg>
