<svg width="100" height="100" viewBox="0 0 100 100" fill="none" xmlns="http://www.w3.org/2000/svg">
<g id="6">
<path id="Vector" d="M75.0769 19.9333V14.4667C75.0769 13.0168 74.5015 11.6263 73.4773 10.6011C72.453 9.57595 71.0639 9 69.6154 9H20.4615C19.013 9 17.6239 9.57595 16.5996 10.6011C15.5754 11.6263 15 13.0168 15 14.4667V85.5333C15 86.9832 15.5754 88.3737 16.5996 89.3988C17.6239 90.424 19.013 91 20.4615 91H69.6154C71.0639 91 72.453 90.424 73.4773 89.3988C74.5015 88.3737 75.0769 86.9832 75.0769 85.5333V58.2M39.5769 80.0667H50.5M45.0385 60.9333H25.9231M25.9231 50H47.7692M25.9231 39.0667H53.2308M63.4712 58.8833L53.2308 60.9333L55.2788 50.6833L77.8077 28.1333L86 36.3333L63.4712 58.8833Z" stroke="#D08935" stroke-width="2.2" stroke-linecap="round" stroke-linejoin="round"/>
</g>
</svg>
