<svg width="128" height="48" viewBox="0 0 128 48" fill="none" xmlns="http://www.w3.org/2000/svg">
<g id=": logo" clip-path="url(#clip0_113_2461)">
<path id="Vector" d="M63.2993 0C67.1212 0.0648868 68.4429 2.59547 68.0926 5.09361C67.6785 8.20818 64.7166 9.96012 62.0572 10.1872C60.847 10.2683 59.7004 10.2683 58.745 10.2846L57.8373 16.8219H54.4613L56.8022 0.0162217L63.2993 0ZM62.3757 7.13755C63.6178 6.97533 64.4459 6.2778 64.6051 5.1585C64.7644 3.95809 64.3822 3.35789 62.9968 3.17945C62.0095 3.03346 60.9107 3.00101 59.7482 3.00101L59.1431 7.29976C60.21 7.29976 61.3566 7.26732 62.3757 7.13755Z" fill="white"/>
<path id="Vector_2" d="M80.211 3.14701H73.4749L72.9654 6.82933H78.5389L78.093 9.97634H72.5354L71.5799 16.8381H68.204L70.5449 0H80.6568L80.211 3.14701Z" fill="white"/>
<path id="Vector_3" d="M95.6258 16.8381H91.9951L91.1192 13.4153H84.431L82.6475 16.8381H78.9849L88.2369 0H91.0237L95.6258 16.8381ZM88.9217 5.10983L86.1349 10.2683H90.2912L88.9217 5.10983Z" fill="white"/>
<path id="Vector_4" d="M108.97 3.14701H102.218L101.709 6.82933H107.282L106.836 9.97634H101.279L100.339 16.8381H96.9634L99.2883 0H109.4L108.97 3.14701Z" fill="white"/>
<path id="Vector_5" d="M120.834 3.14701H114.098L113.588 6.82933H119.146L118.716 9.97634H113.143L112.203 16.8381H108.827L111.152 0H121.28L120.834 3.14701Z" fill="white"/>
<path id="Vector_6" d="M65.9428 30.367C66.6435 30.3184 67.2327 30.075 67.8378 30.0264C67.7741 30.4319 67.6149 30.9835 67.2008 31.6972C66.8824 31.7945 66.532 31.9405 66.1817 32.0865C65.9269 32.2325 65.5606 32.7192 65.0511 33.3356C65.4492 33.806 65.8313 34.2602 66.2135 34.682L68.5226 37.2937H63.9841L63.6019 36.8395C63.2675 36.4502 62.9172 36.0446 62.5828 35.6066C61.1974 36.6448 59.6368 37.4397 57.3755 37.4721C54.541 37.4721 52.0886 35.8824 52.3753 32.6867C52.4549 31.681 52.9167 30.7726 53.5855 30.0102C54.7161 28.826 56.3086 28.0473 56.5793 27.4471C56.4201 27.0254 55.5601 25.4032 55.7194 24.3975C56.0379 21.9966 57.9329 20.6502 59.8119 20.3745C62.8853 19.9527 64.7644 21.7371 64.6689 24.0406C64.5892 26.0683 62.5828 27.0254 61.3407 27.9338C61.4044 28.5015 61.6273 29.1017 62.0414 29.702C63.6338 30.5455 64.844 30.3833 65.9428 30.367ZM58.0284 29.8317C57.7418 30.0102 57.0889 30.367 56.643 30.8699C56.2767 31.3403 56.006 31.8919 55.9582 32.4596C55.8309 33.6438 56.9615 34.2602 58.3628 34.1143C59.3501 33.9845 60.1941 33.3843 60.4648 33.0761C59.6049 32.0217 58.7928 30.9024 58.0284 29.8317ZM59.0635 24.4299C58.9839 25.0625 59.6208 25.825 59.6845 25.9872C60.5604 25.533 61.4521 24.9977 61.5318 24.4137C61.6592 23.5539 61.3885 23.0673 60.433 23.0673C59.589 23.0673 59.1909 23.5539 59.0635 24.4299Z" fill="white"/>
<path id="Vector_7" d="M68.204 20.4718H71.9621L74.7967 31.7459L80.7365 20.4718H84.4787L75.2744 37.2937H72.7743L68.204 20.4718Z" fill="white"/>
<path id="Vector_8" d="M95.9442 23.6188H88.7624L88.2528 27.3011H94.2563L93.8263 30.4481H87.8228L87.3132 34.1467H94.4951L94.0652 37.2937H83.5073L85.8323 20.4718H96.3901L95.9442 23.6188Z" fill="white"/>
<path id="Vector_9" d="M110.292 37.099L109.225 36.7097L109.289 35.2173C107.728 36.7097 105.61 37.4883 103.078 37.4883C98.8902 37.4721 95.6257 33.5951 96.2786 29.0044C97.043 23.4079 101.295 20.0014 105.738 19.9689C109.034 19.904 111.518 21.4289 112.044 23.7972L109.05 25.3707C108.604 23.8783 107.203 23.1646 105.499 23.197C103.015 23.2457 100.323 25.3707 99.8298 28.9233C99.4157 31.9243 101.199 34.244 103.652 34.244C106.088 34.2278 108.19 32.6705 108.445 30.7888L104.289 30.805L104.273 27.9987L112.362 27.9662C112.044 30.7726 111.407 34.5198 110.292 37.099Z" fill="white"/>
<path id="Vector_10" d="M128 37.2937H124.369L123.493 33.8709H116.805L115.022 37.2937H111.375L120.627 20.4556H123.414L128 37.2937ZM121.296 25.5816L118.509 30.7401H122.665L121.296 25.5816Z" fill="white"/>
<path id="Vector_11" d="M55.6397 47.2214L55.5282 47.8702H51.8337L53.0281 41.0571H53.6969L52.614 47.2214H55.6397Z" fill="white"/>
<path id="Vector_12" d="M63.0127 42.6793C62.8853 42.3386 62.7101 42.0304 62.4712 41.7871C62.2324 41.5276 61.9617 41.3329 61.6432 41.1869C61.3247 41.0409 60.9584 40.976 60.5762 40.976C60.0348 40.976 59.5412 41.0896 59.0794 41.3167C58.6175 41.5438 58.2035 41.852 57.8691 42.2251C57.5188 42.6144 57.248 43.0524 57.057 43.5553C56.8499 44.0581 56.7544 44.5772 56.7544 45.1288C56.7544 45.5343 56.8181 45.9074 56.9455 46.2481C57.0729 46.5887 57.2481 46.8969 57.4869 47.1403C57.7258 47.3998 57.9965 47.5945 58.315 47.7405C58.6335 47.8865 58.9997 47.9513 59.3819 47.9513C59.9233 47.9513 60.417 47.8378 60.8788 47.6107C61.3406 47.3836 61.7546 47.0754 62.0891 46.686C62.4394 46.2967 62.7101 45.8587 62.9171 45.3559C63.1241 44.853 63.2197 44.3339 63.2197 43.7824C63.2038 43.4093 63.1401 43.0199 63.0127 42.6793ZM62.2801 45.145C62.1209 45.5505 61.898 45.9074 61.6272 46.2318C61.3565 46.5563 61.0221 46.8158 60.6559 47.0105C60.2896 47.2051 59.8915 47.3187 59.4775 47.3187C59.159 47.3187 58.8564 47.27 58.6016 47.1565C58.3468 47.0429 58.1239 46.8807 57.9487 46.686C57.7736 46.4752 57.6302 46.2318 57.5347 45.9561C57.4391 45.6803 57.3914 45.3559 57.3914 45.0152C57.3914 44.7394 57.4232 44.4637 57.5028 44.1879C57.5825 43.9121 57.678 43.6526 57.8054 43.4093C57.9328 43.1659 58.092 42.9226 58.2831 42.7117C58.4742 42.5008 58.6653 42.3062 58.9042 42.144C59.1271 41.9818 59.366 41.852 59.6367 41.7709C59.8915 41.6735 60.1622 41.6411 60.4488 41.6411C60.7673 41.6411 61.0699 41.6898 61.3247 41.8033C61.5795 41.9169 61.8024 42.0791 61.9776 42.2737C62.1528 42.4846 62.2961 42.728 62.3916 43.0037C62.4872 43.2795 62.5349 43.6039 62.5349 43.9446C62.519 44.3339 62.4394 44.7394 62.2801 45.145Z" fill="white"/>
<path id="Vector_13" d="M69.892 44.1392L69.478 46.5563C69.0958 46.978 68.6499 47.3187 68.1403 47.5782C67.6307 47.8378 67.1052 47.9513 66.5479 47.9513C66.1338 47.9513 65.7517 47.8702 65.4172 47.7242C65.0669 47.5782 64.7803 47.3673 64.5414 47.124C64.3025 46.8645 64.1114 46.5725 63.9681 46.2156C63.8248 45.8587 63.7611 45.4856 63.7611 45.0801C63.7611 44.5285 63.8567 44.0095 64.0637 43.5228C64.2707 43.0362 64.5414 42.5982 64.8917 42.2089C65.2421 41.8358 65.6561 41.5275 66.1338 41.3004C66.6116 41.0733 67.1371 40.9598 67.6785 40.9598C68.0766 40.9598 68.4429 41.0247 68.7773 41.1707C69.0958 41.3004 69.3983 41.4951 69.6372 41.7384L69.1913 42.2089C69.0161 42.0304 68.7773 41.9006 68.4906 41.7871C68.1881 41.6735 67.8855 41.6086 67.567 41.6086C67.1371 41.6086 66.739 41.706 66.3568 41.9006C65.9746 42.0953 65.6402 42.3386 65.3535 42.6631C65.0669 42.9875 64.844 43.3444 64.6847 43.7337C64.5255 44.1392 64.4299 44.5448 64.4299 44.9665C64.4299 45.3072 64.4777 45.6154 64.5892 45.9074C64.6847 46.1994 64.844 46.4427 65.0351 46.6536C65.2261 46.8645 65.465 47.0267 65.7357 47.1402C66.0064 47.2538 66.3249 47.3187 66.6593 47.3187C67.0575 47.3187 67.4556 47.2376 67.8218 47.0429C68.1881 46.8645 68.5384 46.6374 68.841 46.3454L69.1117 44.7881H67.774L67.8855 44.1392H69.892Z" fill="white"/>
<path id="Vector_14" d="M72.408 41.0895L71.2296 47.9026H70.5608L71.7392 41.0895H72.408Z" fill="white"/>
<path id="Vector_15" d="M77.4243 42.1278L76.7555 42.3224C76.7077 42.0791 76.5803 41.9169 76.3892 41.8195C76.1981 41.7222 75.9911 41.6735 75.7682 41.6735C75.593 41.6735 75.4337 41.706 75.2427 41.7547C75.0675 41.8033 74.9082 41.8844 74.7649 41.9818C74.6216 42.0791 74.4942 42.2089 74.3987 42.3549C74.3031 42.5009 74.2553 42.6793 74.2553 42.8739C74.2553 43.0686 74.3031 43.2308 74.4305 43.3444C74.542 43.4579 74.6694 43.5553 74.8286 43.6039L76.1981 44.0906C76.4211 44.1717 76.5962 44.269 76.7395 44.3826C76.8829 44.4961 77.0103 44.6097 77.0899 44.7557C77.1695 44.8854 77.2332 45.0314 77.281 45.1937C77.3128 45.3396 77.3447 45.5019 77.3447 45.6641C77.3447 46.021 77.281 46.3616 77.1377 46.6374C77.0103 46.9294 76.8192 47.1727 76.5803 47.3674C76.3414 47.562 76.0707 47.7242 75.7522 47.8216C75.4338 47.9189 75.0993 47.9838 74.749 47.9838C74.4464 47.9838 74.1916 47.9351 73.9528 47.8378C73.7139 47.7405 73.5069 47.6107 73.3317 47.4485C73.1566 47.2863 73.0132 47.1078 72.9018 46.8969C72.7903 46.6861 72.7107 46.4752 72.6788 46.2643L73.3477 46.0858C73.3795 46.2481 73.4273 46.4103 73.5069 46.5563C73.5865 46.7023 73.698 46.832 73.8254 46.9456C73.9528 47.0591 74.112 47.1565 74.2872 47.2214C74.4624 47.2863 74.6535 47.3187 74.8764 47.3187C75.0834 47.3187 75.2904 47.2863 75.4974 47.2051C75.7045 47.124 75.8956 47.0267 76.0707 46.8807C76.2459 46.7347 76.3733 46.5725 76.4848 46.3941C76.5962 46.1994 76.644 46.0047 76.644 45.7776C76.644 45.5343 76.5962 45.3234 76.4848 45.145C76.3733 44.9665 76.1981 44.8206 75.9433 44.7394L74.5579 44.2528C74.2394 44.1392 74.0006 43.9608 73.8413 43.7337C73.6821 43.5066 73.5865 43.2308 73.5865 42.9388C73.5865 42.6144 73.6502 42.3386 73.7617 42.0953C73.8891 41.852 74.0483 41.6411 74.2553 41.4789C74.4624 41.3167 74.7012 41.2031 74.9879 41.1058C75.2745 41.0247 75.5611 40.976 75.8796 40.976C76.0866 40.976 76.2777 41.0085 76.4529 41.0733C76.6281 41.1382 76.7873 41.2193 76.9306 41.3167C77.074 41.414 77.1854 41.5438 77.2651 41.6735C77.3447 41.8195 77.3924 41.9655 77.4243 42.1278Z" fill="white"/>
<path id="Vector_16" d="M84.3353 41.0895L84.2398 41.7384H81.883L80.8161 47.9026H80.1472L81.2142 41.7384H78.8733L78.9848 41.0895H84.3353Z" fill="white"/>
<path id="Vector_17" d="M86.1827 41.0895L85.0043 47.9026H84.3354L85.5139 41.0895H86.1827Z" fill="white"/>
<path id="Vector_18" d="M91.9632 41.0895L88.9694 44.1392L91.358 47.9026H90.5618L88.4916 44.6259L87.584 45.5343L87.1858 47.9026H86.5011L87.6954 41.0895H88.3643L87.775 44.4312L91.0395 41.0895H91.9632Z" fill="white"/>
<path id="Vector_19" d="M46.1137 14.5184C42.5148 5.98581 34.2182 0 24.5203 0C11.526 0 1 10.7225 1 23.9594C1 24.9652 1.07962 25.9385 1.19109 26.8956C3.64344 27.2038 6.12764 27.366 8.64369 27.366C22.689 27.366 35.6514 22.5968 46.1137 14.5184Z" fill="white"/>
<path id="Vector_20" d="M47.0532 21.0396C37.3075 27.4958 25.7305 31.243 13.3255 31.243C9.1055 31.243 4.98109 30.805 1 29.9777C3.62752 40.2947 12.8 47.9027 23.74 47.9027C36.7343 47.9027 47.2603 37.1801 47.2603 23.9432C47.2443 22.9699 47.1806 21.9966 47.0532 21.0396Z" fill="white"/>
</g>
<defs>
<clipPath id="clip0_113_2461">
<rect width="128" height="48" fill="white"/>
</clipPath>
</defs>
</svg>
