<svg width="128" height="48" viewBox="0 0 128 48" fill="none" xmlns="http://www.w3.org/2000/svg">
<g id="logo" clip-path="url(#clip0_566_18255)">
<path id="Vector" d="M63.2994 0C67.1213 0.0648868 68.443 2.59547 68.0927 5.09361C67.6786 8.20818 64.7167 9.96012 62.0573 10.1872C60.8471 10.2683 59.7005 10.2683 58.7451 10.2846L57.8374 16.8219H54.4614L56.8023 0.0162217L63.2994 0ZM62.3758 7.13755C63.6179 6.97533 64.446 6.2778 64.6052 5.1585C64.7645 3.95809 64.3823 3.35789 62.9969 3.17945C62.0096 3.03346 60.9108 3.00101 59.7483 3.00101L59.1432 7.29976C60.2101 7.29976 61.3567 7.26732 62.3758 7.13755Z" fill="#66696A"/>
<path id="Vector_2" d="M80.2111 3.14701H73.4751L72.9655 6.82933H78.539L78.0931 9.97634H72.5355L71.5801 16.8381H68.2041L70.545 0H80.657L80.2111 3.14701Z" fill="#66696A"/>
<path id="Vector_3" d="M95.6258 16.8381H91.9951L91.1192 13.4153H84.431L82.6475 16.8381H78.9849L88.2369 0H91.0237L95.6258 16.8381ZM88.9217 5.10983L86.1349 10.2683H90.2912L88.9217 5.10983Z" fill="#66696A"/>
<path id="Vector_4" d="M108.97 3.14701H102.218L101.709 6.82933H107.282L106.836 9.97634H101.279L100.339 16.8381H96.9634L99.2883 0H109.4L108.97 3.14701Z" fill="#66696A"/>
<path id="Vector_5" d="M120.834 3.14701H114.098L113.589 6.82933H119.146L118.716 9.97634H113.143L112.203 16.8381H108.827L111.152 0H121.28L120.834 3.14701Z" fill="#66696A"/>
<path id="Vector_6" d="M65.9427 30.367C66.6434 30.3184 67.2326 30.075 67.8377 30.0264C67.774 30.4319 67.6148 30.9835 67.2007 31.6972C66.8822 31.7945 66.5319 31.9405 66.1816 32.0865C65.9268 32.2325 65.5605 32.7192 65.0509 33.3356C65.449 33.806 65.8312 34.2602 66.2134 34.682L68.5224 37.2937H63.984L63.6018 36.8395C63.2674 36.4502 62.9171 36.0446 62.5827 35.6066C61.1972 36.6448 59.6366 37.4397 57.3754 37.4721C54.5409 37.4721 52.0885 35.8824 52.3751 32.6867C52.4548 31.681 52.9166 30.7726 53.5854 30.0102C54.716 28.826 56.3085 28.0473 56.5792 27.4471C56.4199 27.0254 55.56 25.4032 55.7193 24.3975C56.0377 21.9966 57.9327 20.6502 59.8118 20.3745C62.8852 19.9527 64.7643 21.7371 64.6687 24.0406C64.5891 26.0683 62.5827 27.0254 61.3406 27.9338C61.4043 28.5015 61.6272 29.1017 62.0412 29.702C63.6337 30.5455 64.8439 30.3833 65.9427 30.367ZM58.0283 29.8317C57.7417 30.0102 57.0888 30.367 56.6429 30.8699C56.2766 31.3403 56.0059 31.8919 55.9581 32.4596C55.8307 33.6438 56.9614 34.2602 58.3627 34.1143C59.35 33.9845 60.194 33.3843 60.4647 33.0761C59.6048 32.0217 58.7927 30.9024 58.0283 29.8317ZM59.0634 24.4299C58.9838 25.0625 59.6207 25.825 59.6844 25.9872C60.5603 25.533 61.452 24.9977 61.5316 24.4137C61.659 23.5539 61.3883 23.0673 60.4329 23.0673C59.5889 23.0673 59.1908 23.5539 59.0634 24.4299Z" fill="#66696A"/>
<path id="Vector_7" d="M68.2041 20.4718H71.9623L74.7968 31.7459L80.7366 20.4718H84.4788L75.2745 37.2937H72.7744L68.2041 20.4718Z" fill="#66696A"/>
<path id="Vector_8" d="M95.9442 23.6188H88.7624L88.2528 27.3011H94.2563L93.8263 30.4481H87.8228L87.3132 34.1467H94.4951L94.0652 37.2937H83.5073L85.8323 20.4718H96.3901L95.9442 23.6188Z" fill="#66696A"/>
<path id="Vector_9" d="M110.292 37.099L109.225 36.7097L109.289 35.2173C107.728 36.7097 105.61 37.4883 103.078 37.4883C98.8903 37.4721 95.6258 33.5951 96.2787 29.0044C97.0431 23.4079 101.295 20.0014 105.738 19.9689C109.034 19.904 111.518 21.4289 112.044 23.7972L109.05 25.3707C108.604 23.8783 107.203 23.1646 105.499 23.197C103.015 23.2457 100.324 25.3707 99.8299 28.9233C99.4159 31.9243 101.199 34.244 103.652 34.244C106.088 34.2278 108.19 32.6705 108.445 30.7888L104.289 30.805L104.273 27.9987L112.362 27.9662C112.044 30.7726 111.407 34.5198 110.292 37.099Z" fill="#66696A"/>
<path id="Vector_10" d="M128 37.2937H124.369L123.493 33.8709H116.805L115.022 37.2937H111.375L120.627 20.4556H123.414L128 37.2937ZM121.296 25.5816L118.509 30.7401H122.665L121.296 25.5816Z" fill="#66696A"/>
<g id="Group 7">
<path id="Vector_11" d="M55.6397 47.2214L55.5282 47.8702H51.8337L53.0281 41.0571H53.6969L52.614 47.2214H55.6397Z" fill="#1E4476"/>
<path id="Vector_12" d="M63.0127 42.6794C62.8853 42.3387 62.7101 42.0305 62.4712 41.7872C62.2324 41.5276 61.9617 41.3329 61.6432 41.187C61.3247 41.041 60.9584 40.9761 60.5762 40.9761C60.0348 40.9761 59.5412 41.0896 59.0794 41.3167C58.6175 41.5438 58.2035 41.852 57.8691 42.2251C57.5188 42.6145 57.248 43.0525 57.057 43.5553C56.8499 44.0582 56.7544 44.5773 56.7544 45.1288C56.7544 45.5344 56.8181 45.9075 56.9455 46.2481C57.0729 46.5888 57.2481 46.897 57.4869 47.1403C57.7258 47.3999 57.9965 47.5945 58.315 47.7405C58.6335 47.8865 58.9997 47.9514 59.3819 47.9514C59.9233 47.9514 60.417 47.8379 60.8788 47.6107C61.3406 47.3836 61.7546 47.0754 62.0891 46.6861C62.4394 46.2968 62.7101 45.8588 62.9171 45.3559C63.1241 44.8531 63.2197 44.334 63.2197 43.7824C63.2038 43.4093 63.1401 43.02 63.0127 42.6794ZM62.2801 45.145C62.1209 45.5506 61.898 45.9075 61.6272 46.2319C61.3565 46.5563 61.0221 46.8159 60.6559 47.0105C60.2896 47.2052 59.8915 47.3188 59.4775 47.3188C59.159 47.3188 58.8564 47.2701 58.6016 47.1565C58.3468 47.043 58.1239 46.8808 57.9487 46.6861C57.7736 46.4752 57.6302 46.2319 57.5347 45.9561C57.4391 45.6804 57.3914 45.3559 57.3914 45.0153C57.3914 44.7395 57.4232 44.4637 57.5028 44.188C57.5825 43.9122 57.678 43.6527 57.8054 43.4093C57.9328 43.166 58.092 42.9227 58.2831 42.7118C58.4742 42.5009 58.6653 42.3063 58.9042 42.144C59.1271 41.9818 59.366 41.852 59.6367 41.7709C59.8915 41.6736 60.1622 41.6412 60.4488 41.6412C60.7673 41.6412 61.0699 41.6898 61.3247 41.8034C61.5795 41.9169 61.8024 42.0791 61.9776 42.2738C62.1528 42.4847 62.2961 42.728 62.3916 43.0038C62.4872 43.2796 62.5349 43.604 62.5349 43.9446C62.519 44.334 62.4394 44.7395 62.2801 45.145Z" fill="#1E4476"/>
<path id="Vector_13" d="M69.8919 44.1394L69.4778 46.5564C69.0956 46.9782 68.6498 47.3189 68.1402 47.5784C67.6306 47.838 67.1051 47.9515 66.5477 47.9515C66.1337 47.9515 65.7515 47.8704 65.4171 47.7244C65.0668 47.5784 64.7801 47.3675 64.5413 47.1242C64.3024 46.8647 64.1113 46.5727 63.968 46.2158C63.8247 45.8589 63.761 45.4858 63.761 45.0803C63.761 44.5287 63.8565 44.0096 64.0635 43.523C64.2706 43.0363 64.5413 42.5984 64.8916 42.209C65.242 41.8359 65.656 41.5277 66.1337 41.3006C66.6114 41.0735 67.137 40.96 67.6784 40.96C68.0765 40.96 68.4427 41.0248 68.7772 41.1708C69.0956 41.3006 69.3982 41.4953 69.6371 41.7386L69.1912 42.209C69.016 42.0306 68.7772 41.9008 68.4905 41.7873C68.188 41.6737 67.8854 41.6088 67.5669 41.6088C67.1369 41.6088 66.7388 41.7062 66.3567 41.9008C65.9745 42.0955 65.6401 42.3388 65.3534 42.6632C65.0668 42.9877 64.8438 43.3446 64.6846 43.7339C64.5254 44.1394 64.4298 44.545 64.4298 44.9667C64.4298 45.3074 64.4776 45.6156 64.5891 45.9076C64.6846 46.1996 64.8438 46.4429 65.0349 46.6538C65.226 46.8647 65.4649 47.0269 65.7356 47.1404C66.0063 47.254 66.3248 47.3189 66.6592 47.3189C67.0573 47.3189 67.4554 47.2378 67.8217 47.0431C68.188 46.8647 68.5383 46.6376 68.8409 46.3456L69.1116 44.7883H67.7739L67.8854 44.1394H69.8919Z" fill="#1E4476"/>
<path id="Vector_14" d="M72.408 41.0894L71.2296 47.9025H70.5608L71.7392 41.0894H72.408Z" fill="#1E4476"/>
<path id="Vector_15" d="M77.4242 42.1278L76.7553 42.3225C76.7076 42.0791 76.5802 41.9169 76.3891 41.8196C76.198 41.7223 75.991 41.6736 75.768 41.6736C75.5929 41.6736 75.4336 41.706 75.2425 41.7547C75.0674 41.8034 74.9081 41.8845 74.7648 41.9818C74.6215 42.0791 74.4941 42.2089 74.3985 42.3549C74.303 42.5009 74.2552 42.6793 74.2552 42.874C74.2552 43.0687 74.303 43.2309 74.4304 43.3444C74.5419 43.458 74.6693 43.5553 74.8285 43.604L76.198 44.0906C76.4209 44.1717 76.5961 44.2691 76.7394 44.3826C76.8827 44.4962 77.0101 44.6097 77.0898 44.7557C77.1694 44.8855 77.2331 45.0315 77.2808 45.1937C77.3127 45.3397 77.3446 45.5019 77.3446 45.6641C77.3446 46.021 77.2809 46.3617 77.1375 46.6374C77.0101 46.9294 76.819 47.1728 76.5802 47.3674C76.3413 47.5621 76.0706 47.7243 75.7521 47.8216C75.4336 47.919 75.0992 47.9838 74.7489 47.9838C74.4463 47.9838 74.1915 47.9352 73.9527 47.8378C73.7138 47.7405 73.5068 47.6107 73.3316 47.4485C73.1564 47.2863 73.0131 47.1079 72.9017 46.897C72.7902 46.6861 72.7106 46.4752 72.6787 46.2643L73.3475 46.0859C73.3794 46.2481 73.4272 46.4103 73.5068 46.5563C73.5864 46.7023 73.6979 46.8321 73.8253 46.9457C73.9527 47.0592 74.1119 47.1565 74.2871 47.2214C74.4622 47.2863 74.6533 47.3188 74.8763 47.3188C75.0833 47.3188 75.2903 47.2863 75.4973 47.2052C75.7043 47.1241 75.8954 47.0268 76.0706 46.8808C76.2458 46.7348 76.3732 46.5726 76.4846 46.3941C76.5961 46.1995 76.6439 46.0048 76.6439 45.7777C76.6439 45.5344 76.5961 45.3235 76.4846 45.145C76.3732 44.9666 76.198 44.8206 75.9432 44.7395L74.5578 44.2529C74.2393 44.1393 74.0004 43.9609 73.8412 43.7338C73.6819 43.5067 73.5864 43.2309 73.5864 42.9389C73.5864 42.6145 73.6501 42.3387 73.7616 42.0954C73.889 41.852 74.0482 41.6412 74.2552 41.4789C74.4622 41.3167 74.7011 41.2032 74.9877 41.1058C75.2744 41.0247 75.561 40.9761 75.8795 40.9761C76.0865 40.9761 76.2776 41.0085 76.4528 41.0734C76.628 41.1383 76.7872 41.2194 76.9305 41.3167C77.0738 41.4141 77.1853 41.5438 77.2649 41.6736C77.3446 41.8196 77.3923 41.9656 77.4242 42.1278Z" fill="#1E4476"/>
<path id="Vector_16" d="M84.3353 41.0894L84.2398 41.7382H81.883L80.8161 47.9025H80.1472L81.2142 41.7382H78.8733L78.9848 41.0894H84.3353Z" fill="#1E4476"/>
<path id="Vector_17" d="M86.1827 41.0894L85.0043 47.9025H84.3354L85.5139 41.0894H86.1827Z" fill="#1E4476"/>
<path id="Vector_18" d="M91.963 41.0894L88.9693 44.139L91.3579 47.9025H90.5617L88.4915 44.6257L87.5838 45.5341L87.1857 47.9025H86.501L87.6953 41.0894H88.3641L87.7749 44.431L91.0394 41.0894H91.963Z" fill="#1E4476"/>
</g>
<path id="Vector_19" d="M46.1137 14.5184C42.5148 5.98581 34.2182 0 24.5203 0C11.526 0 1 10.7225 1 23.9594C1 24.9652 1.07962 25.9385 1.19109 26.8956C3.64344 27.2038 6.12764 27.366 8.64369 27.366C22.689 27.366 35.6514 22.5968 46.1137 14.5184Z" fill="#1E4476"/>
<path id="Vector_20" d="M47.0532 21.0396C37.3075 27.4958 25.7305 31.243 13.3255 31.243C9.1055 31.243 4.98109 30.805 1 29.9777C3.62752 40.2947 12.8 47.9027 23.74 47.9027C36.7343 47.9027 47.2603 37.1801 47.2603 23.9432C47.2443 22.9699 47.1806 21.9966 47.0532 21.0396Z" fill="#1E4476"/>
</g>
<defs>
<clipPath id="clip0_566_18255">
<rect width="128" height="48" fill="white"/>
</clipPath>
</defs>
</svg>
