<svg width="40" height="40" viewBox="0 0 40 40" fill="none" xmlns="http://www.w3.org/2000/svg">
<g id="icon-4">
<g id="Vector">
<path d="M28.4267 11.0655C29.7942 11.0723 31.1616 11.0717 32.5291 11.0638C33.8863 11.0571 35.192 11.8352 35.7563 13.1027C35.881 13.3838 36.0206 13.9286 36.1752 14.7369C36.4007 15.9138 36.6268 17.0913 36.8534 18.2694C36.8555 18.2811 36.8603 18.2921 36.8676 18.3014C36.8748 18.3107 36.8842 18.318 36.8949 18.3227C37.7515 18.7026 38.6095 19.087 39.4689 19.4759C39.8152 19.6329 39.9889 19.9284 39.99 20.3625C39.995 22.3861 39.9983 24.4097 40 26.4334C40 26.8669 39.9645 27.161 39.8936 27.3157C39.6767 27.7881 39.2603 27.844 38.7508 27.8432C37.9452 27.8415 37.1437 27.8409 36.3464 27.8415C36.3338 27.8415 36.3217 27.8464 36.3126 27.8552C36.3035 27.864 36.298 27.8761 36.2974 27.8889C36.1644 30.4968 33.8988 32.4087 31.329 31.9235C29.4041 31.5603 28.0369 29.8499 27.9488 27.8745C27.9486 27.8657 27.945 27.8573 27.9388 27.8511C27.9326 27.8449 27.9242 27.8415 27.9156 27.8415H19.7947C19.7856 27.8415 19.7768 27.845 19.7703 27.8513C19.7638 27.8577 19.76 27.8663 19.7598 27.8754C19.68 29.6738 18.5314 31.2868 16.8243 31.81C14.1423 32.6322 11.5426 30.6873 11.4104 27.8728C11.41 27.8655 11.4068 27.8586 11.4016 27.8535C11.3963 27.8485 11.3894 27.8457 11.3821 27.8457L10.8943 27.8415C10.8777 27.8415 10.8688 27.85 10.8677 27.8669C10.7491 29.369 10.1272 30.5041 9.00183 31.2724C7.46343 32.3231 5.48205 32.2249 4.04671 31.037C3.11032 30.2625 2.59419 29.2123 2.49834 27.8864C2.49612 27.857 2.48061 27.8423 2.4518 27.8423C2.07779 27.8406 1.70628 27.8404 1.33727 27.8415C0.927804 27.842 0.646609 27.8034 0.493683 27.7255C0.0482047 27.4986 0 27.0904 0 26.5824C0.000554078 20.8519 0.000554078 15.121 0 9.38988C0 8.96822 0.0343529 8.68203 0.103059 8.53131C0.308344 8.07663 0.70645 8.00042 1.19764 8.00042C9.82463 7.99986 18.4516 7.99986 27.0786 8.00042C27.472 8.00042 27.7468 8.04304 27.9031 8.12828C28.3286 8.36028 28.3818 8.74807 28.3785 9.24425C28.3746 9.83582 28.3752 10.4271 28.3802 11.0181C28.3807 11.0497 28.3962 11.0655 28.4267 11.0655ZM26.5193 9.9267C26.5193 9.91974 26.5166 9.91306 26.5117 9.90814C26.5069 9.90322 26.5004 9.90045 26.4935 9.90045H1.88747C1.88063 9.90045 1.87408 9.90322 1.86925 9.90814C1.86442 9.91306 1.8617 9.91974 1.8617 9.9267V21.1999C1.8617 21.2068 1.86442 21.2135 1.86925 21.2184C1.87408 21.2233 1.88063 21.2261 1.88747 21.2261H26.4935C26.5004 21.2261 26.5069 21.2233 26.5117 21.2184C26.5166 21.2135 26.5193 21.2068 26.5193 21.1999V9.9267ZM38.0785 25.9465C38.1183 25.9465 38.1383 25.9262 38.1383 25.8856V24.6418C38.1383 24.6169 38.1264 24.6039 38.1026 24.6028C37.9552 24.5943 37.8083 24.5861 37.6621 24.5782C36.816 24.53 36.2176 23.8399 36.2251 22.9873C36.2276 22.6206 36.196 22.1905 36.2866 21.8628C36.46 21.2368 36.8742 20.86 37.5291 20.7325C37.595 20.72 37.5972 20.7006 37.5357 20.674C36.9085 20.4042 36.2835 20.124 35.6607 19.8333C35.5388 19.7762 35.4111 19.7477 35.2776 19.7477C34.2387 19.7438 33.1998 19.7432 32.1609 19.746C31.422 19.7477 31.2417 19.5056 31.2417 18.7469C31.2417 17.2595 31.242 15.7721 31.2425 14.2847C31.2425 13.6463 31.5309 13.4736 32.1393 13.4702C32.6607 13.4674 33.1735 13.4651 33.6777 13.4634C33.7337 13.4634 33.7409 13.4442 33.6993 13.4058C33.3807 13.1118 33.0023 12.9644 32.564 12.9639C31.1821 12.9633 29.7975 12.9627 28.4101 12.9622C28.4015 12.9622 28.3932 12.9656 28.3872 12.9718C28.3811 12.978 28.3777 12.9864 28.3777 12.9952L28.3785 25.7611C28.3785 25.8142 28.391 25.8176 28.4159 25.7713C29.9643 22.9339 33.8905 22.6266 35.6383 25.469C35.7275 25.6135 35.8134 25.7603 35.8959 25.9093C35.902 25.9203 35.9109 25.9295 35.9217 25.9359C35.9325 25.9423 35.9449 25.9457 35.9574 25.9457L38.0785 25.9465ZM32.5706 18.3574C32.5706 18.3662 32.5741 18.3746 32.5801 18.3808C32.5862 18.387 32.5945 18.3905 32.6031 18.3905L34.941 18.3913C34.9457 18.3913 34.9504 18.3902 34.9546 18.3881C34.9589 18.386 34.9627 18.383 34.9657 18.3793C34.9687 18.3756 34.9709 18.3713 34.972 18.3666C34.9732 18.362 34.9734 18.3571 34.9726 18.3524L34.3002 14.8453C34.2988 14.8377 34.295 14.8309 34.2892 14.8259C34.2834 14.821 34.2761 14.8182 34.2686 14.8182L32.6039 14.819C32.5953 14.819 32.587 14.8225 32.581 14.8287C32.5749 14.8349 32.5715 14.8433 32.5715 14.852L32.5706 18.3574ZM38.135 23.2116V22.0991C38.135 22.091 38.1318 22.0832 38.1262 22.0775C38.1206 22.0718 38.113 22.0686 38.1051 22.0686H37.7768C37.7478 22.0686 37.7192 22.0745 37.6925 22.086C37.6658 22.0975 37.6415 22.1143 37.621 22.1355C37.6006 22.1568 37.5843 22.182 37.5733 22.2097C37.5622 22.2374 37.5565 22.2672 37.5565 22.2972V23.0135C37.5565 23.0741 37.5797 23.1323 37.621 23.1752C37.6623 23.218 37.7183 23.2421 37.7768 23.2421H38.1051C38.113 23.2421 38.1206 23.2389 38.1262 23.2332C38.1318 23.2275 38.135 23.2197 38.135 23.2116ZM2.9114 25.9135C4.44897 22.6935 8.89461 22.6714 10.448 25.9127C10.4531 25.924 10.4615 25.9335 10.4719 25.9402C10.4824 25.9468 10.4946 25.9502 10.507 25.9499L11.7694 25.9423C11.7784 25.9423 11.7872 25.9398 11.7948 25.935C11.8025 25.9302 11.8086 25.9234 11.8127 25.9152C13.3245 22.8636 17.387 22.6164 19.1523 25.5604C19.2215 25.6756 19.2911 25.7933 19.3609 25.9135C19.3742 25.9355 19.3936 25.9465 19.419 25.9465L26.4819 25.9474C26.492 25.9474 26.5017 25.9433 26.5089 25.936C26.5161 25.9287 26.5201 25.9188 26.5201 25.9084V23.1769C26.5201 23.1515 26.5074 23.1388 26.4819 23.1388H1.87999C1.87514 23.1388 1.87049 23.1409 1.86706 23.1445C1.86363 23.1482 1.8617 23.1531 1.8617 23.1583V25.9076C1.8617 25.9347 1.875 25.9482 1.9016 25.9482H2.85738C2.8686 25.9482 2.87962 25.945 2.88917 25.9388C2.89872 25.9327 2.90643 25.9239 2.9114 25.9135ZM8.9985 27.7424C8.9985 27.4323 8.93855 27.1252 8.82206 26.8387C8.70557 26.5522 8.53483 26.2919 8.31958 26.0726C8.10434 25.8533 7.8488 25.6794 7.56757 25.5607C7.28634 25.442 6.98492 25.3809 6.68052 25.3809C6.37612 25.3809 6.07469 25.442 5.79346 25.5607C5.51223 25.6794 5.2567 25.8533 5.04145 26.0726C4.82621 26.2919 4.65547 26.5522 4.53898 26.8387C4.42249 27.1252 4.36253 27.4323 4.36253 27.7424C4.36253 28.3687 4.60675 28.9694 5.04145 29.4122C5.47616 29.8551 6.06575 30.1039 6.68052 30.1039C6.98492 30.1039 7.28634 30.0428 7.56757 29.9241C7.8488 29.8055 8.10434 29.6315 8.31958 29.4122C8.53483 29.193 8.70557 28.9326 8.82206 28.6461C8.93855 28.3596 8.9985 28.0525 8.9985 27.7424ZM17.9031 27.7424C17.9031 27.4323 17.8431 27.1252 17.7266 26.8387C17.6102 26.5522 17.4394 26.2919 17.2242 26.0726C17.0089 25.8533 16.7534 25.6794 16.4722 25.5607C16.1909 25.442 15.8895 25.3809 15.5851 25.3809C15.2807 25.3809 14.9793 25.442 14.6981 25.5607C14.4168 25.6794 14.1613 25.8533 13.946 26.0726C13.7308 26.2919 13.5601 26.5522 13.4436 26.8387C13.3271 27.1252 13.2671 27.4323 13.2671 27.7424C13.2671 28.3687 13.5113 28.9694 13.946 29.4122C14.3807 29.8551 14.9703 30.1039 15.5851 30.1039C15.8895 30.1039 16.1909 30.0428 16.4722 29.9241C16.7534 29.8055 17.0089 29.6315 17.2242 29.4122C17.4394 29.193 17.6102 28.9326 17.7266 28.6461C17.8431 28.3596 17.9031 28.0525 17.9031 27.7424ZM34.4407 27.7424C34.4407 27.4323 34.3807 27.1252 34.2642 26.8387C34.1477 26.5522 33.977 26.2919 33.7617 26.0726C33.5465 25.8533 33.291 25.6794 33.0097 25.5607C32.7285 25.442 32.4271 25.3809 32.1227 25.3809C31.8183 25.3809 31.5168 25.442 31.2356 25.5607C30.9544 25.6794 30.6989 25.8533 30.4836 26.0726C30.2684 26.2919 30.0976 26.5522 29.9811 26.8387C29.8646 27.1252 29.8047 27.4323 29.8047 27.7424C29.8047 28.3687 30.0489 28.9694 30.4836 29.4122C30.9183 29.8551 31.5079 30.1039 32.1227 30.1039C32.7374 30.1039 33.327 29.8551 33.7617 29.4122C34.1964 28.9694 34.4407 28.3687 34.4407 27.7424Z" fill="#73777A"/>
<path d="M5.36323 10.7421L5.32334 10.7421C4.82026 10.743 4.41315 11.1592 4.41403 11.6717L4.4274 19.4751C4.42827 19.9876 4.83681 20.4023 5.33989 20.4014L5.37978 20.4014C5.88286 20.4005 6.28997 19.9843 6.2891 19.4717L6.27573 11.6684C6.27485 11.1559 5.86631 10.7412 5.36323 10.7421Z" fill="#73777A"/>
<path d="M9.79056 10.7421H9.75233C9.25017 10.7421 8.84308 11.1568 8.84308 11.6684V19.4751C8.84308 19.9867 9.25017 20.4014 9.75233 20.4014H9.79056C10.2927 20.4014 10.6998 19.9867 10.6998 19.4751V11.6684C10.6998 11.1568 10.2927 10.7421 9.79056 10.7421Z" fill="#73777A"/>
<path d="M14.2096 10.7395H14.1714C13.6697 10.7395 13.263 11.1539 13.263 11.665V19.4768C13.263 19.9879 13.6697 20.4023 14.1714 20.4023H14.2096C14.7113 20.4023 15.118 19.9879 15.118 19.4768V11.665C15.118 11.1539 14.7113 10.7395 14.2096 10.7395Z" fill="#73777A"/>
<path d="M18.6212 10.7421L18.5813 10.7421C18.0782 10.743 17.6711 11.1592 17.672 11.6717L17.6854 19.4751C17.6863 19.9876 18.0948 20.4023 18.5979 20.4014L18.6378 20.4014C19.1408 20.4005 19.548 19.9843 19.5471 19.4717L19.5337 11.6684C19.5328 11.1559 19.1243 10.7412 18.6212 10.7421Z" fill="#73777A"/>
<path d="M23.0585 10.7413L23.0186 10.7412C22.5155 10.7403 22.107 11.1551 22.1061 11.6676L22.0927 19.4709C22.0918 19.9834 22.499 20.3996 23.002 20.4005L23.0419 20.4006C23.545 20.4015 23.9535 19.9867 23.9544 19.4742L23.9678 11.6709C23.9687 11.1584 23.5615 10.7422 23.0585 10.7413Z" fill="#73777A"/>
<path d="M33.4026 20.7189H31.8816C31.5346 20.7189 31.2533 21.0055 31.2533 21.359V21.4234C31.2533 21.7769 31.5346 22.0635 31.8816 22.0635H33.4026C33.7496 22.0635 34.0309 21.7769 34.0309 21.4234V21.359C34.0309 21.0055 33.7496 20.7189 33.4026 20.7189Z" fill="#73777A"/>
<path d="M6.67969 28.562C7.12447 28.562 7.48504 28.1947 7.48504 27.7416C7.48504 27.2884 7.12447 26.9211 6.67969 26.9211C6.2349 26.9211 5.87433 27.2884 5.87433 27.7416C5.87433 28.1947 6.2349 28.562 6.67969 28.562Z" fill="#73777A"/>
<path d="M15.5843 28.5629C16.0291 28.5629 16.3896 28.1955 16.3896 27.7424C16.3896 27.2893 16.0291 26.922 15.5843 26.922C15.1395 26.922 14.7789 27.2893 14.7789 27.7424C14.7789 28.1955 15.1395 28.5629 15.5843 28.5629Z" fill="#73777A"/>
<path d="M32.1227 28.5629C32.5675 28.5629 32.928 28.1955 32.928 27.7424C32.928 27.2893 32.5675 26.922 32.1227 26.922C31.6779 26.922 31.3173 27.2893 31.3173 27.7424C31.3173 28.1955 31.6779 28.5629 32.1227 28.5629Z" fill="#73777A"/>
</g>
</g>
</svg>
