<svg width="40" height="40" viewBox="0 0 40 40" fill="none" xmlns="http://www.w3.org/2000/svg">
<g id="icon-3">
<g id="Vector">
<path d="M21.7879 31.0858C20.9213 29.1248 20.7993 27.1426 21.4218 25.1393C22.696 21.0361 27.0322 18.5483 31.2851 19.4513C34.4928 20.1323 37.0448 22.5835 37.7838 25.75C38.6737 29.5609 36.7538 33.5003 33.1755 35.1793C29.5744 36.8687 25.3662 35.8857 22.8673 32.8216C22.8511 32.8017 22.8301 32.7917 22.8044 32.7917C16.2597 32.7917 9.71018 32.7892 3.15588 32.7842C2.96185 32.7842 2.75644 32.8074 2.57984 32.7461C2.08792 32.5749 2 32.2131 2 31.7078C2 22.8491 2 13.9904 2 5.13175C2 4.79786 2.03739 4.56289 2.11218 4.42684C2.30621 4.07101 2.62456 4 3.04067 4C12.0629 4 21.0853 4 30.108 4C30.941 4 31.1987 4.3177 31.1987 5.10484C31.1987 9.67123 31.1987 14.2356 31.1987 18.798C31.1988 18.801 31.1981 18.804 31.1969 18.8067C31.1956 18.8094 31.1938 18.8119 31.1915 18.8138C31.1891 18.8157 31.1864 18.8171 31.1835 18.8179C31.1805 18.8186 31.1774 18.8188 31.1745 18.8182C30.6434 18.7205 30.108 18.6702 29.5684 18.6672C29.5497 18.6672 29.5317 18.6599 29.5185 18.6468C29.5053 18.6338 29.4979 18.6161 29.4979 18.5977V5.70735C29.4979 5.69763 29.4939 5.68832 29.487 5.68145C29.48 5.67458 29.4706 5.67072 29.4607 5.67072H22.0858C22.0768 5.67072 22.0681 5.67426 22.0617 5.68057C22.0553 5.68688 22.0517 5.69544 22.0517 5.70436C22.0517 8.4109 22.0515 11.1217 22.051 13.8367C22.051 14.0834 22.0244 14.2638 21.9714 14.3779C21.8076 14.7307 21.3642 14.9303 20.9875 14.8242C20.8834 14.7953 20.7271 14.7073 20.5184 14.5603C19.9822 14.1835 19.4443 13.8058 18.9047 13.427C18.8971 13.4218 18.888 13.419 18.8787 13.419C18.8693 13.419 18.8601 13.4218 18.8524 13.427C18.3253 13.7973 17.7958 14.1693 17.2637 14.5431C16.8779 14.8144 16.4891 14.9998 16.0904 14.7203C15.4739 14.2872 14.861 13.8561 14.2516 13.427C14.2434 13.4214 14.2336 13.4184 14.2236 13.4185C14.2135 13.4187 14.2037 13.4219 14.1955 13.4278C13.6493 13.814 13.1 14.1997 12.5477 14.585C12.336 14.7325 12.1657 14.8179 12.0368 14.8414C11.645 14.9131 11.2145 14.6664 11.0924 14.2882C11.0621 14.194 11.047 14.0176 11.047 13.7589C11.0475 11.0763 11.0472 8.38997 11.0462 5.69987C11.0462 5.69214 11.0431 5.68473 11.0375 5.67926C11.032 5.67379 11.0245 5.67072 11.0166 5.67072H3.71904C3.7054 5.67072 3.69858 5.6772 3.69858 5.69015V31.0791C3.69908 31.1065 3.71298 31.1202 3.74027 31.1202H21.7652C21.7905 31.1202 21.798 31.1088 21.7879 31.0858ZM13.6445 11.7631C14.0151 11.5089 14.3607 11.4566 14.7359 11.7182C15.3352 12.1358 15.9332 12.5532 16.53 12.9703C16.5373 12.9753 16.546 12.978 16.5548 12.978C16.5636 12.978 16.5721 12.9753 16.5793 12.9703C17.1194 12.5881 17.6631 12.2063 18.2104 11.8251C18.6212 11.5388 18.979 11.4184 19.3974 11.7152C19.8117 12.0092 20.1177 12.2243 20.3152 12.3603C20.344 12.3803 20.3584 12.373 20.3584 12.3386L20.3577 5.70436C20.3577 5.69544 20.3542 5.68688 20.3479 5.68057C20.3417 5.67426 20.3332 5.67072 20.3243 5.67072H12.7796C12.7702 5.67072 12.7611 5.67442 12.7545 5.68101C12.7478 5.6876 12.744 5.69653 12.744 5.70585V12.3566C12.7439 12.3603 12.7449 12.364 12.7469 12.3673C12.7488 12.3705 12.7517 12.3731 12.7552 12.3748C12.7586 12.3765 12.7625 12.3772 12.7665 12.3769C12.7704 12.3766 12.7742 12.3753 12.7774 12.373C13.0644 12.1662 13.3534 11.9629 13.6445 11.7631ZM36.3028 27.633C36.3028 25.8582 35.5879 24.1561 34.3154 22.9012C33.043 21.6462 31.3171 20.9412 29.5176 20.9412C28.6265 20.9412 27.7442 21.1143 26.921 21.4506C26.0978 21.7868 25.3498 22.2798 24.7197 22.9012C24.0896 23.5226 23.5898 24.2603 23.2488 25.0722C22.9079 25.884 22.7324 26.7542 22.7324 27.633C22.7324 28.5118 22.9079 29.382 23.2488 30.1939C23.5898 31.0058 24.0896 31.7435 24.7197 32.3649C25.3498 32.9863 26.0978 33.4792 26.921 33.8155C27.7442 34.1518 28.6265 34.3249 29.5176 34.3249C31.3171 34.3249 33.043 33.6198 34.3154 32.3649C35.5879 31.1099 36.3028 29.4078 36.3028 27.633Z" fill="#73777A"/>
<path d="M29.0734 26.2718C28.7626 26.3697 28.5057 26.6605 28.1207 26.437C28.0247 26.3807 27.8976 26.2478 27.7394 26.0385C27.3134 25.4744 26.8872 24.912 26.4607 24.3514C26.1212 23.9051 26.0636 23.5784 26.5585 23.2465C28.3753 22.0288 30.8296 22.0722 32.5805 23.3116C33.0095 23.6151 32.8306 24.0105 32.5585 24.3686C32.0739 25.005 31.5908 25.6424 31.1093 26.2807C30.9099 26.5454 30.5908 26.5626 30.3028 26.431C29.8594 26.2292 29.5593 26.1185 29.0734 26.2718ZM31.3063 23.9492C30.2194 23.4648 28.8043 23.3788 27.7311 23.9537C27.7038 23.9686 27.6995 23.9886 27.7182 24.0135L28.5694 25.1333C28.586 25.1552 28.6073 25.1617 28.633 25.1527C29.2217 24.9554 29.8091 24.9549 30.3953 25.1512C30.4241 25.1607 30.4478 25.1535 30.4665 25.1296L31.3207 24.006C31.3242 24.0014 31.3266 23.9961 31.3277 23.9905C31.3288 23.9848 31.3287 23.9791 31.3273 23.9736C31.3259 23.9682 31.3233 23.9631 31.3197 23.9589C31.3161 23.9547 31.3115 23.9514 31.3063 23.9492Z" fill="#73777A"/>
<path d="M9.15658 28.9363C9.15644 29.0167 9.14024 29.0963 9.10892 29.1705C9.07759 29.2447 9.03174 29.3121 8.974 29.3689C8.91626 29.4256 8.84774 29.4706 8.77237 29.5013C8.69701 29.5319 8.61626 29.5476 8.53474 29.5474L5.90161 29.5429C5.73697 29.5426 5.57919 29.4779 5.46298 29.3628C5.34677 29.2478 5.28164 29.092 5.28192 28.9296L5.28653 26.3297C5.28667 26.2493 5.30286 26.1698 5.33419 26.0955C5.36552 26.0213 5.41136 25.9539 5.46911 25.8971C5.52685 25.8404 5.59537 25.7954 5.67074 25.7648C5.7461 25.7341 5.82685 25.7184 5.90837 25.7186L8.5415 25.7231C8.70614 25.7234 8.86392 25.7882 8.98013 25.9032C9.09634 26.0182 9.16147 26.174 9.16119 26.3364L9.15658 28.9363ZM7.94737 26.9495C7.94738 26.9453 7.94654 26.9411 7.94491 26.9372C7.94328 26.9333 7.94089 26.9298 7.93786 26.9268C7.93484 26.9238 7.93125 26.9214 7.9273 26.9198C7.92335 26.9182 7.91911 26.9173 7.91483 26.9173L6.5293 26.9149C6.52502 26.9149 6.52078 26.9158 6.51682 26.9174C6.51286 26.919 6.50927 26.9213 6.50623 26.9243C6.5032 26.9273 6.5008 26.9308 6.49915 26.9347C6.49751 26.9386 6.49665 26.9428 6.49665 26.947L6.49422 28.3165C6.49421 28.3207 6.49505 28.3249 6.49668 28.3288C6.49831 28.3327 6.50071 28.3363 6.50373 28.3392C6.50675 28.3422 6.51034 28.3446 6.51429 28.3462C6.51824 28.3478 6.52248 28.3487 6.52676 28.3487L7.91229 28.3511C7.91657 28.3511 7.92081 28.3503 7.92477 28.3487C7.92873 28.347 7.93233 28.3447 7.93536 28.3417C7.93839 28.3387 7.9408 28.3352 7.94244 28.3313C7.94409 28.3274 7.94494 28.3232 7.94495 28.319L7.94737 26.9495Z" fill="#73777A"/>
<path d="M14.5131 28.9382C14.5131 29.0992 14.4482 29.2536 14.3328 29.3674C14.2174 29.4812 14.0609 29.5452 13.8976 29.5452H11.2569C11.0937 29.5452 10.9371 29.4812 10.8217 29.3674C10.7063 29.2536 10.6414 29.0992 10.6414 28.9382V26.3278C10.6414 26.1668 10.7063 26.0125 10.8217 25.8986C10.9371 25.7848 11.0937 25.7208 11.2569 25.7208H13.8976C14.0609 25.7208 14.2174 25.7848 14.3328 25.8986C14.4482 26.0125 14.5131 26.1668 14.5131 26.3278V28.9382ZM13.3011 26.9505C13.3011 26.946 13.3002 26.9415 13.2985 26.9374C13.2967 26.9332 13.2941 26.9294 13.2909 26.9262C13.2877 26.923 13.2838 26.9205 13.2796 26.9188C13.2754 26.917 13.2708 26.9161 13.2662 26.9161H11.8883C11.879 26.9161 11.8702 26.9198 11.8636 26.9262C11.8571 26.9327 11.8534 26.9414 11.8534 26.9505V28.3155C11.8534 28.3246 11.8571 28.3334 11.8636 28.3398C11.8702 28.3463 11.879 28.3499 11.8883 28.3499H13.2662C13.2708 28.3499 13.2754 28.349 13.2796 28.3473C13.2838 28.3455 13.2877 28.343 13.2909 28.3398C13.2941 28.3366 13.2967 28.3328 13.2985 28.3287C13.3002 28.3245 13.3011 28.32 13.3011 28.3155V26.9505Z" fill="#73777A"/>
<path d="M32.4562 31.9664C32.0992 32.2004 31.6224 32.554 31.2328 32.2467C31.1459 32.1785 31.0459 32.0222 30.9327 31.778C30.5951 31.05 30.2581 30.3216 29.9216 29.593C29.7525 29.2282 29.9739 28.9913 30.2861 28.7827C30.704 28.5041 30.9218 28.1102 30.9395 27.6009C30.9471 27.3841 30.9685 27.2416 31.0039 27.1733C31.1237 26.9416 31.3109 26.878 31.58 26.8391C32.349 26.7295 33.1179 26.6206 33.8864 26.5125C34.4708 26.4302 34.7687 26.5693 34.8164 27.1651C34.9703 29.0825 34.0858 30.899 32.4562 31.9664ZM31.9021 30.9012C32.9132 30.1828 33.5666 29.0391 33.6174 27.8049C33.6189 27.7735 33.6037 27.7601 33.5719 27.7646L32.1674 27.9627C32.1411 27.9667 32.1257 27.9816 32.1211 28.0075C32.015 28.616 31.7321 29.1266 31.2722 29.5392C31.2637 29.5471 31.2578 29.5574 31.2555 29.5688C31.2532 29.5802 31.2545 29.5921 31.2594 29.6027L31.8543 30.8885C31.8563 30.8928 31.8591 30.8966 31.8627 30.8996C31.8663 30.9026 31.8706 30.9048 31.8752 30.9061C31.8797 30.9073 31.8845 30.9075 31.8892 30.9066C31.8938 30.9058 31.8983 30.9039 31.9021 30.9012Z" fill="#73777A"/>
<path d="M29.084 29.5818C28.7482 30.4033 28.3518 31.2092 27.9751 32.0143C27.7538 32.4874 27.3036 32.4037 26.9079 32.181C25.0805 31.1531 23.9602 29.1468 24.2142 27.0484C24.2854 26.4572 24.7227 26.4549 25.2313 26.5267C26.0242 26.6378 26.8172 26.7504 27.6106 26.8646C27.7899 26.8905 27.9226 26.9867 28.0085 27.1531C28.1275 27.3841 28.0562 27.6629 28.1169 27.9208C28.2033 28.2851 28.3796 28.5527 28.6459 28.7237C29.0006 28.9509 29.2659 29.137 29.084 29.5818ZM27.1687 30.8803L27.7591 29.6072C27.7648 29.5954 27.7665 29.582 27.7639 29.5692C27.7613 29.5564 27.7546 29.5448 27.7447 29.5362C27.2829 29.1231 27.0007 28.6113 26.8981 28.0008C26.8945 27.9799 26.8822 27.9679 26.8609 27.9649L25.4413 27.7631C25.4351 27.7622 25.4287 27.7626 25.4227 27.7645C25.4167 27.7663 25.4112 27.7695 25.4066 27.7737C25.402 27.778 25.3984 27.7832 25.3962 27.789C25.3939 27.7948 25.393 27.801 25.3935 27.8072C25.4946 29.0994 26.0653 30.129 27.1058 30.896C27.1335 30.9164 27.1545 30.9112 27.1687 30.8803Z" fill="#73777A"/>
<path d="M29.5176 28.3581C29.9236 28.3581 30.2528 28.0335 30.2528 27.633C30.2528 27.2326 29.9236 26.9079 29.5176 26.9079C29.1115 26.9079 28.7824 27.2326 28.7824 27.633C28.7824 28.0335 29.1115 28.3581 29.5176 28.3581Z" fill="#73777A"/>
</g>
</g>
</svg>
