<svg width="40" height="40" viewBox="0 0 40 40" fill="none" xmlns="http://www.w3.org/2000/svg">
<g id="icon-2">
<g id="Vector">
<path d="M2.64835 15.649C2.64939 14.2544 2.64991 12.8592 2.64991 11.4636C2.64991 10.7835 2.94772 10.3551 3.66792 10.3688C3.69979 10.3693 3.71573 10.3532 3.71573 10.3204C3.71729 9.64166 3.71756 8.96615 3.71651 8.29386C3.71599 7.90662 3.74995 7.64039 3.81839 7.49518C4.01353 7.0789 4.37089 7.00226 4.82151 7.00145C5.44689 6.99984 6.07227 6.99957 6.69765 7.00065C7.07487 7.00172 7.33714 7.0426 7.48447 7.12327C7.89356 7.34755 7.93274 7.72914 7.93117 8.20996C7.92908 8.92204 7.92908 9.63225 7.93117 10.3406C7.93117 10.3491 7.93448 10.3573 7.94036 10.3634C7.94623 10.3694 7.95421 10.3728 7.96252 10.3728C8.3157 10.3702 8.66862 10.3704 9.02128 10.3736C9.37969 10.3763 9.64588 10.5584 9.81986 10.9198C10.5832 12.5 11.3483 14.0793 12.1153 15.6578C12.1273 15.6831 12.1469 15.6957 12.174 15.6957C12.6325 15.699 13.0173 15.632 13.3425 16.0426C13.6309 16.4057 13.9191 16.7684 14.2069 17.1309C14.8911 17.9925 15.9679 18.7114 17.0682 18.8162C17.0964 18.8189 17.1105 18.8055 17.1105 18.7759C17.1131 17.8073 17.1131 16.84 17.1105 15.874C17.1094 15.6164 17.2056 15.4322 17.3989 15.3214C17.5081 15.259 17.6883 15.2276 17.9396 15.227C18.6355 15.2254 19.3299 15.2251 20.0227 15.2262C20.0291 15.2262 20.0353 15.2236 20.0398 15.2189C20.0444 15.2142 20.047 15.2078 20.047 15.2012C20.047 14.1836 20.047 13.1655 20.047 12.1469C20.0477 11.5854 20.2358 11.3175 20.7852 11.3175C24.5746 11.3165 28.364 11.3162 32.1533 11.3167C32.7724 11.3167 33.0373 11.4813 33.0373 12.1315C33.0379 13.1566 33.0381 14.1807 33.0381 15.2036C33.0381 15.2065 33.0387 15.2093 33.0397 15.212C33.0408 15.2146 33.0424 15.217 33.0443 15.219C33.0463 15.2211 33.0486 15.2227 33.0512 15.2238C33.0537 15.2248 33.0565 15.2254 33.0593 15.2254C33.7515 15.226 34.4433 15.2262 35.1345 15.2262C35.3842 15.2262 35.5642 15.2566 35.6744 15.3174C35.8724 15.4266 35.9715 15.6089 35.9715 15.8644C35.9715 16.8427 35.9712 17.8317 35.9707 18.8316C35.9707 18.8442 35.9755 18.8563 35.984 18.8652C35.9925 18.8741 36.0041 18.8792 36.0161 18.8792C36.7564 18.8759 37.502 18.8762 38.2528 18.88C38.3912 18.881 38.5414 18.9612 38.7034 19.1204C39.165 19.5746 39.0129 19.9586 38.752 20.5185C37.5895 23.0156 36.4283 25.5087 35.2685 27.9978C35.2636 28.0085 35.2553 28.0172 35.245 28.0223C35.2347 28.0274 35.2231 28.0288 35.2121 28.026C34.6013 27.8711 33.9874 27.8609 33.3704 27.9954C33.3354 28.0029 33.3257 27.99 33.3414 27.9567L34.3304 25.8333C34.332 25.83 34.3327 25.8264 34.3325 25.8227C34.3323 25.8191 34.3311 25.8155 34.3292 25.8124C34.3272 25.8092 34.3245 25.8066 34.3213 25.8048C34.3181 25.8029 34.3145 25.8019 34.3108 25.8018H5.29642C5.28305 25.8019 5.27009 25.8066 5.25969 25.8153C5.24929 25.8239 5.24207 25.836 5.23921 25.8494C5.0924 26.5303 4.85129 27.1752 4.51587 27.784C4.46258 27.8808 4.46258 27.9357 4.46493 28.0446C4.46545 28.0726 4.45265 28.0908 4.42653 28.0995C3.78965 28.3081 3.23376 28.6537 2.75885 29.1361C2.73168 29.1635 2.71757 29.1576 2.71653 29.1184C2.70451 28.6596 2.70399 28.2051 2.71496 27.755C2.72201 27.4637 2.7322 27.3435 2.88424 27.0838C3.6256 25.8113 3.83354 24.4761 3.50805 23.0783C3.43386 22.7577 3.25492 22.2535 2.97123 21.5656C2.33122 20.0129 1.69408 18.4588 1.05982 16.9034C0.961072 16.662 0.984583 16.407 1.13035 16.1386C1.43442 15.578 2.06058 15.7135 2.60838 15.6909C2.63502 15.6898 2.64835 15.6758 2.64835 15.649ZM6.17728 8.83115C6.17728 8.82537 6.17506 8.81983 6.17109 8.81575C6.16712 8.81166 6.16174 8.80937 6.15613 8.80937H5.49626C5.49065 8.80937 5.48527 8.81166 5.4813 8.81575C5.47733 8.81983 5.4751 8.82537 5.4751 8.83115V10.3494C5.4751 10.3552 5.47733 10.3608 5.4813 10.3648C5.48527 10.3689 5.49065 10.3712 5.49626 10.3712H6.15613C6.16174 10.3712 6.16712 10.3689 6.17109 10.3648C6.17506 10.3608 6.17728 10.3552 6.17728 10.3494V8.83115ZM10.1278 15.6957C10.1323 15.6957 10.1367 15.6944 10.1406 15.6921C10.1445 15.6899 10.1478 15.6866 10.1502 15.6826C10.1525 15.6787 10.1539 15.6742 10.1541 15.6696C10.1543 15.665 10.1533 15.6604 10.1514 15.6562L8.47192 12.1969C8.46975 12.1924 8.46641 12.1885 8.46226 12.1858C8.45811 12.1831 8.45332 12.1816 8.44841 12.1816H4.42653C4.41946 12.1816 4.41269 12.1845 4.40769 12.1896C4.40269 12.1947 4.39989 12.2017 4.39989 12.209L4.40067 15.6691C4.40067 15.6764 4.40348 15.6834 4.40847 15.6885C4.41347 15.6937 4.42025 15.6966 4.42731 15.6966L10.1278 15.6957ZM25.9144 12.6366C25.9144 12.6284 25.9113 12.6206 25.9057 12.6149C25.9001 12.6091 25.8925 12.6059 25.8846 12.6059H21.3298C21.322 12.6059 21.3144 12.6091 21.3088 12.6149C21.3032 12.6206 21.3001 12.6284 21.3001 12.6366V15.1956C21.3001 15.2037 21.3032 15.2115 21.3088 15.2172C21.3144 15.223 21.322 15.2262 21.3298 15.2262H25.8846C25.8925 15.2262 25.9001 15.223 25.9057 15.2172C25.9113 15.2115 25.9144 15.2037 25.9144 15.1956V12.6366ZM31.785 12.6325C31.785 12.629 31.7843 12.6256 31.783 12.6223C31.7817 12.6191 31.7798 12.6162 31.7774 12.6137C31.775 12.6112 31.7722 12.6093 31.769 12.6079C31.7659 12.6066 31.7625 12.6059 31.7591 12.6059H27.1918C27.185 12.6059 27.1784 12.6087 27.1735 12.6137C27.1687 12.6187 27.166 12.6255 27.166 12.6325V15.1996C27.166 15.2067 27.1687 15.2134 27.1735 15.2184C27.1784 15.2234 27.185 15.2262 27.1918 15.2262H31.7591C31.7625 15.2262 31.7659 15.2255 31.769 15.2242C31.7722 15.2229 31.775 15.2209 31.7774 15.2184C31.7798 15.216 31.7817 15.213 31.783 15.2098C31.7843 15.2066 31.785 15.2031 31.785 15.1996V12.6325ZM22.9779 16.5485C22.9779 16.5397 22.9746 16.5313 22.9685 16.5251C22.9625 16.5189 22.9543 16.5154 22.9458 16.5154H18.3973C18.3888 16.5154 18.3806 16.5189 18.3746 16.5251C18.3686 16.5313 18.3652 16.5397 18.3652 16.5485V18.8445C18.3652 18.8532 18.3686 18.8617 18.3746 18.8679C18.3806 18.8741 18.3888 18.8775 18.3973 18.8775H22.9458C22.9543 18.8775 22.9625 18.8741 22.9685 18.8679C22.9746 18.8617 22.9779 18.8532 22.9779 18.8445V16.5485ZM28.8485 16.5517C28.8485 16.5421 28.8448 16.5328 28.8382 16.526C28.8316 16.5192 28.8226 16.5154 28.8133 16.5154H24.2679C24.2585 16.5154 24.2496 16.5192 24.243 16.526C24.2363 16.5328 24.2326 16.5421 24.2326 16.5517V18.8412C24.2326 18.8509 24.2363 18.8601 24.243 18.8669C24.2496 18.8737 24.2585 18.8775 24.2679 18.8775H28.8133C28.8226 18.8775 28.8316 18.8737 28.8382 18.8669C28.8448 18.8601 28.8485 18.8509 28.8485 18.8412V16.5517ZM34.7176 16.5517C34.7176 16.5421 34.7138 16.5328 34.7072 16.526C34.7006 16.5192 34.6916 16.5154 34.6823 16.5154H30.1369C30.1276 16.5154 30.1186 16.5192 30.112 16.526C30.1054 16.5328 30.1016 16.5421 30.1016 16.5517V18.8412C30.1016 18.8509 30.1054 18.8601 30.112 18.8669C30.1186 18.8737 30.1276 18.8775 30.1369 18.8775H34.6823C34.6916 18.8775 34.7006 18.8737 34.7072 18.8669C34.7138 18.8601 34.7176 18.8509 34.7176 18.8412V16.5517ZM36.716 20.7105C36.7243 20.6922 36.7186 20.683 36.6987 20.683C30.3979 20.6825 24.0913 20.6828 17.779 20.6839C16.0475 20.6839 14.5651 20.0667 13.3316 18.8324C12.9648 18.4661 12.6066 17.9853 12.2744 17.544C12.2656 17.5322 12.2542 17.5227 12.2412 17.5161C12.2281 17.5095 12.2137 17.5061 12.1991 17.5061H3.24317C3.23961 17.506 3.2361 17.5068 3.23296 17.5086C3.22982 17.5103 3.22715 17.5128 3.2252 17.516C3.22324 17.5191 3.22207 17.5227 3.22179 17.5265C3.22151 17.5303 3.22212 17.5341 3.22357 17.5375C3.77686 18.888 4.32805 20.2375 4.87715 21.5858C5.1901 22.3533 5.36539 23.1474 5.403 23.9681C5.40321 23.9772 5.40685 23.9858 5.41315 23.9921C5.41944 23.9985 5.4279 24.002 5.4367 24.002H35.14C35.1692 24.002 35.1901 23.9883 35.2027 23.9608L36.716 20.7105Z" fill="#73777A"/>
<path d="M7.88994 13.2978L5.495 13.2935C5.1626 13.2929 4.89266 13.5698 4.89208 13.912L4.892 13.9588C4.89142 14.301 5.16042 14.5789 5.49282 14.5795L7.88776 14.5838C8.22017 14.5844 8.4901 14.3075 8.49068 13.9653L8.49076 13.9185C8.49134 13.5763 8.22235 13.2984 7.88994 13.2978Z" fill="#73777A"/>
<path d="M6.33167 20.5596C6.7515 20.5596 7.09185 20.2093 7.09185 19.7771C7.09185 19.3449 6.7515 18.9945 6.33167 18.9945C5.91184 18.9945 5.5715 19.3449 5.5715 19.7771C5.5715 20.2093 5.91184 20.5596 6.33167 20.5596Z" fill="#73777A"/>
<path d="M8.96094 20.5588C9.38034 20.5588 9.72033 20.2088 9.72033 19.7771C9.72033 19.3453 9.38034 18.9953 8.96094 18.9953C8.54154 18.9953 8.20155 19.3453 8.20155 19.7771C8.20155 20.2088 8.54154 20.5588 8.96094 20.5588Z" fill="#73777A"/>
<path d="M11.591 20.5604C12.0108 20.5604 12.3512 20.2101 12.3512 19.7779C12.3512 19.3457 12.0108 18.9953 11.591 18.9953C11.1712 18.9953 10.8308 19.3457 10.8308 19.7779C10.8308 20.2101 11.1712 20.5604 11.591 20.5604Z" fill="#73777A"/>
<path d="M22.677 29.2087C24.0657 28.2043 25.9896 28.3552 27.2036 29.6081C27.6518 30.0703 28.2161 30.7827 28.7224 31.0255C29.3901 31.345 30.1926 31.1998 30.7255 30.6544C31.0327 30.3392 31.3373 30.0211 31.6392 29.7C33.0687 28.1809 35.3382 28.1567 36.7834 29.6694C37.3011 30.212 37.8173 30.7561 38.3319 31.3014C38.4965 31.4762 38.6015 31.6198 38.647 31.7322C38.8836 32.3139 38.4855 32.9423 37.8805 32.9746C37.5388 32.9932 37.3398 32.8415 37.0906 32.5769C36.658 32.1176 36.2246 31.6591 35.7904 31.2014C35.4576 30.8496 35.1943 30.6256 35.0005 30.5294C34.3006 30.1809 33.4535 30.3575 32.9112 30.9465C32.4386 31.4587 31.901 32.0807 31.3791 32.4284C29.9669 33.3723 28.126 33.1126 26.9528 31.9041C26.7224 31.6669 26.4928 31.4286 26.2639 31.1893C25.7334 30.6351 25.3549 30.3261 24.6362 30.3559C23.688 30.3946 23.1151 31.2417 22.5109 31.8782C21.2476 33.2094 19.2476 33.3764 17.8056 32.2477C17.3863 31.9194 16.9099 31.3635 16.4851 30.9198C15.9185 30.3269 15.0533 30.1744 14.3409 30.5745C14.1941 30.6568 14.0026 30.8206 13.7665 31.0659C13.4964 31.3461 13.2265 31.626 12.957 31.9057C11.7422 33.1666 9.81751 33.3707 8.39747 32.3341C8.00562 32.0485 7.6177 31.6015 7.2525 31.2167C6.9244 30.8704 6.67702 30.6515 6.51035 30.56C5.9892 30.2744 5.31131 30.2873 4.79251 30.5923C4.6457 30.6783 4.45892 30.8437 4.23218 31.0884C3.7604 31.5983 3.2928 32.1127 2.82938 32.6317C2.50807 32.9916 2.13869 33.0779 1.72125 32.8907C1.18677 32.6519 1.07079 31.8944 1.48066 31.4466C2.01931 30.8588 2.56057 30.2731 3.10445 29.6895C4.38578 28.3157 6.43277 28.1608 7.88807 29.3418C8.22192 29.6121 8.58555 30.0348 8.9194 30.3874C9.2031 30.687 9.42383 30.8811 9.58162 30.9699C10.084 31.2546 10.7321 31.2627 11.2446 30.9957C11.7117 30.7528 12.2203 30.1179 12.6129 29.696C13.8198 28.3996 15.7171 28.1704 17.1732 29.166C17.587 29.4491 17.9835 29.9041 18.3558 30.2994C18.7027 30.6673 18.9623 30.8975 19.1347 30.99C19.6582 31.2724 20.3416 31.2546 20.8596 30.9416C20.9944 30.8599 21.1705 30.7044 21.3878 30.4753C21.7985 30.0429 22.2452 29.5217 22.677 29.2087Z" fill="#73777A"/>
</g>
</g>
</svg>
