<svg width="40" height="40" viewBox="0 0 40 40" fill="none" xmlns="http://www.w3.org/2000/svg">
<g id="icon-5">
<g id="Vector">
<path d="M13.7112 18.3966C13.2294 18.4051 12.741 18.4072 12.2459 18.403C12.0595 18.4008 11.9151 18.364 11.7344 18.2796C10.9748 17.9273 10.2134 17.5748 9.45041 17.2221C9.42527 17.2107 9.40085 17.2124 9.37714 17.227L5.79069 19.4661C5.6991 19.5231 5.59337 19.5534 5.48554 19.5534C4.86812 19.5534 4.23481 19.5519 3.58561 19.5491C3.22996 19.5477 2.96179 19.2654 3.00447 18.915C3.01633 18.8195 3.08011 18.6885 3.19581 18.5221C3.91709 17.4833 4.64334 16.4398 5.37457 15.3915C5.37834 15.3861 5.38089 15.3799 5.38203 15.3733C5.38318 15.3668 5.38289 15.3602 5.3812 15.3538C5.3795 15.3475 5.37644 15.3416 5.37222 15.3366C5.36801 15.3316 5.36274 15.3276 5.35679 15.3249C4.80671 15.0728 4.25401 14.817 3.69871 14.5575C3.36724 14.4021 3.09552 14.1908 3.09338 13.8298C3.09006 13.4099 3.08959 12.9903 3.09196 12.5709C3.0941 12.1212 3.3146 11.9262 3.72574 11.7453C4.12218 11.5708 4.5191 11.3992 4.91648 11.2304C4.9383 11.2209 4.94565 11.2049 4.93854 11.1822C4.35383 9.28566 3.76913 7.39293 3.18443 5.50398C3.1133 5.27277 3.08912 5.08742 3.11188 4.94793C3.19866 4.42238 3.60767 4.29259 4.11199 4.29047C4.65401 4.28857 5.19579 4.28928 5.73734 4.29259C5.99294 4.29401 6.20491 4.38905 6.37326 4.57771C7.96281 6.35932 9.54762 8.13763 11.1277 9.91263C11.1405 9.92712 11.1562 9.93872 11.1739 9.94667C11.1915 9.95462 11.2107 9.95873 11.2301 9.95873L15.9966 9.95518C16.0275 9.95518 16.0334 9.94312 16.0144 9.91901C14.561 8.09248 13.1075 6.26641 11.6541 4.44082C11.5037 4.25169 11.4136 4.09944 11.3838 3.98407C11.2899 3.62094 11.4969 3.19894 11.8511 3.06135C11.9531 3.02163 12.124 3.00154 12.364 3.00106C13.8776 2.99965 15.3913 2.99965 16.905 3.00106C17.1445 3.00154 17.3474 3.07506 17.5139 3.22164C20.0504 5.45953 22.587 7.69719 25.1235 9.93461C25.1409 9.95017 25.1635 9.95876 25.1868 9.95873C26.3344 9.95731 27.4801 9.95755 28.6239 9.95944C29.2565 9.96038 29.73 9.97504 30.0444 10.0034C31.578 10.1401 33.0191 10.5691 34.3678 11.2907C34.7839 11.5127 35.4895 11.8794 35.8743 12.1957C37.6875 13.6879 37.1953 16.4752 35.0798 17.3923C34.7697 17.5266 34.0522 17.7502 32.9274 18.0632C32.1743 18.2727 31.2911 18.38 30.2777 18.3852C27.7805 18.3985 25.2869 18.4051 22.7968 18.4051C22.7688 18.4051 22.7442 18.4143 22.7228 18.4327C20.3143 20.5614 17.9008 22.6915 15.4824 24.823C15.3112 24.9739 15.1096 25.049 14.8777 25.0486C13.3128 25.0448 11.748 25.0408 10.1831 25.0365C9.46463 25.0344 9.06132 24.3017 9.51514 23.7322C10.9164 21.9747 12.3225 20.2111 13.7332 18.4413C13.7364 18.4372 13.7384 18.4322 13.739 18.4271C13.7395 18.4219 13.7386 18.4167 13.7363 18.412C13.734 18.4074 13.7304 18.4034 13.726 18.4007C13.7215 18.398 13.7164 18.3965 13.7112 18.3966ZM18.073 9.95093C18.0751 9.95358 18.0778 9.95573 18.0809 9.9572C18.084 9.95867 18.0873 9.95944 18.0908 9.95944L22.683 9.95589C22.6876 9.95587 22.6921 9.95445 22.6959 9.95182C22.6997 9.94919 22.7026 9.94547 22.7042 9.94116C22.7058 9.93686 22.7061 9.93216 22.705 9.9277C22.7039 9.92323 22.7014 9.91922 22.6979 9.91617L16.6674 4.59686C16.6633 4.59323 16.658 4.59121 16.6525 4.59118H13.8549C13.8506 4.59118 13.8464 4.59239 13.8427 4.59466C13.8391 4.59694 13.8362 4.60019 13.8343 4.60405C13.8325 4.6079 13.8318 4.6122 13.8322 4.61645C13.8327 4.6207 13.8344 4.62473 13.8371 4.62806L18.073 9.95093ZM6.64142 11.3013C6.78298 11.7602 6.69264 12.1893 6.21748 12.3964C5.71102 12.6167 5.22448 12.8278 4.75786 13.0297C4.7321 13.041 4.71014 13.0594 4.6946 13.0828C4.67906 13.1062 4.6706 13.1335 4.67022 13.1616C4.66985 13.1896 4.67758 13.2172 4.69249 13.241C4.7074 13.2648 4.72886 13.2838 4.75431 13.2957C5.34043 13.5666 5.9422 13.8456 6.55962 14.1326C6.66347 14.1808 6.77254 14.205 6.88683 14.205C8.61343 14.2069 10.34 14.2071 12.0666 14.2057C12.2487 14.2057 12.3782 14.2203 12.455 14.2496C12.7644 14.3688 12.8967 14.7972 12.7225 15.0639C12.6684 15.1466 12.5446 15.248 12.3511 15.3681C11.9168 15.6376 11.4855 15.9081 11.0573 16.1795C11.0539 16.1816 11.0512 16.1845 11.0494 16.188C11.0476 16.1915 11.0468 16.1955 11.0471 16.1995C11.0474 16.2034 11.0488 16.2073 11.051 16.2107C11.0533 16.214 11.0565 16.2167 11.0601 16.2185C11.4333 16.3887 11.8068 16.5613 12.1804 16.7362C12.2838 16.7845 12.3924 16.8091 12.5062 16.81C13.3332 16.8143 14.1614 16.814 14.9908 16.8093C15.0021 16.8093 15.0133 16.8068 15.0234 16.802C15.0335 16.7972 15.0423 16.7903 15.0492 16.7816C15.5684 16.1301 16.0915 15.4816 16.6183 14.8362C17.287 14.0184 18.4955 15.0092 17.8112 15.8688C15.8034 18.3904 13.7984 20.9104 11.7963 23.4286C11.7946 23.431 11.7935 23.4337 11.7932 23.4366C11.7928 23.4395 11.7933 23.4424 11.7945 23.4449C11.7957 23.4475 11.7975 23.4497 11.7999 23.4512C11.8022 23.4527 11.8049 23.4535 11.8077 23.4535L14.5761 23.4549C14.6092 23.4549 14.641 23.443 14.6658 23.4216C17.8833 20.5813 21.1048 17.7396 24.3304 14.8965C24.5229 14.7272 24.6692 14.6227 24.7693 14.583C25.4194 14.3248 26.0689 15.0674 25.7516 15.6823C25.7023 15.7773 25.5833 15.9088 25.3945 16.0766C25.1276 16.3145 24.8615 16.5488 24.5964 16.7795C24.5713 16.8013 24.5753 16.8121 24.6085 16.8121C26.2877 16.8117 27.97 16.8114 29.6553 16.8114C30.3064 16.811 30.7801 16.7975 31.0765 16.771C32.231 16.6667 33.463 16.2738 34.3841 15.9518C35.2334 15.6554 35.6055 14.7504 35.2555 13.9411C35.2502 13.9289 35.2414 13.9185 35.2301 13.9112C35.2189 13.9038 35.2057 13.9 35.1922 13.9C34.1916 13.9005 33.1877 13.9026 32.1805 13.9064C31.3859 13.9085 31.3113 12.7702 32.2175 12.7673C32.6903 12.7659 33.1602 12.765 33.6273 12.7645C33.6965 12.7645 33.7006 12.7479 33.6394 12.7148C32.4392 12.0628 31.1524 11.6834 29.7791 11.5765C29.5126 11.5552 29.0386 11.5446 28.3572 11.5446C22.5571 11.5441 16.7568 11.5441 10.9563 11.5446C10.6362 11.5446 10.4071 11.4971 10.2065 11.2708C8.61366 9.48212 7.02056 7.69317 5.42721 5.90399C5.41061 5.88508 5.38975 5.87562 5.36461 5.87562L4.99117 5.87491C4.98832 5.87492 4.98551 5.87558 4.98296 5.87685C4.98041 5.87811 4.97818 5.87995 4.97646 5.88222C4.97474 5.88448 4.97357 5.88712 4.97303 5.88991C4.9725 5.8927 4.97262 5.89558 4.97339 5.89832C5.53201 7.70452 6.08802 9.50552 6.64142 11.3013ZM10.1902 15.3816C10.1941 15.379 10.1971 15.3753 10.1988 15.3709C10.2005 15.3665 10.2007 15.3617 10.1994 15.3572C10.1981 15.3527 10.1955 15.3487 10.1917 15.3458C10.188 15.3429 10.1835 15.3413 10.1788 15.3412H6.80432C6.80083 15.3412 6.7974 15.342 6.79431 15.3436C6.79122 15.3452 6.78856 15.3476 6.78653 15.3504L4.67819 18.3817C4.67581 18.385 4.67441 18.3889 4.67414 18.393C4.67387 18.3971 4.67474 18.4012 4.67666 18.4048C4.67858 18.4084 4.68148 18.4114 4.68501 18.4134C4.68855 18.4155 4.69259 18.4165 4.69669 18.4164L5.31126 18.4221C5.31556 18.4221 5.31976 18.4209 5.32336 18.4186L10.1902 15.3816Z" fill="#D08935"/>
<path d="M23.358 27.355C23.3623 25.0727 23.3625 22.7901 23.3588 20.5073C23.3578 20.1787 23.3882 19.9515 23.4498 19.8257C23.6212 19.4746 23.9271 19.3966 24.3233 19.3966C26.876 19.3961 29.4284 19.3961 31.9806 19.3966C32.6955 19.3966 32.9828 19.6697 32.9828 20.3725C32.9833 22.7073 32.9833 25.0412 32.9828 27.3742C32.9828 27.3902 32.9911 27.3983 33.0077 27.3983C33.9557 27.3983 34.9058 27.3983 35.858 27.3983C36.198 27.3988 36.4311 27.4285 36.5572 27.4876C36.9193 27.6586 36.9996 27.9749 36.9996 28.3777C37.0001 30.9007 37.0001 33.4238 36.9996 35.9468C36.9996 36.7589 36.7108 37 35.9291 37C30.7906 37 25.6518 37 20.5128 37C20.1548 37.0005 19.9115 36.9704 19.783 36.9099C19.3925 36.7269 19.3434 36.3808 19.3434 35.9524C19.3439 33.4862 19.3441 31.0199 19.3441 28.5536C19.3441 28.1938 19.3792 27.9463 19.4494 27.8111C19.6507 27.4231 20.0163 27.3947 20.4566 27.3969C21.4102 27.403 22.3641 27.4023 23.3182 27.3947C23.3448 27.3947 23.358 27.3815 23.358 27.355ZM31.3931 27.3869L31.3923 21.0123C31.3923 21.0049 31.3894 20.9979 31.3842 20.9927C31.379 20.9875 31.372 20.9846 31.3646 20.9846L30.1511 20.9825C30.1417 20.9825 30.1326 20.9861 30.126 20.9927C30.1193 20.9992 30.1155 21.008 30.1155 21.0172C30.1165 21.5974 30.1165 22.1731 30.1155 22.7442C30.1141 23.2996 29.8893 23.4641 29.3324 23.4648C28.5409 23.4662 27.7495 23.466 26.958 23.4641C26.3833 23.4634 26.2559 23.2038 26.2581 22.6542C26.26 22.1118 26.2597 21.5667 26.2574 21.0186C26.2574 20.9945 26.2453 20.9825 26.2211 20.9825L24.9791 20.9839C24.9721 20.9839 24.9655 20.9867 24.9605 20.9916C24.9556 20.9965 24.9528 21.0032 24.9528 21.0101V27.372C24.9528 27.379 24.9556 27.3857 24.9605 27.3906C24.9655 27.3955 24.9721 27.3983 24.9791 27.3983H31.3817C31.3893 27.3983 31.3931 27.3945 31.3931 27.3869ZM28.9774 21.0087C28.9774 21.0054 28.9768 21.002 28.9755 20.9989C28.9742 20.9958 28.9723 20.993 28.9699 20.9907C28.9676 20.9883 28.9647 20.9864 28.9616 20.9851C28.9585 20.9838 28.9552 20.9832 28.9518 20.9832H27.4225C27.4191 20.9832 27.4158 20.9838 27.4127 20.9851C27.4096 20.9864 27.4068 20.9883 27.4044 20.9907C27.402 20.993 27.4001 20.9958 27.3988 20.9989C27.3976 21.002 27.3969 21.0054 27.3969 21.0087V22.3066C27.3969 22.3134 27.3996 22.3199 27.4044 22.3247C27.4092 22.3295 27.4157 22.3322 27.4225 22.3322H28.9518C28.9586 22.3322 28.9651 22.3295 28.9699 22.3247C28.9747 22.3199 28.9774 22.3134 28.9774 22.3066V21.0087ZM26.081 30.975C26.0753 31.2892 25.7794 31.4729 25.4941 31.4729C24.6714 31.4738 23.8484 31.4743 23.0251 31.4743C22.5699 31.4736 22.2356 31.353 22.2391 30.8509C22.2434 30.2442 22.2434 29.6357 22.2391 29.0253C22.2391 29.0016 22.2271 28.9898 22.2029 28.9898L20.9758 28.9891C20.9507 28.9891 20.9381 29.0016 20.9381 29.0267L20.9374 35.3709C20.9374 35.381 20.9414 35.3908 20.9485 35.3979C20.9555 35.4051 20.9651 35.4092 20.9751 35.4092H27.3599C27.3646 35.4092 27.3691 35.4074 27.3725 35.4042C27.3758 35.401 27.3777 35.3967 27.3777 35.3921L27.377 29.0061C27.377 29.0016 27.3752 28.9973 27.372 28.9941C27.3688 28.9909 27.3644 28.9891 27.3599 28.9891H26.1364C26.1137 28.9891 26.1023 29.0002 26.1023 29.0224C26.0994 29.6754 26.0923 30.3263 26.081 30.975ZM24.9628 29.0189C24.9628 29.011 24.9596 29.0034 24.954 28.9978C24.9484 28.9922 24.9408 28.9891 24.9329 28.9891H23.4093C23.4013 28.9891 23.3937 28.9922 23.3881 28.9978C23.3825 29.0034 23.3794 29.011 23.3794 29.0189V30.3111C23.3794 30.319 23.3825 30.3266 23.3881 30.3322C23.3937 30.3378 23.4013 30.3409 23.4093 30.3409H24.9329C24.9408 30.3409 24.9484 30.3378 24.954 30.3322C24.9596 30.3266 24.9628 30.319 24.9628 30.3111V29.0189ZM34.1352 30.8509C34.1373 31.1424 33.9282 31.4729 33.6031 31.4736C32.7154 31.4755 31.8277 31.4752 30.9399 31.4729C30.4598 31.4715 30.2777 31.2438 30.277 30.7636C30.2761 30.1849 30.2756 29.6052 30.2756 29.0246C30.2756 29.0009 30.2637 28.9891 30.24 28.9891H29.0094C28.9815 28.9891 28.9675 29.0031 28.9675 29.031L28.9682 35.3765C28.9682 35.3852 28.9716 35.3935 28.9778 35.3996C28.9839 35.4057 28.9922 35.4092 29.0009 35.4092H35.3771C35.3854 35.4092 35.3934 35.4058 35.3993 35.3998C35.4051 35.3938 35.4084 35.3857 35.4084 35.3773V29.0033C35.4084 28.9943 35.4039 28.9898 35.3949 28.9898L34.1722 28.9891C34.1466 28.9891 34.1335 29.0021 34.133 29.0281C34.1311 29.6376 34.1319 30.2452 34.1352 30.8509ZM32.9938 29.0182C32.9938 29.0101 32.9906 29.0024 32.9848 28.9967C32.9791 28.991 32.9713 28.9878 32.9632 28.9878L31.4424 28.9904C31.4384 28.9904 31.4344 28.9912 31.4307 28.9928C31.427 28.9943 31.4236 28.9966 31.4208 28.9994C31.4179 29.0022 31.4157 29.0056 31.4142 29.0093C31.4126 29.013 31.4118 29.017 31.4118 29.021L31.4141 30.3118C31.4141 30.3199 31.4174 30.3276 31.4231 30.3333C31.4288 30.3391 31.4366 30.3423 31.4447 30.3422L32.9655 30.3396C32.9695 30.3396 32.9735 30.3388 32.9772 30.3373C32.9809 30.3357 32.9843 30.3335 32.9871 30.3306C32.99 30.3278 32.9922 30.3244 32.9938 30.3207C32.9953 30.317 32.9961 30.3131 32.9961 30.309L32.9938 29.0182Z" fill="#D08935"/>
</g>
</g>
</svg>
