<svg width="40" height="40" viewBox="0 0 40 40" fill="none" xmlns="http://www.w3.org/2000/svg">
<g id="icon-1">
<g id="Vector">
<path d="M22.287 11.924C22.7913 11.9271 23.2978 11.9277 23.8066 11.926C24.2846 11.924 24.6441 11.9325 24.8429 12.348C24.8933 12.4539 24.9185 12.6112 24.9185 12.8199C24.9194 13.257 24.9196 13.6904 24.9192 14.1201C24.9192 14.1415 24.9299 14.1522 24.9513 14.1522C27.8959 14.1518 30.841 14.1516 33.7865 14.1516C34.0962 14.1516 34.3135 14.1846 34.4385 14.2507C34.7812 14.4305 34.8214 14.7337 34.8214 15.1183C34.8214 18.8843 34.8214 22.6365 34.8214 26.375C34.8214 26.4074 34.8357 26.4316 34.8643 26.4478C35.4917 26.8005 35.8619 27.3024 35.9748 27.9534C36.1469 28.9504 35.4152 29.8988 34.4378 30.1265C34.1533 30.1928 33.8066 30.1797 33.4973 30.1771C33.4709 30.1766 33.4631 30.1882 33.4738 30.2119C33.9197 31.1767 33.7945 32.2294 33.115 33.038C31.6952 34.7267 28.8956 34.0612 28.4083 31.9006C28.4047 31.8835 28.394 31.875 28.3761 31.875H27.5795C27.5541 31.875 27.538 31.887 27.5313 31.9111C26.9181 34.2765 23.7517 34.7858 22.5287 32.6134C22.0975 31.8468 22.1143 31.0237 22.4651 30.2125C22.4758 30.188 22.4675 30.1758 22.4403 30.1758L17.5514 30.1771C17.522 30.1771 17.5135 30.19 17.526 30.2158C18.1298 31.4773 17.6565 32.9776 16.4107 33.6595C14.8014 34.5416 12.8788 33.6234 12.4598 31.8973C12.458 31.8909 12.4541 31.8852 12.4488 31.8811C12.4435 31.8771 12.437 31.8749 12.4303 31.875H11.629C11.6022 31.875 11.5857 31.8877 11.5795 31.9131C11.2488 33.2815 9.95074 34.1846 8.51481 33.9523C6.71203 33.6609 5.77282 31.8212 6.52125 30.2033C6.52237 30.2007 6.52283 30.1979 6.5226 30.195C6.52237 30.1922 6.52145 30.1895 6.51992 30.1872C6.51839 30.1848 6.5163 30.1829 6.51384 30.1816C6.51139 30.1803 6.50864 30.1796 6.50585 30.1797C6.13432 30.1758 5.72864 30.204 5.36514 30.0793C3.63533 29.4879 3.55299 27.2833 5.13887 26.4531C5.16074 26.4417 5.17167 26.424 5.17167 26.3999C5.17212 22.6619 5.1719 18.9316 5.17101 15.2089C5.17101 14.8912 5.19957 14.6736 5.25669 14.5559C5.42204 14.2146 5.73065 14.1516 6.11758 14.1516C9.09208 14.1516 12.0628 14.1518 15.0297 14.1522C15.0407 14.1522 15.0513 14.1479 15.0591 14.1403C15.0668 14.1327 15.0712 14.1223 15.0712 14.1115C15.0712 13.6989 15.0719 13.2841 15.0732 12.8671C15.0741 12.6099 15.1067 12.423 15.171 12.3066C15.3584 11.9686 15.6643 11.9273 16.0613 11.9312C16.6067 11.9365 17.152 11.9356 17.6974 11.9286C17.7291 11.9282 17.7324 11.9185 17.7074 11.8997C17.0933 11.4385 16.4766 10.983 15.8571 10.5332C15.5545 10.314 15.368 10.1375 15.2975 10.0036C15.0612 9.55466 15.3745 9.24094 15.7172 8.90818C16.2001 8.43825 16.6792 7.96854 17.1545 7.49905C17.1573 7.49639 17.1591 7.49299 17.1598 7.48927C17.1606 7.48555 17.1601 7.48169 17.1585 7.47816C17.1569 7.47464 17.1543 7.47163 17.151 7.4695C17.1476 7.46738 17.1437 7.46624 17.1397 7.46623C13.0245 7.46754 8.91691 7.47148 4.81688 7.47805C3.97273 7.47936 3.67215 6.38395 4.45003 6.05973C4.5442 6.02035 4.69125 6.00066 4.89118 6.00066C14.9375 5.99978 24.9839 5.99978 35.0303 6.00066C35.2976 6.00066 35.4893 6.03172 35.6053 6.09385C36.1288 6.37279 36.1067 7.14135 35.5779 7.38157C35.4502 7.43976 35.2333 7.46864 34.9272 7.4682C30.899 7.46733 26.8739 7.46733 22.852 7.4682C22.8234 7.4682 22.8192 7.47805 22.8393 7.49774C23.3101 7.96285 23.7847 8.42819 24.2632 8.89374C24.526 9.15014 24.6822 9.34748 24.7318 9.48575C24.8904 9.93008 24.5918 10.1998 24.2297 10.4663C23.5781 10.9459 22.9279 11.4243 22.279 11.9017C22.2769 11.9033 22.2753 11.9055 22.2746 11.908C22.2738 11.9105 22.2739 11.9132 22.2748 11.9157C22.2757 11.9181 22.2773 11.9203 22.2795 11.9218C22.2817 11.9233 22.2843 11.924 22.287 11.924ZM17.1404 9.59207C17.1371 9.59532 17.1345 9.59924 17.1328 9.60356C17.1311 9.60788 17.1304 9.6125 17.1308 9.61711C17.1311 9.62171 17.1324 9.6262 17.1346 9.63026C17.1369 9.63432 17.14 9.63786 17.1438 9.64064L19.9781 11.7304C19.9838 11.7344 19.9906 11.7366 19.9975 11.7366C20.0045 11.7366 20.0113 11.7344 20.017 11.7304L22.85 9.64195C22.8538 9.63918 22.8569 9.63564 22.8591 9.63158C22.8614 9.62751 22.8627 9.62303 22.863 9.61842C22.8633 9.61381 22.8626 9.60919 22.8609 9.60487C22.8593 9.60055 22.8567 9.59663 22.8533 9.59338L20.6971 7.47805C20.691 7.4722 20.6829 7.46891 20.6743 7.46886L19.3234 7.46558C19.3149 7.46563 19.3068 7.46892 19.3007 7.47476L17.1404 9.59207ZM23.423 13.427C23.423 13.4195 23.42 13.4123 23.4146 13.407C23.4092 13.4017 23.4019 13.3988 23.3942 13.3988H16.5982C16.5905 13.3988 16.5832 13.4017 16.5778 13.407C16.5724 13.4123 16.5694 13.4195 16.5694 13.427V14.124C16.5694 14.1277 16.5701 14.1314 16.5716 14.1348C16.573 14.1382 16.5752 14.1413 16.5778 14.144C16.5805 14.1466 16.5837 14.1487 16.5872 14.1501C16.5907 14.1515 16.5944 14.1522 16.5982 14.1522H23.3942C23.398 14.1522 23.4018 14.1515 23.4053 14.1501C23.4087 14.1487 23.4119 14.1466 23.4146 14.144C23.4173 14.1413 23.4194 14.1382 23.4208 14.1348C23.4223 14.1314 23.423 14.1277 23.423 14.124V13.427ZM33.3192 15.6388C33.3192 15.6332 33.3169 15.6279 33.3129 15.624C33.3089 15.62 33.3035 15.6178 33.2978 15.6178H6.69463C6.68895 15.6178 6.6835 15.62 6.67948 15.624C6.67546 15.6279 6.67321 15.6332 6.67321 15.6388V26.1466C6.67321 26.1521 6.67546 26.1575 6.67948 26.1614C6.6835 26.1654 6.68895 26.1676 6.69463 26.1676H33.2978C33.3035 26.1676 33.3089 26.1654 33.3129 26.1614C33.3169 26.1575 33.3192 26.1521 33.3192 26.1466V15.6388ZM34.4874 28.2166C34.4874 28.0878 34.4352 27.9643 34.3423 27.8732C34.2494 27.7821 34.1234 27.7309 33.992 27.7309H6.00043C5.86905 27.7309 5.74305 27.7821 5.65014 27.8732C5.55724 27.9643 5.50505 28.0878 5.50505 28.2166V28.2232C5.50505 28.352 5.55724 28.4755 5.65014 28.5666C5.74305 28.6577 5.86905 28.7089 6.00043 28.7089H33.992C34.1234 28.7089 34.2494 28.6577 34.3423 28.5666C34.4352 28.4755 34.4874 28.352 34.4874 28.2232V28.2166ZM11.4094 30.1777C11.4061 30.1778 11.4029 30.1786 11.4 30.1801C11.3971 30.1816 11.3946 30.1837 11.3927 30.1863C11.3908 30.189 11.3896 30.192 11.3891 30.1952C11.3886 30.1983 11.389 30.2016 11.39 30.2046L11.5995 30.8111C11.6009 30.8151 11.6035 30.8185 11.607 30.821C11.6105 30.8235 11.6147 30.8248 11.619 30.8249L12.427 30.8242C12.4313 30.8242 12.4354 30.8228 12.4389 30.8203C12.4424 30.8179 12.445 30.8144 12.4464 30.8104L12.6559 30.2046C12.657 30.2016 12.6573 30.1983 12.6568 30.1952C12.6563 30.192 12.6551 30.189 12.6532 30.1863C12.6513 30.1837 12.6488 30.1816 12.6459 30.1801C12.643 30.1786 12.6398 30.1778 12.6365 30.1777H11.4094ZM24.468 31.5757C24.3328 31.2594 24.5269 30.8268 24.9333 30.8255C25.2622 30.8246 25.5915 30.8242 25.9213 30.8242C25.9255 30.8241 25.9295 30.823 25.933 30.821C25.9366 30.8189 25.9396 30.816 25.9416 30.8125C25.9437 30.809 25.9449 30.8051 25.9449 30.801C25.945 30.797 25.944 30.793 25.9421 30.7894C25.5478 30.0924 24.6153 29.9723 24.0396 30.5367C23.3413 31.2219 23.7745 32.4151 24.7773 32.5103C25.2709 32.5571 25.6616 32.3563 25.9494 31.9078C25.9515 31.9048 25.9526 31.9012 25.9527 31.8976C25.9528 31.894 25.9519 31.8903 25.95 31.8871C25.9482 31.8839 25.9455 31.8812 25.9422 31.8793C25.9389 31.8774 25.9352 31.8764 25.9314 31.8763C25.6618 31.875 25.3907 31.8746 25.118 31.875C24.8342 31.875 24.5785 31.8336 24.468 31.5757ZM27.3546 30.1771C27.3513 30.1771 27.3481 30.1779 27.3452 30.1794C27.3423 30.1809 27.3398 30.183 27.3379 30.1857C27.336 30.1883 27.3347 30.1913 27.3343 30.1945C27.3338 30.1977 27.3341 30.2009 27.3352 30.204L27.548 30.8117C27.5494 30.8157 27.552 30.8192 27.5555 30.8217C27.559 30.8241 27.5632 30.8255 27.5675 30.8255L28.3728 30.8242C28.3771 30.8242 28.3813 30.8228 28.3847 30.8203C28.3882 30.8179 28.3908 30.8144 28.3922 30.8104L28.6031 30.2046C28.6041 30.2016 28.6044 30.1983 28.604 30.1952C28.6035 30.192 28.6023 30.189 28.6004 30.1863C28.5985 30.1837 28.596 30.1816 28.5931 30.1801C28.5902 30.1786 28.5869 30.1778 28.5837 30.1777L27.3546 30.1771ZM8.13993 32.211C8.71899 32.7203 9.62138 32.5864 9.99224 31.9111C10.0047 31.8879 9.9976 31.8763 9.97082 31.8763C9.6544 31.8745 9.33776 31.8735 9.0209 31.873C8.89058 31.873 8.79061 31.8568 8.72099 31.8245C8.30996 31.6341 8.3113 31.046 8.7317 30.8747C8.81471 30.8406 8.95195 30.8238 9.1434 30.8242C9.42412 30.8251 9.70349 30.8249 9.98153 30.8236C9.98506 30.8236 9.98852 30.8226 9.99158 30.8209C9.99463 30.8192 9.99717 30.8167 9.99893 30.8137C10.0007 30.8107 10.0016 30.8073 10.0016 30.8039C10.0016 30.8004 10.0007 30.797 9.99894 30.794C9.67895 30.2421 8.97939 30.0123 8.40168 30.3044C7.66329 30.6779 7.52472 31.6689 8.13993 32.211ZM15.0926 30.8341C15.8176 30.8459 15.8377 31.873 15.0016 31.873C14.6936 31.873 14.3835 31.8741 14.0711 31.8763C14.0434 31.8763 14.0365 31.8881 14.0503 31.9117C14.3114 32.3594 14.7813 32.5845 15.3035 32.4992C16.309 32.3357 16.6383 31.0854 15.8605 30.4547C15.2653 29.971 14.4132 30.1489 14.0463 30.798C14.0448 30.8004 14.044 30.8032 14.044 30.8061C14.044 30.8089 14.0448 30.8118 14.0462 30.8143C14.0477 30.8168 14.0499 30.8189 14.0525 30.8204C14.0551 30.8219 14.058 30.8228 14.061 30.8229C14.4029 30.8246 14.7468 30.8284 15.0926 30.8341ZM31.3397 30.8833C31.8578 31.1235 31.651 31.8881 31.0913 31.8776C30.7379 31.8711 30.3811 31.8711 30.0209 31.8776C29.9955 31.8781 29.9888 31.8894 30.0008 31.9117C30.5243 32.8562 31.9716 32.6521 32.2106 31.6125C32.2901 31.269 32.2187 30.9507 31.9964 30.6575C31.4502 29.9369 30.4353 30.0642 29.9935 30.7927C29.9916 30.7959 29.9906 30.7994 29.9906 30.8031C29.9906 30.8067 29.9915 30.8103 29.9934 30.8135C29.9952 30.8167 29.9978 30.8193 30.001 30.8212C30.0042 30.8231 30.0078 30.8241 30.0116 30.8242C30.3298 30.8242 30.6491 30.8246 30.9695 30.8255C31.1342 30.826 31.2576 30.8452 31.3397 30.8833Z" fill="#D08935"/>
<path d="M9.90522 17.0637H9.87442C9.46921 17.0637 9.14073 17.3857 9.14073 17.783V24.005C9.14073 24.4023 9.46921 24.7243 9.87442 24.7243H9.90522C10.3104 24.7243 10.6389 24.4023 10.6389 24.005V17.783C10.6389 17.3857 10.3104 17.0637 9.90522 17.0637Z" fill="#D08935"/>
<path d="M13.9547 17.065L13.9226 17.065C13.5181 17.0643 13.1897 17.3852 13.189 17.7817L13.1779 24.005C13.1772 24.4016 13.5045 24.7236 13.909 24.7243L13.9411 24.7243C14.3456 24.725 14.674 24.4041 14.6747 24.0076L14.6858 17.7843C14.6865 17.3878 14.3592 17.0657 13.9547 17.065Z" fill="#D08935"/>
<path d="M17.9831 17.065L17.9523 17.065C17.5475 17.0657 17.2199 17.388 17.2206 17.785L17.2316 24.0069C17.2323 24.4038 17.5611 24.725 17.9659 24.7243L17.9967 24.7243C18.4016 24.7236 18.7292 24.4013 18.7285 24.0044L18.7174 17.7824C18.7167 17.3855 18.3879 17.0643 17.9831 17.065Z" fill="#D08935"/>
<path d="M22.0408 17.065L22.0086 17.065C21.6038 17.0643 21.275 17.3855 21.2743 17.7824L21.2633 24.0044C21.2626 24.4013 21.5902 24.7236 21.995 24.7243L22.0271 24.7243C22.432 24.725 22.7607 24.4038 22.7614 24.0069L22.7725 17.785C22.7732 17.388 22.4456 17.0657 22.0408 17.065Z" fill="#D08935"/>
<path d="M26.0753 17.063H26.0445C25.64 17.063 25.3122 17.3845 25.3122 17.781V24.007C25.3122 24.4035 25.64 24.725 26.0445 24.725H26.0753C26.4798 24.725 26.8077 24.4035 26.8077 24.007V17.781C26.8077 17.3845 26.4798 17.063 26.0753 17.063Z" fill="#D08935"/>
<path d="M30.1132 17.0643L30.081 17.0644C29.6758 17.0651 29.3479 17.3877 29.3486 17.785L29.3597 24.0056C29.3604 24.4029 29.6895 24.7244 30.0947 24.7237L30.1268 24.7236C30.532 24.7229 30.8599 24.4003 30.8592 24.003L30.8482 17.7824C30.8475 17.3851 30.5184 17.0636 30.1132 17.0643Z" fill="#D08935"/>
</g>
</g>
</svg>
