<svg width="100" height="100" fill="none" xmlns="http://www.w3.org/2000/svg"><g fill="#D08935"><path d="M69.28 12.211c.5 0 .8-.301.901-.502.2-.302.2-.804 0-1.106-.1-.402-.5-.603-1.002-.603H29.302c-.6 0-1.302.201-1.302 1.106v25.733c0 .401.1.703.3.904.502.503 1.804.302 1.804-.904V12.513l.2-.201c.1-.1.301-.201.401-.201 12.725.1 25.55.1 38.574.1z"/><path d="M49.441 18.444c.601 0 1.002-.503 1.002-1.006 0-.603-.5-1.105-1.002-1.105H35.314c-.601 0-1.002.502-1.002 1.005 0 .603.501 1.106 1.002 1.106h14.127zm20.039-1.81c-2.806 0-5.51 1.106-7.415 3.116a10.669 10.669 0 00-3.105 7.54 10.67 10.67 0 003.105 7.538c2.004 2.01 4.61 3.116 7.415 3.116 2.805 0 5.51-1.105 7.414-3.116A10.669 10.669 0 0080 27.29a10.67 10.67 0 00-3.106-7.539c-2.004-2.01-4.609-3.116-7.414-3.116zm5.11 17.29l-.2.2c-1.504 1.106-3.207 1.71-5.01 1.71h-.702c-2.805-.202-5.11-1.81-6.512-4.223-1.403-2.412-1.503-5.327-.401-7.84 1.102-2.412 3.406-4.322 5.911-4.724h.2l.401.301v7.842c0 .402.1.703.501 1.005 1.804 1.608 3.707 3.317 5.611 4.925l.1.1.1.302v.1c.1.101 0 .202 0 .302zm2.204-2.614l-.1.201-.602.201-.3-.201-5.21-4.624-.1-.2c0-.101-.1-.202-.1-.303V19.55c0-.301.1-.402.2-.502.1-.1.3-.201.5-.1 2.606.602 4.71 2.311 5.812 4.724 1.202 2.412 1.102 5.126-.1 7.639zm-27.353-6.534c.601 0 1.002-.502 1.002-1.005 0-.603-.5-1.106-1.002-1.106H35.314c-.601 0-1.002.503-1.002 1.006 0 .603.501 1.105 1.002 1.105h14.127zm0 6.434c.601 0 1.002-.503 1.002-1.006 0-.603-.5-1.105-1.002-1.105H35.314c-.601 0-1.002.502-1.002 1.005 0 .603.501 1.105 1.002 1.105h14.127zm46.461 33.187a1.394 1.394 0 000-.893 2011.45 2011.45 0 00-9.98-17.956c0-.1-.098-.199-.196-.199-.098-.099-.196-.099-.294-.099L50.892 39h-.783l-34.835 6.25c-.098 0-.098 0-.195.1l-.098.098c-3.23 5.854-6.458 11.806-9.785 17.858-.098.297-.196.496-.196.694 0 .595.49.992 1.076.992h8.122c.195 0 .391.1.49.198a.77.77 0 01.195.496V81.66c0 .595.391 1.091.978 1.19L50.304 89h.49c11.644-2.083 23.092-4.067 34.345-6.15.489-.1.978-.398.978-1.191V65.587c0-.397.294-.595.587-.595h7.73c.294 0 .588 0 .881-.1.294 0 .49-.198.587-.495zM8.62 62.909l-.293-.199-.098-.099c0-.1-.098-.198-.098-.297v-.1l.098-.198 8.22-14.782.293-.1h.098l31.018-5.555.294.1.097.099c.098.099.098.198.098.297v.1l-.098.198-8.415 20.337-.293.199H8.62zm40.412 23.61h-.293l-31.801-5.654-.098-.496v-14.98l.293-.298h23.289c.39 0 .782-.297.978-.595 2.348-5.456 4.599-11.012 6.947-16.667.196-.397.49-.496.587-.397.196 0 .392.199.392.596v38.194l-.294.298zm34.443-5.555L52.261 86.52h-.098c-.195 0-.293-.1-.391-.1-.098-.099-.196-.198-.196-.495V48.028c0-.496.294-.596.392-.596.195 0 .489 0 .587.397l2.348 5.655c1.468 3.67 3.034 7.242 4.501 10.913.196.595.783.694 1.174.694h22.897l.196.199c.098.099.196.297.196.396V80.37c.097.298-.098.595-.392.595zm9.296-18.353c-.098.1-.098.199-.196.199l-.098.099H61.361l-.293-.199-.098-.198-8.415-20.238v-.298l.098-.099c.098-.1.195-.1.195-.198l.098-.1h.196l31.116 5.556.294.297 8.317 14.782v.298l-.098.1z"/></g></svg>