<svg width="48" height="48" fill="none" xmlns="http://www.w3.org/2000/svg"><g stroke="#D08935" stroke-width="2" stroke-linecap="round" stroke-linejoin="round"><path d="M42.695 42.695c3.916-3.916-1.279-15.461-11.604-25.786C20.766 6.584 9.221 1.389 5.305 5.305 1.39 9.221 6.584 20.766 16.91 31.091c10.325 10.325 21.87 15.52 25.786 11.604z"/><path d="M31.091 31.091c10.325-10.325 15.52-21.87 11.604-25.786C38.779 1.39 27.234 6.584 16.909 16.91 6.584 27.234 1.389 38.779 5.305 42.695c3.916 3.916 15.461-1.279 25.786-11.604z"/></g><path d="M24 27a3 3 0 100-6 3 3 0 000 6z" fill="#D08935"/></svg>