<svg width="100" height="101" fill="none" xmlns="http://www.w3.org/2000/svg"><path d="M63.429 26.026H83.57v19.58L97 52.131V71.71H83.571m0 0c0 5.407-4.509 9.79-10.071 9.79-5.562 0-10.071-4.383-10.071-9.79m20.142 0c0-5.406-4.509-9.789-10.071-9.789-5.562 0-10.071 4.383-10.071 9.79m-47 0c0 5.406 4.509 9.789 10.071 9.789 5.562 0 10.071-4.383 10.071-9.79m-20.142 0c0-5.406 4.509-9.789 10.071-9.789 5.562 0 10.071 4.383 10.071 9.79m-20.142 0H3V19.5h60.429v52.21m-26.858 0H63.43M43.286 32.553L50 39.079m0 0l-6.714 6.526M50 39.08H26.5a10.22 10.22 0 00-7.122 2.867 9.653 9.653 0 00-2.95 6.922" stroke="#D08935" stroke-width="2" stroke-linecap="round" stroke-linejoin="round"/></svg>