<svg width="48" height="48" fill="none" xmlns="http://www.w3.org/2000/svg"><path d="M32.712 31.854a11.741 11.741 0 01-6.373 3.644m8.729-15.393c.43 1.22.664 2.53.664 3.895a11.69 11.69 0 01-.665 3.899m-8.722-15.396a11.72 11.72 0 016.367 3.644m-17.32-.117a11.718 11.718 0 016.244-3.523m-8.735 15.3A11.713 11.713 0 0112.268 24c0-1.332.222-2.612.631-3.804m8.879 15.325a11.705 11.705 0 01-6.418-3.585m10.747 8.046l.459-8.909a7.534 7.534 0 002.273-1.324l7.918 4.304m-25.746-.026l8.097-4.32a7.527 7.527 0 002.4 1.386l.528 8.89M8.96 17.545l7.625 5.13A7.577 7.577 0 0016.452 24c0 .455.057.892.134 1.324l-7.69 5.174m13.14-22.48l-.528 8.889a7.486 7.486 0 00-2.4 1.386l-7.984-4.259m25.873-.216l-8.157 4.434a7.517 7.517 0 00-2.273-1.325l-.459-8.91m12.793 22.505l-7.493-5.127c.088-.454.143-.918.143-1.395s-.056-.94-.142-1.395l7.47-5.112M24 7.5c9.097 0 16.5 7.401 16.5 16.5s-7.402 16.5-16.502 16.5C14.9 40.5 7.5 33.099 7.5 24S14.9 7.5 23.998 7.5zM24 2C11.85 2 2 11.85 2 24s9.85 22 22 22 22-9.85 22-22S36.15 2 24 2zm2.75 22a2.75 2.75 0 11-5.5 0 2.75 2.75 0 015.5 0z" stroke="#D08935" stroke-width="2" stroke-miterlimit="10" stroke-linecap="round" stroke-linejoin="round"/></svg>