<svg width="79" height="95" fill="none" xmlns="http://www.w3.org/2000/svg"><path d="M8.123 78.452l-.004-.006-.004-.006c-1.664-2.437-2.261-5.372-1.87-8.23a12.033 12.033 0 014.244-7.262c2.17-1.767 4.724-2.65 7.493-2.65h.608c2.972.205 5.72 1.39 7.775 3.437 1.862 1.854 3.05 4.41 3.348 7.071.293 2.634-.392 5.384-1.873 7.648l-.002.002L18.17 93.06a.422.422 0 01-.1.066l-.055.028-.033.022-.199-.132-9.66-14.593zm3.905-16.291l-.006.003-.007.004c-1.733 1.036-3.26 2.542-4.212 4.423-1.058 1.772-1.518 3.868-1.407 5.943.006 2.136.724 4.127 1.88 5.853v.001l8.874 13.313.832 1.248.832-1.248 8.874-13.313s0 0 0 0c1.182-1.767 1.763-3.756 1.878-5.826.12-2.144-.481-4.13-1.388-5.936-.952-1.897-2.486-3.415-4.23-4.458l-.006-.004-.006-.003c-3.625-2.096-8.284-2.096-11.908 0zm10.57 9.962a4.643 4.643 0 11-9.286 0 4.643 4.643 0 019.285 0z" stroke="#D08935" stroke-width="2"/><path d="M38.832 73.662h22.606c1.657 0 3.211-.308 4.765-.925a12.024 12.024 0 004.041-2.673c1.14-1.13 2.072-2.467 2.694-4.01.621-1.541.932-3.083.932-4.728 0-1.645-.31-3.187-.932-4.73-.622-1.541-1.554-2.878-2.694-4.008a12.025 12.025 0 00-4.04-2.673 12.683 12.683 0 00-4.766-.925H12.433c-1.347 0-2.694-.309-3.937-.823a8.559 8.559 0 01-3.316-2.056c-.932-.925-1.761-2.056-2.28-3.29-.517-1.233-.828-2.57-.828-3.906 0-1.337.31-2.673.829-3.907.518-1.233 1.243-2.364 2.28-3.29.932-1.027 2.071-1.747 3.315-2.261 1.243-.514 2.59-.823 3.937-.823h34.293l-2.59 2.468c-.104.103-.208.205-.208.308-.103.103-.103.309-.103.411 0 .103 0 .309.103.412.104.102.104.205.208.308.103.103.207.206.31.206.311.102.518.102.83 0 .103-.103.206-.103.31-.206l4.559-4.112c.207-.206.31-.514.31-.72 0-.308-.103-.514-.31-.72l-4.352-4.317c-.414-.411-1.14-.411-1.554 0-.207.206-.31.514-.31.72 0 .205.103.514.31.72l2.59 2.466H12.433c-1.658 0-3.212.309-4.766.926-1.45.616-2.901 1.542-4.04 2.673-1.14 1.13-2.073 2.467-2.695 4.009C.311 35.626 0 37.27 0 38.915s.31 3.187.932 4.729c.622 1.542 1.555 2.878 2.694 4.01a12.024 12.024 0 004.04 2.672 12.68 12.68 0 004.767.925h48.901c1.347 0 2.694.309 3.937.72 1.243.514 2.383 1.233 3.315 2.159.933.925 1.762 2.056 2.28 3.29.518 1.233.828 2.57.828 3.906 0 1.336-.31 2.673-.828 3.906-.518 1.234-1.244 2.365-2.28 3.29-.932.925-2.072 1.645-3.315 2.159-1.243.514-2.59.72-3.937.72H38.832c-.311 0-.518.102-.726.308-.207.206-.31.514-.31.72 0 .205.103.514.31.72.104.41.415.513.726.513z" fill="#D08935"/><path d="M56.343 19.971l-.003-.006-.004-.006c-1.664-2.436-2.261-5.371-1.87-8.23a12.033 12.033 0 014.244-7.261c2.169-1.768 4.724-2.65 7.492-2.65h.608c2.973.205 5.721 1.39 7.776 3.437 1.861 1.854 3.05 4.409 3.347 7.07.294 2.635-.392 5.385-1.873 7.648l-.001.002L66.39 34.58a.415.415 0 01-.099.066l-.055.028-.034.022-.198-.132-9.66-14.593zm3.905-16.29l-.006.003-.006.004c-1.733 1.036-3.26 2.542-4.213 4.423-1.057 1.771-1.517 3.868-1.406 5.943.006 2.136.724 4.127 1.879 5.853 0 0 0 0 0 0l8.875 13.313.832 1.248.832-1.248 8.874-13.312v-.001c1.182-1.766 1.762-3.755 1.878-5.825.12-2.144-.482-4.131-1.388-5.937-.952-1.897-2.486-3.415-4.23-4.457l-.006-.004-.006-.004c-3.625-2.096-8.284-2.096-11.908 0zm10.57 9.962a4.643 4.643 0 11-9.285 0 4.643 4.643 0 019.285 0z" stroke="#D08935" stroke-width="2"/></svg>