<svg width="100" height="101" fill="none" xmlns="http://www.w3.org/2000/svg"><path d="M65.833 28.227v-6.363a6.379 6.379 0 00-1.855-4.5A6.318 6.318 0 0059.5 15.5h-19c-1.68 0-3.29.67-4.478 1.864a6.379 6.379 0 00-1.855 4.5v6.363M88 49.824a75.446 75.446 0 01-38 10.221 75.051 75.051 0 01-38-10.221m33.25-2.506h9.5m-39.583-19.09h69.666A3.174 3.174 0 0188 31.408v50.91a3.174 3.174 0 01-3.167 3.181H15.167A3.174 3.174 0 0112 82.318V31.41a3.174 3.174 0 013.167-3.182z" stroke="#D08935" stroke-width="2" stroke-linecap="round" stroke-linejoin="round"/></svg>