<svg width="84" height="84" fill="none" xmlns="http://www.w3.org/2000/svg"><g fill="#D08935"><path d="M30 28.4c.8-.4 1.7-.4 2.5-.4v-2.1c-.8.1-1.6.1-2.3.3-1.5.4-2.7 1.2-3.5 2.6-.6 1.1-.7 2.3-.7 3.7h2.1c0-1.3 0-3.1 1.9-4.1zM50.1 26h-6.5v2.1h6.5V26zm8.8 8.8h-2.1v6.5h2.1v-6.5zm-30.8 8.8H26v6.5h2.1v-6.5zm24.3 15.3h.9c2.1 0 3.9-1.1 4.9-2.9.6-1.1.7-2.3.7-3.6h-2.1c0 .8 0 1.6-.3 2.4-.9 2-2.7 2.1-4.1 2v2.1zm-11.1-2.1h-6.5v2.1h6.5v-2.1z"/><path d="M58.801 3.98A5.518 5.518 0 0055.219.298C54.921.2 54.125 0 52.732 0H5.672C3.681 0 2.188.796.994 2.388.398 3.283 0 4.178 0 5.074V53.33c0 1.194.298 2.288.995 3.283.696.995 1.691 1.791 2.885 2.09.299.199.995.298 2.587.298h17.511v-2.09H5.671c-1.393 0-2.587-.696-3.184-1.79-.298-.498-.398-1.194-.398-1.99V5.77c0-.994.299-1.89.896-2.487.597-.696 1.492-1.094 2.587-1.094h47.956c.995 0 1.79.298 2.388.895.696.697.995 1.692.995 2.786v18.108H59V6.268c0-1.293-.1-1.89-.199-2.288zM25.199 80.02a5.518 5.518 0 003.582 3.681c.298.1 1.094.299 2.487.299h47.06c1.99 0 3.483-.796 4.677-2.388.597-.895.995-1.79.995-2.686V30.67c0-1.194-.299-2.288-.995-3.283-.696-.995-1.691-1.791-2.885-2.09-.299-.198-.995-.298-2.587-.298H60.022v2.09h18.307c1.393 0 2.587.696 3.184 1.79.298.498.398 1.194.398 1.99v47.36c0 .994-.299 1.89-.896 2.487-.597.696-1.492 1.094-2.587 1.094H30.472c-.995 0-1.79-.298-2.388-.895-.696-.697-.995-1.692-.995-2.786V60.022H25v17.71c0 1.293.1 1.89.199 2.288z"/></g></svg>