<svg width="100" height="101" fill="none" xmlns="http://www.w3.org/2000/svg"><path d="M28.286 12.5H17.429A5.428 5.428 0 0012 17.929v10.857M71.714 12.5h10.857A5.428 5.428 0 0188 17.929v10.857m0 43.428v10.857a5.428 5.428 0 01-5.429 5.429H71.714m-43.428 0H17.429A5.428 5.428 0 0112 83.071V72.214M28.286 36.93L50 26.07l21.714 10.86m-43.428 0L50 47.786M28.286 36.929V64.07L50 74.93m0-27.143L71.714 36.93M50 47.786v27.143m21.714-38V64.07L50 74.93" stroke="#D08935" stroke-width="2" stroke-linecap="round" stroke-linejoin="round"/></svg>