<svg width="68" height="68" fill="none" xmlns="http://www.w3.org/2000/svg"><g fill="#D08935" clip-path="url(#clip0_262_9371)"><path d="M61.403 48.622l6.191-12.694c.508-.984.61-1.377 0-1.87-.203-.295-.406-.295-.406-.295h-4.262l-.203-.197c-.102-.098-.203-.295-.203-.393v-5.216c0-.295-.102-.492-.305-.492-.101 0-.203-.098-.71-.098l-4.06-.098-.203-.394v-5.412c0-.788-.203-.886-1.116-.886H35.523c-.61 0-.812.098-.812.984v5.51l-.305.296h-3.958c-.507 0-.71.098-.71.098-.102.099-.305.197-.305.492v5.216l-.203.197c-.101.098-.304.197-.406.098-1.928-.197-4.06-1.378-5.582-3.149l-1.522-1.87c-.305-.393-.71-.393-1.421-.393h-.305c-.203 0-.406-.099-.609-.394-1.42-2.755-2.74-5.51-4.16-8.266-.204-.492-.508-.689-1.016-.689h-2.131l-.304-.295v-3.936c0-.886-.102-1.28-.508-1.476-.305.197-.609.098-1.42.098H6.393c-.812 0-1.116.197-1.319.59 0 .1-.102.394-.102 1.182v3.739l-.203.197c-.101.098-.304.197-.405.197-.406 0-.812.098-1.015.295-.203.197-.305.59-.305 1.082v7.282c0 .295-.203.59-.609.59h-.812c-.71 0-1.116.1-1.42.493-.204.393-.204.59-.102.885 1.116 2.756 2.334 5.413 3.45 8.07a56.161 56.161 0 011.015 2.755c.61 2.558.203 5.018-1.217 7.38-.203.394-.203.492-.203.886v1.377c.71-.492 1.42-.885 2.232-1.18 0-.099.102-.296.102-.394a9.008 9.008 0 001.218-3.247v-.197l.203-.197c.101-.098.304-.098.406-.098h52.776l.304.098.102.197v.393l-1.421 2.953c.812 0 1.522.098 2.334.196zm-.507-19.976l.304.296v4.526l-.304.295h-8.729l-.304-.295v-4.527l.304-.295h8.729zM46.484 22.25l.304-.295h8.83l.305.393v.099l-.102 4.723-.203.197-.304.098h-8.526l-.304-.295v-4.92zm4.06 6.987v4.231l-.305.295h-8.728l-.305-.295v-4.527l.305-.295h8.627l.304.296.102.295zM35.827 22.25l.305-.295h8.83l.304.295v4.822l-.304.295h-8.83l-.305-.295V22.25zm-5.277 6.79l.304-.295h8.728l.305.295v4.428l-.305.295h-8.728l-.304-.295V29.04zM7.105 15.657l.304-.295h1.624l.305.295v3.05l-.203.296H7.409l-.304-.296v-3.05zm-1.624 5.51h7.713l.305.197.101.099 3.147 6.1v.296l-.102.197-.406.197H5.481l-.305-.296v-6.494l.305-.295zm1.827 21.551l-.305-.295v-.197a13.108 13.108 0 00-.913-3.936l-3.045-7.085v-.394l.102-.197.203-.098h16.44l.203.098c.102 0 .203.099.203.197l.102.099a19.459 19.459 0 001.827 2.066c2.131 2.067 4.77 3.05 7.713 3.05h34.61l.304.493.101.196-2.74 5.708c-.102.197-.305.393-.61.393H7.309v-.098z"/><path d="M66.9 54.409c.2-.3.2-.7.1-1 0-.1-.1-.3-.5-.6-.9-1-1.8-1.9-2.8-2.9-1.1-1.1-2.6-1.8-4.2-1.8s-3.1.7-4.3 1.9c-.5.6-1.1 1.1-1.6 1.7-1.1 1.1-2.8 1.4-4.2.8-.8-.4-1.6-1.2-2.3-2l-.6-.6c-2-2-5.1-2.3-7.5-.6-.6.4-1.2 1.1-1.8 1.7l-.5.5c-.4.4-.8.7-1 .9-1.1.6-2.5.7-3.6.1-.4-.2-.8-.6-1.5-1.3l-.3-.3c-.4-.8-1-1.4-1.6-1.8-2.4-1.6-5.5-1.3-7.5.9-.1.1-.3.3-.4.5-.7.7-1.4 1.5-2.2 1.9-1.1.6-2.4.5-3.4-.1-.3-.2-.8-.5-1.3-1.1l-.4-.5c-.5-.5-.9-1-1.4-1.3-2.4-1.9-5.8-1.7-7.9.6-1 1-1.9 2.1-2.9 3.1-.2.3-.4.6-.3 1 .1.3.3.6.5.7.6.3 1.1.2 1.5-.3.8-.9 1.7-1.8 2.5-2.7.4-.5.8-.8 1.1-1 1.1-.6 2.5-.7 3.6-.1.4.2.8.6 1.5 1.3l.3.4c.5.6 1.1 1.1 1.6 1.5 2.3 1.7 5.5 1.4 7.5-.7l1.4-1.5c.5-.5.8-.8 1.1-1 .6-.3 1.2-.5 1.8-.5 1 0 1.9.4 2.7 1.2l.6.6c.6.6 1.2 1.3 1.7 1.7 2.4 1.8 5.6 1.6 7.8-.6.2-.2.4-.4.5-.6.9-1 2-2.2 3.6-2.3 1.5 0 2.4.7 3.3 1.6.4.4.8.8 1.2 1.3 2 2 5 2.4 7.3.9.8-.5 1.6-1.4 2.3-2.2l.3-.4c1.1-1.2 2.9-1.6 4.3-.8.4.2.9.6 1.6 1.3.8.8 1.6 1.6 2.3 2.4.4.5.7.6 1 .5.5.1.8-.1 1-.4z"/><circle cx="8" cy="33.098" r="1"/><circle cx="12" cy="33.098" r="1"/><circle cx="16" cy="33.098" r="1"/><rect x="7" y="24.098" width="6" height="2" rx="1"/></g><defs><clipPath id="clip0_262_9371"><path fill="#fff" d="M0 0h68v68H0z"/></clipPath></defs></svg>