<svg width="48" height="48" fill="none" xmlns="http://www.w3.org/2000/svg"><g fill="#D08935"><path d="M26.384 39.55c-1.155-2.574-1.318-5.175-.488-7.805 1.699-5.385 7.48-8.65 13.15-7.465 4.278.894 7.68 4.11 8.666 8.267 1.186 5.002-1.374 10.172-6.145 12.376-4.801 2.217-10.412.927-13.744-3.095a.104.104 0 00-.084-.039c-8.726 0-17.459-.003-26.198-.01-.259 0-.532.03-.768-.05-.656-.224-.773-.7-.773-1.362V5.485c0-.438.05-.746.15-.925C.408 4.093.833 4 1.388 4h36.09c1.11 0 1.454.417 1.454 1.45v17.972l-.003.012a.028.028 0 01-.03.015 12.374 12.374 0 00-2.141-.198.096.096 0 01-.067-.027.09.09 0 01-.027-.065V6.241a.047.047 0 00-.015-.034.05.05 0 00-.035-.014h-9.833a.046.046 0 00-.032.013.044.044 0 00-.013.031l-.001 10.674c0 .323-.036.56-.107.71-.218.463-.809.725-1.311.586-.14-.038-.348-.154-.626-.347l-2.151-1.487a.063.063 0 00-.07 0l-2.118 1.465c-.515.356-1.033.6-1.565.232l-2.451-1.697a.066.066 0 00-.075.001 495.07 495.07 0 01-2.197 1.519c-.283.193-.51.305-.681.336-.523.095-1.097-.23-1.26-.726-.04-.123-.06-.355-.06-.694L12.062 6.23a.04.04 0 00-.012-.027.04.04 0 00-.028-.011h-9.73c-.018 0-.027.008-.027.025V39.54c0 .036.019.054.055.054h24.034c.033 0 .043-.015.03-.045zM15.526 14.19c.494-.334.955-.402 1.455-.059.8.548 1.597 1.096 2.392 1.643a.06.06 0 00.066 0c.72-.501 1.445-1.002 2.175-1.503.548-.375 1.025-.533 1.582-.144.553.386.96.668 1.224.847.039.026.058.017.058-.029l-.001-8.707a.044.044 0 00-.045-.044h-10.06a.048.048 0 00-.033.013.045.045 0 00-.014.033v8.729c0 .005.002.01.004.014a.027.027 0 00.011.01l.015.003a.03.03 0 00.015-.005c.383-.272.768-.539 1.156-.801zm30.211 20.83c0-2.33-.953-4.564-2.65-6.211a9.187 9.187 0 00-6.397-2.573 9.283 9.283 0 00-3.462.669 9.068 9.068 0 00-2.935 1.904 8.77 8.77 0 00-1.961 2.85 8.56 8.56 0 000 6.721 8.77 8.77 0 001.96 2.85 9.07 9.07 0 002.936 1.904 9.283 9.283 0 003.462.668c2.4 0 4.7-.925 6.397-2.572a8.655 8.655 0 002.65-6.21z"/><path d="M36.098 33.232c-.414.128-.757.51-1.27.217-.129-.074-.298-.249-.509-.523-.568-.74-1.136-1.479-1.705-2.215-.452-.585-.53-1.014.13-1.45 2.423-1.598 5.696-1.541 8.03.085.572.399.334.918-.03 1.388-.645.835-1.29 1.672-1.932 2.51-.265.347-.69.37-1.075.197-.591-.265-.991-.41-1.64-.21zm2.977-3.049c-1.45-.635-3.336-.748-4.767.006-.036.02-.042.046-.017.079l1.135 1.47a.07.07 0 00.085.025 3.658 3.658 0 012.35-.002.08.08 0 00.094-.028l1.14-1.475a.051.051 0 00.008-.043.048.048 0 00-.028-.032zM9.542 36.729a.783.783 0 01-.243.568.83.83 0 01-.586.234l-3.51-.006a.84.84 0 01-.586-.236.792.792 0 01-.241-.569l.006-3.412a.783.783 0 01.243-.568.83.83 0 01.586-.234l3.511.006c.22 0 .43.085.585.236a.792.792 0 01.241.569l-.006 3.412zM7.93 34.12a.041.041 0 00-.013-.03.045.045 0 00-.03-.012l-1.848-.003a.043.043 0 00-.03.012.042.042 0 00-.013.03l-.004 1.797a.042.042 0 00.027.04.047.047 0 00.017.003l1.847.003a.045.045 0 00.03-.012.042.042 0 00.014-.03l.003-1.798zm8.754 2.611a.785.785 0 01-.24.564.834.834 0 01-.58.233h-3.522a.833.833 0 01-.58-.233.785.785 0 01-.24-.564v-3.426c0-.211.086-.414.24-.563a.833.833 0 01.58-.233h3.521c.218 0 .427.084.58.233.155.15.241.352.241.563v3.426zm-1.616-2.608a.043.043 0 00-.003-.018.047.047 0 00-.043-.028h-1.838a.048.048 0 00-.032.014.045.045 0 00-.014.032v1.791c0 .012.005.024.014.032.008.009.02.013.032.013h1.838a.047.047 0 00.033-.013.044.044 0 00.013-.032v-1.791zm25.54 6.583c-.476.307-1.111.771-1.63.368-.117-.09-.25-.295-.401-.615-.45-.956-.9-1.912-1.348-2.868-.226-.479.07-.79.486-1.064.557-.365.847-.882.871-1.55.01-.285.039-.472.086-.562.16-.304.41-.388.768-.439l3.075-.428c.78-.108 1.177.074 1.24.856.205 2.517-.974 4.9-3.147 6.302zm-.738-1.398c1.348-.943 2.219-2.444 2.287-4.064.002-.041-.019-.059-.061-.053l-1.873.26c-.035.005-.055.025-.062.059a3.404 3.404 0 01-1.131 2.01.072.072 0 00-.017.084l.793 1.687a.042.042 0 00.028.023.044.044 0 00.035-.006zm-3.758-1.732c-.448 1.078-.976 2.136-1.479 3.193-.295.62-.895.51-1.422.218-2.437-1.349-3.93-3.982-3.592-6.736.095-.776.678-.779 1.356-.685 1.057.146 2.115.294 3.172.444.24.034.416.16.531.378.159.304.064.67.145 1.008.115.478.35.83.705 1.054.473.298.827.542.584 1.126zm-2.554 1.704l.788-1.67a.078.078 0 00-.02-.094 3.369 3.369 0 01-1.129-2.015c-.004-.027-.02-.043-.05-.047l-1.892-.265a.057.057 0 00-.046.014.053.053 0 00-.018.044c.135 1.696.896 3.047 2.283 4.054.037.027.065.02.084-.02zm3.132-3.31c.541 0 .98-.426.98-.952 0-.525-.439-.951-.98-.951-.541 0-.98.426-.98.951 0 .526.439.952.98.952z"/></g></svg>