<svg width="48" height="48" fill="none" xmlns="http://www.w3.org/2000/svg"><g fill="#D08935"><path d="M10.562 10.896c.63.013 1.152.008 1.566-.016.442-.026.83-.368 1.115-.784.792-1.15 1.775-1.908 2.95-2.271.45-.14 1.067-.206 1.851-.198 1.66.016 3.217.018 4.673.008 1.489-.01 2.927.652 3.98 1.955.779.966 1.681 1.401 2.818 1.299.041-.004.064-.031.07-.082.197-1.724.865-3.047 2.005-3.97.773-.626 1.624-.847 2.583-.837 2.25.024 4.62.024 7.11 0 1.057-.01 1.965.2 2.818.954C45.378 8.08 46.01 9.679 46 11.748a586.1 586.1 0 000 6.106c.003.515-.09.935-.452 1.184a.653.653 0 01-.505.127c-.52-.098-.779-.512-.776-1.242.005-2.145.004-4.28-.003-6.406-.002-1.09-.337-1.972-1.002-2.646-.524-.53-1.143-.701-1.8-.697-2.441.014-4.88.013-7.316-.004a2.996 2.996 0 00-.978.14c-1.11.374-1.883 1.693-1.883 3.155v19.188c0 .6-.424 1.062-.892 1.062-6.844 0-13.748 0-20.714.002-.6 0-.89-.57-.89-1.26.004-7.082.004-13.398 0-18.948-.003-1.676-.917-3.04-2.233-3.3-.19-.037-.595-.047-1.214-.031-1.562.041-2.612 1.51-2.612 3.436-.001 8.448 0 16.712.001 24.793 0 .047.019.07.056.07l41.407.002c.04 0 .06-.025.06-.074.015-.8.021-1.605.02-2.415-.01-3.977-.01-7.837-.001-11.58 0-.82.718-1.298 1.282-.903.292.203.438.524.438.963.003 4.885.004 9.898.002 15.04 0 .768-.44 1.168-1.024 1.145-.504-.019-1-.018-1.489.001a.06.06 0 00-.032.012.083.083 0 00-.025.03 955.213 955.213 0 01-1.864 3.745c-.186.37-.45.556-.792.556H6.14c-.369 0-.591-.328-.79-.726a1972.77 1972.77 0 01-1.779-3.58.078.078 0 00-.023-.028.057.057 0 00-.031-.011 40.483 40.483 0 00-1.613-.003c-.535.01-.903-.49-.903-1.16l.002-25.23c0-.45.01-.886.03-1.308a5.813 5.813 0 01.784-2.669c.889-1.53 2.172-2.294 3.666-2.281.33.003.66.01.987.021.653.024 1.401.328 1.958.768 1.172.921 1.86 2.263 2.065 4.027.006.05.029.076.07.077zm4.282 6.284a3.503 3.503 0 002.786 1.349 294.01 294.01 0 014.78.006c1.22.012 2.233-.323 3.11-1.383.168-.202.341-.391.52-.567a.181.181 0 00.053-.136v-4.566a.205.205 0 00-.06-.154 6.305 6.305 0 01-.546-.584c-.723-.88-1.686-1.331-2.695-1.334-1.7-.005-3.454-.005-5.262.001-.91.003-1.724.356-2.44 1.058-.384.376-.676.905-1.064 1.292a.162.162 0 00-.035.057.2.2 0 00-.013.07l-.001 3.747c0 .016.002.032.007.047a.121.121 0 00.021.038c.298.367.578.72.84 1.059zm13.009-1.718a4.39 4.39 0 011.634-.204c.046.003.07-.025.07-.083v-2.018c0-.057-.023-.084-.068-.081a4.555 4.555 0 01-1.593-.193c-.046-.014-.07.009-.07.07v2.482l.003.012a.03.03 0 00.006.01.02.02 0 00.008.005h.01zM12.25 13.117c0-.01-.004-.02-.01-.028a.029.029 0 00-.022-.012h-1.67a.029.029 0 00-.022.012.046.046 0 00-.01.028v2.098c0 .01.004.02.01.028a.029.029 0 00.022.011h1.67a.029.029 0 00.023-.011.046.046 0 00.009-.028v-2.098zm14.393 5.678c-1.003 1.218-2.405 1.898-3.788 1.895a415.5 415.5 0 00-4.773.015c-.813.006-1.447-.062-1.903-.203-1.161-.363-2.21-1.169-2.977-2.328-.274-.414-.71-.716-1.127-.729a33.848 33.848 0 00-1.503-.01c-.038 0-.057.023-.057.071l.001 7.624c0 .038.016.057.046.057h18.952a.042.042 0 00.03-.015.06.06 0 00.011-.037V17.53c0-.054-.02-.083-.064-.086-1.173-.106-2.04.37-2.848 1.351zm2.914 8.625a.067.067 0 00-.014-.041.043.043 0 00-.033-.017H10.563a.042.042 0 00-.033.017.067.067 0 00-.014.041v2.066c0 .015.005.03.014.041.009.011.02.017.033.017H29.51a.042.042 0 00.033-.017.067.067 0 00.014-.041V27.42zm10.75 13.411a.029.029 0 00.016-.005.04.04 0 00.013-.015l1.04-2.099a.051.051 0 00.001-.044.038.038 0 00-.013-.015.028.028 0 00-.017-.006h-35.7a.03.03 0 00-.016.006.04.04 0 00-.013.016.052.052 0 00.001.043l1.041 2.1a.039.039 0 00.012.014.034.034 0 00.017.005h33.618z"/><path d="M42.533 21.236c0 .289-.091.566-.254.77a.788.788 0 01-.613.32h-7.781a.788.788 0 01-.613-.32 1.247 1.247 0 01-.254-.77v-9.783c0-.289.091-.566.254-.77a.788.788 0 01.613-.32h7.782c.23 0 .45.115.612.32.163.204.254.481.254.77v9.783zm-1.727-8.654a.064.064 0 00-.013-.04.04.04 0 00-.031-.016h-5.973a.04.04 0 00-.031.016.064.064 0 00-.013.04v7.514c0 .015.005.03.013.04a.04.04 0 00.031.016h5.973a.04.04 0 00.031-.016.064.064 0 00.013-.04v-7.514zm-23.549-.533l-.074-.024c-.44-.14-.888.195-1 .75l-.452 2.247c-.112.555.155 1.118.596 1.258l.074.024c.44.14.889-.196 1-.75l.452-2.248c.112-.554-.155-1.117-.596-1.257zm3.47.003l-.073-.024c-.441-.144-.891.19-1.005.744l-.461 2.242c-.114.554.15 1.12.592 1.263l.073.024c.441.144.89-.19 1.005-.744l.46-2.242c.115-.554-.15-1.12-.59-1.263zm3.456-.002l-.074-.023c-.44-.141-.889.194-1.001.748l-.456 2.246c-.112.554.154 1.118.595 1.26l.074.023c.44.142.888-.193 1-.747l.456-2.247c.112-.554-.154-1.118-.594-1.26z"/></g></svg>