<svg width="100" height="101" fill="none" xmlns="http://www.w3.org/2000/svg"><path d="M74.692 22.633v-5.066a5.024 5.024 0 00-1.51-3.583 5.2 5.2 0 00-3.644-1.484H23.154a5.2 5.2 0 00-3.645 1.484A5.024 5.024 0 0018 17.567v65.866c0 1.344.543 2.633 1.51 3.583a5.2 5.2 0 003.644 1.484h46.384a5.2 5.2 0 003.645-1.484 5.024 5.024 0 001.51-3.583V58.1m-33.5 20.267H51.5m-5.154-17.734H28.308m0-10.133h20.615M28.308 40.367h25.769m9.663 18.366l-9.663 1.9 1.933-9.5 21.26-20.9 7.73 7.6-21.26 20.9z" stroke="#D08935" stroke-width="2" stroke-linecap="round" stroke-linejoin="round"/></svg>