<svg width="48" height="48" fill="none" xmlns="http://www.w3.org/2000/svg"><path d="M9.387 23.6l-2.864 1.14c-1.754.7-2.842 2.76-2.44 4.58l.828 3.72C6.342 39.44 11.403 44 18.7 44h9.6c7.298 0 12.359-4.56 13.79-10.96l.827-3.72c.403-1.82-.685-3.88-2.44-4.58l-2.862-1.14m-28.227 0l11.109-4.42a8.201 8.201 0 016.008 0l11.11 4.42m-28.227 0V16c0-3.3 2.721-6 6.048-6h16.13c3.327 0 6.049 2.7 6.049 6v7.6M23.5 44V20m5.04-10H18.46V6c0-1.1.907-2 2.016-2h6.048c1.11 0 2.017.9 2.017 2v4z" stroke="#D08935" stroke-width="2" stroke-linecap="round" stroke-linejoin="round"/></svg>