<svg width="100" height="100" fill="none" xmlns="http://www.w3.org/2000/svg"><path d="M84.702 92.298c4.7-1.704 7.2-6.515 6-11.326-2.5-9.723-5-20.047-7.8-30.773-.6-2.205-2.3-4.11-4.5-4.71-.6-.201-1.5-.301-2.899-.402-5.5-.4-10.899-.802-16.398-1.203h-.2l-.3-.3v-4.912c0-.2.1-.4.2-.501 2.1-1.904 3.4-4.21 3.9-6.916.2-.802.2-1.905.2-3.108v-13.23c0-1.905-.7-3.71-2-5.013S57.904 8 56.005 8H45.706c-1.3 0-2.2.1-2.8.2-3 .802-5 3.409-5 6.315v13.432c0 1.403.1 2.506.2 3.308.5 2.706 1.8 5.012 3.9 6.916.1.1.1.2.2.3v5.113l-.2.2c-.1.1-.2.2-.4.2-5.799.502-11.598.903-17.298 1.304-.9.1-1.6.2-2.1.4-1.6.602-2.8 1.604-3.7 3.108-.3.501-.5 1.203-.7 2.005-2.399 10.123-4.899 19.947-7.298 29.47-.3 1.102-.5 2.004-.5 2.605-.2 4.41 2.7 8.32 6.899 9.623.4.1.7.2 1.1.3.4.1.7.1 1.1.1h10.899c1.6 0 2.8-.1 3.3-.2 2.5-.601 4.399-2.606 4.999-5.011.1-.301.3-.502.6-.502h23.197c.3 0 .5.2.6.501.3 1.103.7 2.005 1.4 2.807 1.4 1.604 3.2 2.506 5.5 2.506h12.598c.2 0 .4 0 .5-.1.2-.1.5-.1.7-.2.5-.201.9-.301 1.3-.402zm-8.8-45.407c1.1.1 1.9.201 2.4.502 1.4.601 2.4 1.804 2.8 3.408 1.5 5.914 3 11.928 4.5 17.942l.1.2-.2.301c-.1.1-.2.2-.5.2h-7c-.2 0-.3-.1-.4-.2-.1-.1-.2-.3-.2-.501v-17.14c0-.502-.5-.903-1-.903H54.006c-.4 0-.5-.2-.6-.3 0-.1-.1-.401.2-.602l4.1-4.11c.1-.1.2-.1.3-.2h.3c6 .501 11.798 1.003 17.598 1.404zm-.299 6.416v7.217l-.2.2c-.1.1-.2.1-.4.1H57.605l-.2-.2c-.1-.1-.2-.3-.2-.401v-7.217l.2-.2c.1-.1.3-.201.4-.201h17.398l.2.2c.2.2.2.301.2.502zm-20.398 7.317c-.2.2-.3.2-.5.2h-8.599l-.2-.2c-.1-.1-.2-.3-.2-.401v-7.117l.2-.2c.1-.1.3-.2.4-.2h8.6l.2.2c.1.1.2.3.2.4v7.117l-.1.2zm.1 2.706v5.714l-.2.2c-.1.1-.3.2-.4.2h-8.699l-.2-.2c-.1-.1-.2-.3-.2-.4V63.13l.2-.2c.1-.101.3-.201.4-.201h8.7l.2.2c.2.1.2.2.2.401zm1.5-19.546c0 .2-.1.401-.2.602l-5.8 5.713h-.3c-.2 0-.3-.1-.4-.2l-5.599-5.614c-.1-.1-.2-.3-.2-.5v-3.71l.5-.3.3.1c3.7 1.704 7.4 1.704 10.999 0h.4l.4.4v.201l-.1 3.308zM39.907 15.017c0-.903.1-1.604.3-2.206.7-2.105 2.5-3.207 4.9-3.207h11.098c2.8 0 5 2.105 5 4.811v2.907l-.2.3-.3.1h-.3l-.1-.1a6.817 6.817 0 00-4-1.302H44.706c-1.4 0-2.9.5-3.9 1.303-.3.2-.5.1-.6.1-.1 0-.3-.2-.3-.601v-2.105zm20.998 6.415v.3l-.1.1c0 .1-.1.1-.2.201l-.1.1H40.507l-.2-.2c-.1-.2-.1-.401 0-.501.9-2.005 2.6-3.108 5-3.108h10.298c1 0 1.7.1 2.3.301 1.4.501 2.4 1.403 3 2.807zm-20.998 7.617v-4.51c0-.3.3-.602.6-.602h7.299l.2.201c.1.1.2.3.2.4v5.313c0 .502.1.802.3 1.003.2.2.6.3 1.1.3h1.9V29.25h-.8c-.2 0-.3-.1-.4-.2-.2-.1-.3-.301-.3-.401v-4.31l.2-.201c.1-.1.3-.2.4-.2h10.198l.3.3v4.611c0 3.508-1.8 6.816-4.899 8.72-1.8 1.103-3.7 1.705-5.7 1.705-1.7 0-3.5-.401-5.099-1.303-3.4-1.805-5.4-5.112-5.5-8.921zM15.309 68.743c1.4-5.613 2.9-11.327 4.3-17.24.3-1.103.5-1.805.8-2.306a4.835 4.835 0 013.8-2.306c6.099-.5 12.198-.902 18.297-1.403h.1l.2.1c.1 0 .2.1.2.2l4.1 4.01c.3.301.2.502.2.702 0 .1-.2.3-.6.3H24.408c-.9 0-1 .803-1 1.103v17.24l-.3.302H15.81l-.2-.1-.2-.201v-.1c-.1-.1-.1-.2-.1-.301zm28.497-15.436l-.1 7.317-.1.1c-.1.1-.1.1-.2.1H25.808l-.2-.2c-.1-.1-.2-.3-.2-.401v-7.217l.2-.2c.1-.1.3-.201.4-.201l17.498.2.1.1c.1.1.1.1.1.201l.1.2zM18.61 79.468c-.6.702-.9 1.504-.9 2.406v8.019c0 .3-.2.5-.3.5-.1 0-.2.101-.3.101-.1 0-.2 0-.3-.1-2.3-.902-3.8-2.606-4.6-4.812-.6-1.804-.4-3.307.1-5.212.8-3.007 1.5-5.914 2.2-8.72.1-.3.3-.401.6-.401h8l.2.2c.1.1.2.301.2.401v6.014l-.2.2c-.1.101-.3.101-.5.101-1.7-.3-3.1.1-4.2 1.303zm17.598 8.42c-.6 1.403-1.6 2.305-3 2.807-.5.2-1.3.3-2.5.3H20.21c-.4 0-.6-.3-.6-.601v-8.52c0-.702.3-1.303.9-1.704.6-.401 1.4-.3 2 0 .6.4 1 1.002 1 1.804v4.31c0 .3.4.802.8.802h11.498l.3.1.2.2v.101c0 .3-.1.401-.1.401zm-10.199-2.606c-.2 0-.3-.1-.4-.2-.1-.1-.2-.301-.2-.502V63.13l.2-.2c.1-.101.3-.201.4-.201h17.398l.2.2c.1.1.2.301.2.401v7.017c0 .3.1.601.3.802.2.2.4.3.8.3h11.299c.3 0 .6-.1.8-.3.2-.2.3-.401.3-.602V63.23l.3-.3h17.698l.2.2c.1.1.2.3.2.4v21.35c0 .402-.3.602-.6.602H26.008v-.2zm55.394 5.212v.2l-.3.301h-10.9c-1 0-1.8-.1-2.3-.3-1.4-.502-2.399-1.404-2.999-2.807l-.1-.2.1-.301c.1-.1.2-.3.5-.3h11.399c.2 0 .4-.101.5-.302.2-.2.3-.4.3-.5v-4.511c0-1.203 1-1.905 1.9-1.905 1 0 2 .702 2 2.005-.1 2.806-.1 5.713-.1 8.62zm1.9-.3v-7.719c0-.802-.1-1.403-.2-1.804-.7-2.005-2.8-3.007-4.9-2.305h-.4l-.2-.2-.1-.302v-5.913c0-.301.3-.602.6-.602h7.7c.3 0 .5.2.6.501.8 3.308 1.6 6.516 2.4 9.723.9 3.81-1 7.518-4.8 9.021h-.4l-.2-.2-.1-.2z" fill="#D08935"/></svg>