<svg width="100" height="100" fill="none" xmlns="http://www.w3.org/2000/svg"><path d="M57.78 79.324c.2.1.3.3.4.499.598 1.795 1.495 3.49 2.593 4.887 3.092 4.09 7.182 7.082 11.971 8.977.998.399 1.596.399 2.294.1 1.796-.599 3.492-1.397 4.988-2.394 2.794-1.696 9.577-6.583 10.775-14.263.1-.898.199-1.895.199-3.092V57.48c0-.2 0-.399-.1-.598-.2-.599-.698-.798-1.995-.798h-.599c-5.386-.3-10.275-2.793-13.267-6.583-.2-.3-.6-.499-.898-.499-.3 0-.699.2-.998.499-3.292 4.09-8.779 6.583-14.665 6.583-.598 0-1.297.399-1.297 1.197v18.352c0 .599-.398.998-.997.998h-45.39l-.6-.499v-62.24l.1-.398.3-.3.399.1H28.35c.599 0 .998.4.998.997v19.55c0 .499 0 .798.1.998.1.498.698.797 1.296.698.2 0 .4-.1.499-.3 1.596-1.196 2.993-2.194 4.09-2.992l.2-.2h.399c.2 0 .399.1.598.2l4.29 3.092c.399.3.898.3 1.397-.1l4.389-3.191h.399c.2 0 .4.1.599.2 1.396.997 2.693 1.994 4.09 2.992.399.299.898.398 1.297.199.399-.2.598-.598.598-1.197V14.192l.1-.4.399-.398.3-.1h17.657c.598 0 .997.4.997.997V46.01a4.09 4.09 0 012.195 0V12.596c0-.499 0-.698-.1-.798-.1-.3-.2-.798-1.396-.798H9.097c-.598 0-.798.3-.997.499 0 .2-.1.498-.1 1.197v65.132c0 .698.3.997.499 1.097.1 0 .399.2 1.496.2h47.486l.3.199zm1.696-19.849c0-.499.399-.997.898-.997 5.087-.4 9.477-2.394 13.068-5.686a.965.965 0 011.397 0c3.492 3.292 7.881 5.287 13.069 5.686h.398l.3.299c.2.2.3.399.3.698v15.161c0 2.793-.799 5.486-2.395 7.88-2.694 3.99-6.784 7.281-11.772 9.076-.1 0-.3.1-.399.1-.1 0-.2 0-.3-.1-.498-.1-.997-.299-1.595-.598-5.188-2.294-11.572-7.381-12.57-14.064-.1-.798-.2-1.895-.2-3.192-.199-4.787-.199-9.575-.199-14.263zM31.643 14.291c0-.598.4-.997.998-.997h18.256l.598.499V30.55l-.3.498-.498.3h-.499l-.299-.2c-.698-.499-1.397-.997-1.995-1.496-.798-.599-1.297-.3-1.596-.1l-4.19 2.992c-.2.1-.4.2-.599.2-.2 0-.399-.1-.598-.2-1.297-.997-2.694-1.994-4.09-2.992-.2-.1-.799-.498-1.397-.1-.798.5-1.496 1.098-2.295 1.696l-.2.2h-.498l-.499-.2-.299-.499V14.291z" fill="#D08935"/><path d="M67.584 71.607c1.651 1.286 3.2 2.679 4.852 4.072.619.535 1.445.428 2.064-.215 2.58-2.892 5.161-5.892 7.948-9 .517-.535.62-.964.413-1.5a1.663 1.663 0 00-.619-.857c-.413-.107-.826-.107-1.136 0-.103 0-.31.215-.825.75-2.168 2.465-4.336 4.929-6.4 7.286l-.31.214-.62.107-.309-.214c-1.135-.964-2.168-1.821-3.303-2.786-.413-.321-.826-.535-1.032-.535-.207 0-.31 0-.413.107-.413.214-.723.535-.826.857-.103.321-.103.75.103 1.071.103.215.206.429.413.643z" fill="#D08935"/><rect x="26" y="65" width="6" height="6" rx="1" stroke="#D08935" stroke-width="2"/><rect x="15" y="65" width="6" height="6" rx="1" stroke="#D08935" stroke-width="2"/></svg>