<svg width="100" height="100" fill="none" xmlns="http://www.w3.org/2000/svg"><path d="M75.077 19.933v-5.466a5.47 5.47 0 00-1.6-3.866A5.46 5.46 0 0069.615 9H20.462a5.46 5.46 0 00-3.862 1.601 5.47 5.47 0 00-1.6 3.866v71.066c0 1.45.575 2.84 1.6 3.866A5.46 5.46 0 0020.46 91h49.154a5.46 5.46 0 003.862-1.601 5.47 5.47 0 001.6-3.866V58.2m-35.5 21.867H50.5m-5.462-19.134H25.924m0-10.933H47.77M25.923 39.067h27.308m10.24 19.816l-10.24 2.05 2.048-10.25 22.529-22.55 8.192 8.2-22.529 22.55z" stroke="#D08935" stroke-width="2.2" stroke-linecap="round" stroke-linejoin="round"/></svg>