<svg width="68" height="68" fill="none" xmlns="http://www.w3.org/2000/svg"><g fill="#D08935"><path d="M66.901 46.338c0-.1.099-.398.099-1.293V34.696c0-.696-.296-.895-.591-1.094-1.478-.696-2.857-1.293-4.334-1.99l-.197-.2c-.099-.099-.099-.198-.099-.298l-1.182-5.97c-.296-1.293-.492-2.189-.69-2.686-.788-1.89-2.856-3.184-4.925-3.184h-6.895c-.296 0-.592-.2-.592-.597V15.69c0-.895-.098-1.194-.492-1.492-.099 0-.394-.199-1.182-.199H2.478c-.788.199-1.182.398-1.38.796 0 .1-.098.398-.098 1.294v29.253c0 .896.099 1.294.591 1.493.099 0 .394.1 1.182.1h1.872c.295 0 .59.198.59.497.198 2.09.986 3.78 2.464 4.975 2.265 1.89 5.319 1.99 7.683.398 1.773-1.194 2.758-2.985 2.955-5.373v-.498h1.478l.295.299v.199c.099 2.189 1.183 4.179 2.857 5.373 1.576 1.194 3.645 1.492 5.615.896 2.561-.796 4.433-3.284 4.531-6.27v-.198l.296-.299h13.988l.296.299v.199c.098 3.184 2.265 5.87 5.22 6.368 1.872.398 3.744-.1 5.123-1.294 1.576-1.194 2.462-3.084 2.561-5.174v-.199l.197-.199c.099-.1.296-.199.394-.199h4.039c1.083.2 1.379.1 1.674-.398zM3.167 16.786l.296-.298h41.57l.295.298v19.602l-.295.299H3.463l-.296-.299V16.786zm12.61 32.239c-.198.597-.493.995-.986 1.492-.394.398-.886.796-1.38.995-.492.2-1.083.299-1.674.299a4.3 4.3 0 01-3.053-1.294c-.788-.895-1.281-1.99-1.281-3.184 0-.597.098-1.194.296-1.691.197-.597.492-.995.985-1.493.394-.398.886-.796 1.379-.995a3.944 3.944 0 013.349 0c.492.2.985.597 1.379.995s.69.896.985 1.493c.197.597.296 1.094.296 1.691s-.099 1.095-.296 1.692zm14.874 0c-.197.597-.493.995-.985 1.492-.394.398-.887.796-1.38.995-.492.2-1.083.299-1.674.299a4.3 4.3 0 01-3.054-1.294c-.788-.895-1.28-1.99-1.28-3.184 0-.597.098-1.194.295-1.691.197-.597.493-.995.985-1.493.394-.398.887-.796 1.38-.995a3.945 3.945 0 013.349 0c.492.2.985.597 1.379.995s.69.896.985 1.493c.197.597.295 1.094.295 1.691s-.098 1.095-.295 1.692zm14.776-4.677l-.296.299H33.015a.54.54 0 01-.493-.299c-.098-.199-.197-.398-.394-.597-1.28-2.189-3.447-3.383-5.812-3.283-2.364.1-4.53 1.492-5.614 3.88v.2l-.296.198h-2.463l-.197-.1c-.098 0-.197-.099-.197-.298-1.083-2.388-3.349-3.78-5.812-3.78-2.56 0-4.728 1.392-5.91 3.88l-.099.1-.295.198H3.167l-.098-.597v-4.875l.295-.299h41.964l.099.597v4.776zm19.406-6.965v2.289l-.296.398h-.886c-.197 0-.493-.1-.591-.299-.197-.199-.197-.398-.197-.597V37.98c0-.1 0-.199.098-.298 0-.1.099-.2.197-.299.099-.1.197-.199.296-.199.098 0 .197-.1.295-.1h.788l.296.3zM58.43 25.045l.098.199 1.182 6.07-.098.198-.296.299h-4.334l-.295-.299v-6.368l.295-.298h3.152l.296.199zm-.985 25.373c-.788.895-1.97 1.293-3.054 1.293-1.084 0-2.266-.497-3.054-1.293-.788-.896-1.28-1.99-1.28-3.184 0-.597.098-1.194.295-1.692.197-.597.493-.995.985-1.492.394-.398.887-.796 1.38-.995a3.945 3.945 0 013.349 0c.492.199.985.597 1.379.995s.69.895.985 1.492c.197.597.295 1.095.295 1.692-.098 1.194-.492 2.388-1.28 3.184zm7.388-6.269c0 .299-.296.597-.591.597h-3.645l-.197-.1c-.099-.099-.197-.099-.197-.198-.099-.2-.296-.498-.394-.697-1.28-2.09-3.25-3.184-5.517-3.184a6.77 6.77 0 00-5.713 3.582l-.197.299h-.394l-.394-.1V21.96l.296-.298h7.29c.886 0 1.575.298 2.265.895l.295.2-.295.397c0 .1-.197.299-.493.299h-2.561c-.886 0-.985.199-.985.895v7.562c0 .598.099.896.197.996.099.099.394.199.788.199h5.22c.297 0 .592.099.888.199 1.083.497 2.068.994 3.152 1.392l.295.1v.398c0 .1-.098.398-.492.497-.887.2-1.478.697-1.675 1.593-.098.398-.098.895-.098 1.393v.398c0 1.194.788 2.09 1.97 2.189l1.182.1.098.497v2.288h-.098z"/><rect x="7" y="20" width="2" height="13" rx="1"/><rect x="13.5" y="20" width="2" height="13" rx="1"/><rect x="20" y="20" width="2" height="13" rx="1"/><rect x="26.5" y="20" width="2" height="13" rx="1"/><rect x="33" y="20" width="2" height="13" rx="1"/><rect x="39.5" y="20" width="2" height="13" rx="1"/><rect x="54" y="38" width="2" height="5" rx="1" transform="rotate(-90 54 38)"/></g></svg>