<svg width="68" height="68" fill="none" xmlns="http://www.w3.org/2000/svg"><g fill="#D08935"><path d="M33.96 47.999v11.51c0 .726.105 1.037.52 1.348.103.104.414.104 1.036.104H59.47c1.14 0 1.452-.311 1.452-1.452V47.791c0-.622-.208-1.036-.519-1.244-.103-.104-.414-.104-1.037-.104h-4.459a.223.223 0 01-.207-.207V35.348c0-.933-.311-1.348-1.348-1.348H41.427c-.622 0-.933.104-1.14.519 0 .103-.104.414-.104 1.036v10.681a.223.223 0 01-.208.207h-4.459c-.725 0-1.14.104-1.348.519-.103.104-.207.415-.207 1.037zm22.4 4.251c.103-.103.206-.414.206-.622v-2.8c0-.207.104-.31.312-.31h2.074v10.161l-.104.104c0 .104-.104.104-.104.104H48.686l-.104-.104s-.104-.104-.104-.207v-9.851c0-.208.104-.311.311-.311h1.867c.104 0 .311.103.311.31v2.697c0 .622.207.933.83.933h4.147c.208 0 .311-.104.415-.104zm-1.349-3.733l.207.208v2.177h-2.696l-.103-.103c-.104 0-.104-.104-.104-.208v-2.074l.104-.103s.103 0 .103-.104h.104l2.385.207zm-8.918-12.34l.104-.103h2.696v2.281l-.104.104s-.103.104-.207.104h-2.489l-.103-.104s-.104-.104-.104-.208l.207-2.073zm-3.836 0c.103-.103.207-.103.31-.103h1.97c.105 0 .312.104.312.311v2.592c0 .415.104.726.207.83.104.104.311.207.726.207h3.733c.83 0 1.037-.207 1.037-.933v-2.903l.104-.104h-.104 2.074c.104.104.104.104.104.207v10.162H42.464l-.104-.103c-.103 0-.103-.104-.103-.104V36.178zm-2.385 12.548c.103-.208.103-.208.207-.208h2.489l.103.104c.104.104.104.104.104.207v2.074l-.104.104s-.103.104-.207.104h-2.489l-.103-.104c0-.104-.104-.104-.104-.207v-2.074h.104zm-3.837 0c0-.104.104-.208.207-.208h1.867c.103 0 .31.104.31.311v2.8c0 .208.105.415.208.519.104.103.415.207.83.207h3.837c.31 0 .725-.207.725-.622v-3.007c0-.104.104-.208.312-.208h1.97l.103.104v10.162l-.103.104H36.242l-.103-.104s-.104-.104-.104-.207v-9.851z"/><path d="M18.536 42.627h7.618c.326 0 .653-.108.87-.326 3.918-3.483 7.836-6.965 11.863-10.448.109-.109.218-.109.218-.109h12.189c1.632 0 3.047-.218 4.244-.544 1.85-.544 3.047-.87 3.482-1.088 1.633-.653 2.721-2.177 2.939-3.81.217-1.632-.436-3.264-1.742-4.244-.544-.435-1.632-.98-2.285-1.415l-.109-.109c-2.176-1.197-4.462-1.85-6.965-2.067-.544 0-1.306-.11-2.285-.11h-5.66c-.108 0-.217 0-.217-.108L30.29 7.366c-.218-.218-.436-.327-.762-.327h-7.4c-.436 0-.654 0-.762.109-.436.218-.762.762-.654 1.197 0 .109.11.327.436.653l7.183 9.033v.218s-.11.109-.218.109h-7.945c-.108 0-.108-.11-.108-.11-2.721-2.938-5.333-5.767-7.945-8.706-.218-.217-.544-.435-.87-.435H8.631c-.87 0-1.306.218-1.414.87 0 .218 0 .436.108.762.871 3.157 1.85 6.313 2.83 9.36 0 .109 0 .327-.109.327-.653.326-1.306.544-1.959.87-.653.327-.87.544-.87 1.197v2.068c0 .436.217.762.87.98.87.435 1.85.87 2.721 1.306l.109.108s0 .11.109.11v.217c-1.197 1.741-2.395 3.374-3.592 5.115-.326.218-.435.327-.435.436 0 .217 0 .435.109.544a.831.831 0 00.544.217H10.7c.109 0 .218 0 .436-.108l5.985-3.592c.109-.109.218-.109.327 0l3.7 1.741c.326.11.435.218.762.218h2.503l.217.218v.217l-7.074 8.49c-.326.326-.326.761-.217 1.088.217.435.653.761 1.197.761zm5.768-33.085v-.217s0-.11.109-.11H29.2l9.904 8.707v.218c0 .109-.11.109-.11.109H31.27l-.109-.109-6.856-8.598zm-5.55 17.522l-.11.11-7.944 5.005H9.503l-.109-.108h-.109v-.218l3.483-5.006.218-.11h5.55l.109.11v.108c.109 0 .109.11.109.11zm2.176 13.06c3.265-4.135 6.639-8.271 9.904-12.407.544-.653.326-1.306-.11-1.632-.435-.327-.979-.436-1.523.217-.87 1.089-1.741 2.068-2.612 3.157h-4.244c-.218 0-.435 0-.653-.11-.653-.326-1.197-.543-1.85-.87l-.109-.109v-.217s0-.11.109-.11c.653-.434 1.415-.87 2.068-1.305.326-.218.544-.327.544-.436.109-.108.109-.326 0-.544a.85.85 0 00-.436-.435c-.108 0-.217-.109-.544-.109h-8.488c-.218 0-.436 0-.653-.109-.98-.435-1.96-.87-2.939-1.414-.109 0-.109-.11-.217-.218 0-.109-.11-.109-.11-.218s0-.217.11-.217c.108 0 .108-.11.217-.218l2.395-1.088c.761-.327.761-.98.544-1.524-.762-2.72-1.633-5.66-2.503-8.598v-.109l.108-.108h.762c.109 0 .218 0 .218.108l7.836 8.707c.326.326.544.326 1.088.326h30.69c2.285.218 4.462.762 6.42 1.85.218.11.218.218.218.327 0 .109-.109.218-.326.218h-2.286c-.653 0-.87.326-.87.653 0 .326.326.762.761.762h5.116c.108 0 .108.108.108.108a2.54 2.54 0 010 2.177c-.326.653-.87 1.197-1.523 1.415-1.524.544-3.592 1.197-5.442 1.306-.544 0-1.306.109-2.285.109h-8.598s0-.218.11-.327c.434-.326.87-.762 1.305-1.197.327-.326.435-.544.544-.544.218-.435.11-.87-.217-1.197-.218-.218-.653-.436-1.089-.327-.108 0-.326.109-.653.435-5.224 4.68-10.556 9.251-15.78 13.931-.109.109-.218.109-.326.109h-4.571l-.218-.218z"/></g></svg>