<svg width="48" height="48" fill="none" xmlns="http://www.w3.org/2000/svg"><path d="M32.898 32.638a6.317 6.317 0 00-2.481 5.013c0 3.504 2.875 6.349 6.416 6.349 3.541 0 6.417-2.845 6.417-6.349a6.319 6.319 0 00-2.68-5.16M3.403 23.228a13.942 13.942 0 018.944-3.227c7.678 0 13.907 6.165 13.907 13.761m.295-1.553h13.926c.997 0 2.432-1.018 2.798-2.012l2.654-7.2c.367-.995-.719-1.671-1.715-1.671H26.775L22.78 6.8c-.207-.965-.806-1.8-1.802-1.8H6.552c-.994 0-1.802.805-1.802 1.8v15.12m28.417-.593V14.82c0-4.529 3.365-5.284 5.5-5.284v1.814s-1.834-.135-1.834 3.628v6.349m-24.75 8.616c2.275 0 4.125 1.831 4.125 4.081 0 2.25-1.85 4.082-4.125 4.082s-4.125-1.832-4.125-4.082 1.85-4.081 4.125-4.081zm0-5.895C6.517 24.047 2 28.515 2 34.023 2 39.53 6.517 44 12.083 44s10.084-4.47 10.084-9.977c0-5.508-4.518-9.977-10.084-9.977zm10.01-7.256H8.42V8.628h11.422l2.25 8.163z" stroke="#D08935" stroke-width="2" stroke-miterlimit="10" stroke-linecap="round" stroke-linejoin="round"/><path d="M36.5 40a2.5 2.5 0 100-5 2.5 2.5 0 000 5z" fill="#D08935"/></svg>