<svg width="128" height="48" fill="none" xmlns="http://www.w3.org/2000/svg"><g clip-path="url(#clip0_566_18255)"><path d="M63.3 0c3.821.065 5.143 2.595 4.793 5.094-.414 3.114-3.376 4.866-6.036 5.093-1.21.081-2.357.081-3.312.098l-.908 6.537h-3.376L56.802.016 63.3 0zm-.924 7.138c1.242-.163 2.07-.86 2.23-1.98.159-1.2-.224-1.8-1.61-1.979-.986-.146-2.085-.178-3.248-.178L59.143 7.3c1.067 0 2.214-.033 3.233-.162zm17.835-3.991h-6.736l-.51 3.682h5.574l-.446 3.147h-5.558l-.955 6.862h-3.376L70.545 0h10.112l-.446 3.147zm15.415 13.691h-3.63l-.877-3.423h-6.688l-1.784 3.423h-3.662L88.237 0h2.787l4.602 16.838zM88.922 5.11l-2.787 5.158h4.156l-1.37-5.158zm20.048-1.963h-6.752l-.509 3.682h5.573l-.446 3.147h-5.557l-.94 6.862h-3.376L99.288 0H109.4l-.43 3.147zm11.864 0h-6.736l-.509 3.682h5.557l-.43 3.147h-5.573l-.94 6.862h-3.376L111.152 0h10.128l-.446 3.147zm-54.891 27.22c.7-.049 1.29-.292 1.895-.34-.064.405-.223.956-.637 1.67-.319.098-.67.244-1.02.39-.254.145-.62.632-1.13 1.249.398.47.78.924 1.162 1.346l2.31 2.612h-4.539l-.382-.454c-.335-.39-.685-.795-1.02-1.233-1.385 1.038-2.945 1.833-5.207 1.865-2.834 0-5.286-1.59-5-4.785.08-1.006.542-1.914 1.21-2.677 1.131-1.184 2.724-1.963 2.994-2.563-.16-.422-1.019-2.044-.86-3.05.319-2.4 2.214-3.747 4.093-4.022 3.073-.422 4.952 1.362 4.857 3.666-.08 2.027-2.086 2.984-3.328 3.893.063.567.286 1.168.7 1.768 1.593.843 2.803.681 3.902.665zm-7.915-.535c-.286.178-.94.535-1.385 1.038-.366.47-.637 1.022-.685 1.59-.127 1.184 1.003 1.8 2.405 1.654.987-.13 1.831-.73 2.102-1.038-.86-1.054-1.672-2.174-2.437-3.244zm1.035-5.402c-.08.633.558 1.395.621 1.557.876-.454 1.768-.99 1.848-1.573.127-.86-.144-1.347-1.1-1.347-.843 0-1.241.487-1.369 1.363zm9.141-3.958h3.758l2.835 11.274 5.94-11.274h3.742l-9.204 16.822h-2.5l-4.57-16.822zm27.74 3.147h-7.182l-.51 3.682h6.004l-.43 3.147h-6.003l-.51 3.699h7.182l-.43 3.147H83.507l2.325-16.822H96.39l-.446 3.147zm14.348 13.48l-1.067-.39.064-1.492c-1.561 1.493-3.679 2.271-6.211 2.271-4.188-.016-7.452-3.893-6.8-8.484.765-5.596 5.017-9.003 9.46-9.035 3.296-.065 5.78 1.46 6.306 3.828l-2.994 1.574c-.446-1.493-1.847-2.206-3.551-2.174-2.484.049-5.175 2.174-5.67 5.726-.413 3.001 1.37 5.321 3.823 5.321 2.436-.016 4.538-1.574 4.793-3.455l-4.156.016-.016-2.806 8.089-.033c-.318 2.807-.955 6.554-2.07 9.133zm17.708.195h-3.631l-.876-3.423h-6.688l-1.783 3.423h-3.647l9.252-16.838h2.787L128 37.294zm-6.704-11.712l-2.787 5.158h4.156l-1.369-5.158z" fill="#66696A"/><path d="M55.64 47.221l-.112.65h-3.694l1.194-6.814h.669l-1.083 6.164h3.026zm7.373-4.541a2.516 2.516 0 00-.542-.893 2.537 2.537 0 00-.828-.6 2.562 2.562 0 00-1.067-.21 3.33 3.33 0 00-1.497.34 3.985 3.985 0 00-1.21.908c-.35.39-.621.828-.812 1.33a4.066 4.066 0 00-.303 1.574c0 .405.064.779.192 1.12.127.34.302.648.54.891.24.26.51.454.829.6.319.146.685.211 1.067.211.541 0 1.035-.113 1.497-.34a3.79 3.79 0 001.21-.925c.35-.39.621-.827.828-1.33a4.067 4.067 0 00.303-1.574 3.654 3.654 0 00-.207-1.103zm-.733 2.465c-.16.406-.382.762-.653 1.087-.27.324-.605.584-.971.779a2.505 2.505 0 01-1.178.308c-.319 0-.622-.049-.876-.163a1.94 1.94 0 01-.653-.47 2.337 2.337 0 01-.414-.73 2.91 2.91 0 01-.144-.94c0-.276.032-.552.112-.828a4.15 4.15 0 01.302-.779c.128-.243.287-.486.478-.697.191-.211.382-.406.621-.568.223-.162.462-.292.733-.373.255-.097.525-.13.812-.13.318 0 .62.049.876.162.255.114.477.276.653.47.175.212.318.455.414.73.095.277.143.601.143.942a3.702 3.702 0 01-.255 1.2zm7.612-1.005l-.414 2.416a4.617 4.617 0 01-1.338 1.022c-.51.26-1.035.373-1.592.373-.414 0-.797-.08-1.13-.227a2.647 2.647 0 01-.877-.6 2.92 2.92 0 01-.78-2.044c0-.551.095-1.07.303-1.557a4.68 4.68 0 01.828-1.314c.35-.373.764-.681 1.242-.908a3.586 3.586 0 011.544-.341c.398 0 .765.065 1.1.21.318.13.62.325.86.569l-.447.47c-.175-.178-.414-.308-.7-.422a2.596 2.596 0 00-.924-.178c-.43 0-.828.097-1.21.292a3.317 3.317 0 00-1.004.762c-.286.325-.51.682-.668 1.07-.16.406-.255.812-.255 1.234 0 .34.048.649.16.94.095.293.254.536.445.747.191.21.43.373.7.486.271.114.59.179.924.179.398 0 .796-.081 1.163-.276a3.943 3.943 0 001.019-.697l.27-1.558h-1.337l.111-.649h2.007zm2.516-3.05l-1.178 6.813h-.67l1.18-6.814h.668zm5.016 1.038l-.669.194a.676.676 0 00-.366-.502 1.35 1.35 0 00-.621-.146c-.175 0-.334.032-.525.08-.176.05-.335.13-.478.228a1.35 1.35 0 00-.367.373.94.94 0 00-.143.519c0 .195.048.357.175.47.112.114.24.211.398.26l1.37.487c.223.08.398.178.541.292.144.113.271.227.35.373.08.13.144.276.192.438.032.146.064.308.064.47 0 .357-.064.698-.207.973a1.932 1.932 0 01-.558.73 2.44 2.44 0 01-.828.455 3.42 3.42 0 01-1.003.162 2.052 2.052 0 01-1.847-1.087 2.01 2.01 0 01-.223-.633l.668-.178c.032.162.08.324.16.47a1.48 1.48 0 00.78.665c.175.065.366.098.59.098.206 0 .413-.033.62-.114.207-.08.398-.178.574-.324.175-.146.302-.308.414-.487a1.19 1.19 0 00.159-.616c0-.244-.048-.454-.16-.633a.958.958 0 00-.54-.406l-1.386-.486a1.439 1.439 0 01-.717-.52 1.386 1.386 0 01-.255-.794c0-.325.064-.6.176-.844.127-.243.286-.454.493-.616.207-.162.446-.276.733-.373.286-.081.573-.13.891-.13.207 0 .399.032.574.097.175.065.334.146.477.244.144.097.255.227.335.357.08.146.127.292.16.454zm6.911-1.038l-.095.648h-2.357l-1.067 6.165h-.669l1.067-6.165h-2.34l.11-.649h5.351zm1.848 0l-1.179 6.813h-.669l1.179-6.814h.669zm5.78 0l-2.994 3.049 2.389 3.764h-.796l-2.07-3.277-.908.908-.398 2.369H86.5l1.194-6.814h.67l-.59 3.342 3.264-3.342h.924zM46.114 14.518C42.514 5.986 34.218 0 24.52 0 11.526 0 1 10.723 1 23.96c0 1.005.08 1.979.191 2.936a59.75 59.75 0 007.453.47c14.045 0 27.007-4.77 37.47-12.848z" fill="#1E4476"/><path d="M47.053 21.04c-9.745 6.456-21.322 10.203-33.727 10.203A60.57 60.57 0 011 29.978c2.628 10.317 11.8 17.925 22.74 17.925 12.994 0 23.52-10.723 23.52-23.96a25.178 25.178 0 00-.207-2.903z" fill="#1E4476"/></g><defs><clipPath id="clip0_566_18255"><path fill="#fff" d="M0 0h128v48H0z"/></clipPath></defs></svg>