<svg width="40" height="40" fill="none" xmlns="http://www.w3.org/2000/svg"><g fill="#D08935"><path d="M2.648 15.649l.002-4.185c0-.68.298-1.109 1.018-1.095.032 0 .048-.016.048-.049a525 525 0 000-2.026c0-.387.034-.654.102-.799.196-.416.553-.493 1.004-.494h1.876c.377 0 .64.042.786.122.41.225.449.606.447 1.087-.002.712-.002 1.422 0 2.13 0 .01.003.017.01.023.005.006.013.01.022.01a64.42 64.42 0 011.058 0c.359.003.625.185.799.547.763 1.58 1.528 3.16 2.295 4.738a.06.06 0 00.059.038c.459.003.843-.064 1.168.347l.865 1.088c.684.861 1.76 1.58 2.861 1.685.028.003.042-.01.042-.04.003-.969.003-1.936 0-2.902 0-.258.096-.442.289-.553.11-.062.29-.093.54-.094.697-.002 1.39-.002 2.084 0a.024.024 0 00.017-.008.025.025 0 00.007-.018v-3.054c0-.562.189-.83.738-.83h11.368c.62 0 .884.164.884.815a5248.232 5248.232 0 01.003 3.08.024.024 0 00.004.007.02.02 0 00.015.006l2.076.001c.25 0 .43.03.54.091.197.11.297.292.297.547l-.001 2.968a.05.05 0 00.013.033.04.04 0 00.032.014c.74-.003 1.486-.003 2.237.001.138.001.288.081.45.24.462.455.31.839.049 1.398l-3.483 7.48a.05.05 0 01-.024.024.048.048 0 01-.033.004 3.961 3.961 0 00-1.842-.03c-.035.007-.044-.006-.029-.04l.99-2.123a.021.021 0 00-.002-.02.022.022 0 00-.008-.008.022.022 0 00-.01-.003H5.296a.058.058 0 00-.036.013.06.06 0 00-.02.034 7.08 7.08 0 01-.724 1.935c-.053.097-.053.152-.051.26 0 .029-.012.047-.038.055a4.1 4.1 0 00-1.668 1.037c-.027.027-.041.022-.042-.018a26.967 26.967 0 01-.002-1.363c.007-.291.017-.412.17-.671.74-1.273.949-2.608.623-4.006-.074-.32-.253-.825-.537-1.512-.64-1.553-1.277-3.107-1.911-4.663-.099-.241-.075-.496.07-.764.304-.561.93-.425 1.478-.448.027-.001.04-.015.04-.042zm3.53-6.818a.022.022 0 00-.007-.015.02.02 0 00-.015-.007h-.66a.02.02 0 00-.015.007.022.022 0 00-.006.015v1.518c0 .006.002.012.006.016a.02.02 0 00.015.006h.66a.02.02 0 00.015-.006.022.022 0 00.006-.016V8.831zm3.95 6.865a.026.026 0 00.022-.013.028.028 0 00.001-.027l-1.68-3.46a.027.027 0 00-.009-.01.025.025 0 00-.014-.004H4.427a.026.026 0 00-.02.008.028.028 0 00-.007.019v3.46c0 .007.003.014.008.02a.026.026 0 00.02.008l5.7-.001zm15.786-3.06a.03.03 0 00-.008-.021.03.03 0 00-.021-.01H21.33a.03.03 0 00-.021.01.03.03 0 00-.009.022v2.559a.03.03 0 00.009.021.03.03 0 00.02.01h4.556a.03.03 0 00.02-.01.03.03 0 00.01-.021v-2.56zm5.871-.003a.028.028 0 00-.008-.02.026.026 0 00-.018-.007h-4.567a.026.026 0 00-.018.008.027.027 0 00-.008.018V15.2c0 .007.003.013.008.018a.026.026 0 00.018.008h4.567a.026.026 0 00.024-.016.027.027 0 00.002-.01v-2.567zm-8.807 3.916a.033.033 0 00-.01-.024.032.032 0 00-.022-.01h-4.549a.032.032 0 00-.022.01.034.034 0 00-.01.024v2.296a.034.034 0 00.032.033h4.549a.032.032 0 00.022-.01.033.033 0 00.01-.023v-2.296zm5.87.003a.037.037 0 00-.01-.026.035.035 0 00-.025-.01h-4.545a.035.035 0 00-.025.01.037.037 0 00-.01.026v2.29c0 .009.003.018.01.025.007.007.016.01.025.01h4.545c.01 0 .019-.003.025-.01a.037.037 0 00.01-.026v-2.29zm5.87 0a.037.037 0 00-.01-.026.035.035 0 00-.026-.01h-4.545a.035.035 0 00-.025.01.037.037 0 00-.01.026v2.29c0 .009.003.018.01.025.007.007.016.01.025.01h4.545c.01 0 .019-.003.025-.01a.037.037 0 00.01-.026v-2.29zm1.998 4.159c.008-.019.003-.028-.017-.028h-18.92c-1.732 0-3.214-.616-4.447-1.85-.367-.367-.725-.848-1.058-1.289a.095.095 0 00-.075-.038H3.243a.02.02 0 00-.018.01.024.024 0 00-.002.022c.554 1.35 1.105 2.7 1.654 4.048a7.13 7.13 0 01.526 2.382c0 .01.004.018.01.024.006.006.015.01.024.01H35.14c.03 0 .05-.014.063-.041l1.513-3.25z"/><path d="M7.89 13.298l-2.395-.005a.61.61 0 00-.603.619v.047c0 .342.268.62.6.62l2.396.005a.61.61 0 00.603-.619v-.046a.611.611 0 00-.601-.621zM6.332 20.56c.42 0 .76-.35.76-.783a.772.772 0 00-.76-.783c-.42 0-.76.35-.76.783 0 .432.34.783.76.783zm2.628-.001c.42 0 .76-.35.76-.782a.77.77 0 00-.76-.782.77.77 0 00-.758.782c0 .432.34.782.759.782zm2.631.001c.42 0 .76-.35.76-.782a.772.772 0 00-.76-.783c-.42 0-.76.35-.76.783 0 .432.34.782.76.782zm11.086 8.649a3.465 3.465 0 014.527.4c.448.461 1.012 1.174 1.518 1.416.668.32 1.47.175 2.003-.37.308-.316.612-.634.914-.955 1.43-1.52 3.7-1.543 5.144-.03a397.65 397.65 0 011.549 1.631c.164.175.27.319.315.431.237.582-.161 1.21-.767 1.243-.341.018-.54-.133-.79-.398-.432-.46-.865-.918-1.3-1.376-.332-.351-.596-.575-.79-.672-.7-.348-1.547-.171-2.089.418-.472.512-1.01 1.134-1.532 1.481-1.412.944-3.253.685-4.426-.524-.23-.237-.46-.475-.69-.715-.53-.554-.908-.863-1.627-.833-.948.039-1.52.886-2.125 1.522-1.263 1.331-3.263 1.498-4.705.37-.42-.329-.896-.884-1.32-1.328-.568-.593-1.433-.746-2.145-.346-.147.083-.338.247-.574.492l-.81.84c-1.215 1.26-3.14 1.465-4.56.428-.391-.286-.78-.733-1.144-1.117-.329-.347-.576-.566-.743-.657a1.777 1.777 0 00-1.717.032c-.147.086-.334.252-.56.496-.473.51-.94 1.025-1.404 1.544-.32.36-.69.446-1.108.259-.534-.24-.65-.997-.24-1.444.538-.588 1.08-1.174 1.623-1.758 1.282-1.373 3.329-1.528 4.784-.347.334.27.698.693 1.031 1.045.284.3.505.494.663.583.502.285 1.15.293 1.663.026.467-.243.975-.878 1.368-1.3 1.207-1.296 3.104-1.526 4.56-.53.414.283.81.738 1.183 1.133.347.368.606.599.779.691a1.779 1.779 0 001.725-.048c.134-.082.31-.238.528-.467.41-.432.857-.953 1.289-1.266z"/></g></svg>