<svg width="40" height="40" fill="none" xmlns="http://www.w3.org/2000/svg"><g fill="#D08935"><path d="M13.711 18.397a56.1 56.1 0 01-1.465.006 1.15 1.15 0 01-.512-.123L9.45 17.222a.074.074 0 00-.073.005l-3.586 2.24a.578.578 0 01-.305.086c-.618 0-1.251-.001-1.9-.004-.356-.001-.624-.284-.582-.634.012-.095.076-.226.192-.393.721-1.039 1.447-2.082 2.179-3.13a.045.045 0 00-.018-.067c-.55-.252-1.103-.508-1.658-.768-.332-.155-.603-.366-.606-.727-.003-.42-.003-.84-.001-1.26.002-.449.223-.644.634-.825.396-.174.793-.346 1.19-.515.022-.01.03-.025.023-.048-.585-1.896-1.17-3.79-1.755-5.678-.07-.231-.095-.417-.072-.556.087-.526.496-.655 1-.658a169 169 0 011.625.003.823.823 0 01.636.285c1.59 1.781 3.175 3.56 4.755 5.335a.136.136 0 00.102.046l4.767-.004c.03 0 .036-.012.017-.036a8057.236 8057.236 0 00-4.36-5.478c-.15-.19-.24-.342-.27-.457a.805.805 0 01.467-.923c.102-.04.273-.06.513-.06h4.541c.24 0 .442.074.609.22 2.536 2.239 5.073 4.476 7.61 6.714.017.015.04.024.063.024 1.147-.002 2.293-.001 3.437 0 .633.001 1.106.016 1.42.044 1.534.137 2.975.566 4.324 1.288.416.222 1.121.588 1.506.905 1.813 1.492 1.321 4.28-.794 5.196-.31.135-1.028.358-2.153.671-.753.21-1.636.317-2.65.322-2.497.013-4.99.02-7.48.02a.11.11 0 00-.074.028 6982.982 6982.982 0 01-7.24 6.39.883.883 0 01-.605.226l-4.695-.012c-.718-.003-1.122-.735-.668-1.305l4.218-5.29a.029.029 0 00.006-.015c0-.005 0-.01-.003-.015a.028.028 0 00-.025-.015zm4.362-8.446a.022.022 0 00.018.008l4.592-.003a.023.023 0 00.022-.028.022.022 0 00-.007-.012l-6.03-5.32a.023.023 0 00-.015-.005h-2.798a.023.023 0 00-.012.004.023.023 0 00-.009.01.023.023 0 00.003.024l4.236 5.322zM6.641 11.3c.142.46.052.888-.424 1.095l-1.46.634a.147.147 0 00-.065.211.146.146 0 00.062.055c.586.27 1.188.55 1.806.837a.768.768 0 00.327.072c1.726.002 3.453.002 5.18 0 .182 0 .311.015.388.045.31.119.442.547.268.814-.055.083-.178.184-.372.304-.434.27-.866.54-1.294.812a.022.022 0 00-.01.02c0 .003.002.007.004.01a.024.024 0 00.01.008c.372.17.746.343 1.12.518a.776.776 0 00.325.074c.827.004 1.655.004 2.485 0a.076.076 0 00.058-.028c.52-.652 1.043-1.3 1.57-1.946.668-.818 1.877.173 1.192 1.033a9017.829 9017.829 0 00-6.015 7.56.017.017 0 00-.003.008c0 .002 0 .005.002.008a.014.014 0 00.013.008l2.768.002a.137.137 0 00.09-.033 16989.9 16989.9 0 019.664-8.526c.193-.169.34-.273.44-.313.65-.258 1.299.484.982 1.1-.05.094-.169.226-.357.394-.267.237-.534.472-.799.702-.025.022-.02.033.012.033h5.047a18.462 18.462 0 001.421-.041c1.155-.104 2.387-.497 3.308-.82.85-.296 1.221-1.2.871-2.01a.069.069 0 00-.063-.041c-1 0-2.004.003-3.011.006-.795.002-.87-1.136.037-1.139a745.5 745.5 0 011.41-.002c.069 0 .073-.017.011-.05a9.55 9.55 0 00-3.86-1.139 20.99 20.99 0 00-1.422-.031h-17.4c-.32 0-.55-.048-.75-.274l-4.78-5.367a.08.08 0 00-.062-.028l-.374-.001a.019.019 0 00-.018.023c.559 1.807 1.115 3.608 1.668 5.403zm3.55 4.08a.023.023 0 00.008-.01.022.022 0 00-.02-.03H6.804a.022.022 0 00-.017.01l-2.109 3.03a.022.022 0 00-.001.024.022.022 0 00.008.008.022.022 0 00.012.003l.614.006a.022.022 0 00.012-.003l4.867-3.037z"/><path d="M23.358 27.355c.004-2.282.005-4.565 0-6.848 0-.328.03-.556.092-.681.171-.351.477-.43.873-.43h7.658c.715 0 1.002.274 1.002.976v7.002c0 .016.008.024.025.024h2.85c.34 0 .573.03.7.09.361.17.442.487.442.89v7.569c0 .812-.29 1.053-1.07 1.053H20.512c-.358 0-.602-.03-.73-.09-.39-.183-.44-.53-.44-.958l.001-7.398c0-.36.035-.608.105-.743.202-.388.567-.416 1.008-.414.953.006 1.907.005 2.861-.002.027 0 .04-.014.04-.04zm8.035.032v-6.375a.028.028 0 00-.028-.027l-1.214-.002a.035.035 0 00-.035.034v1.727c-.002.556-.227.72-.784.72-.791.002-1.582.002-2.374 0-.575 0-.702-.26-.7-.81.002-.542.002-1.087 0-1.635 0-.024-.013-.036-.037-.036H24.98a.027.027 0 00-.026.027v6.362a.026.026 0 00.026.026h6.403c.007 0 .011-.003.011-.011zm-2.416-6.378c0-.004 0-.007-.002-.01a.024.024 0 00-.005-.008.025.025 0 00-.018-.008h-1.53a.025.025 0 00-.018.008.024.024 0 00-.007.018v1.298a.026.026 0 00.026.025h1.529a.026.026 0 00.025-.025v-1.298zm-2.896 9.966c-.006.314-.302.498-.587.498l-2.469.001c-.455 0-.79-.121-.786-.623.004-.607.004-1.215 0-1.826 0-.023-.012-.035-.036-.035h-1.227c-.025 0-.038.012-.038.037v6.344a.038.038 0 00.037.038h6.385c.005 0 .01-.002.012-.005a.017.017 0 00.006-.012l-.001-6.386a.017.017 0 00-.017-.017h-1.224c-.022 0-.034.011-.034.033-.003.653-.01 1.304-.021 1.953zm-1.118-1.956a.03.03 0 00-.03-.03h-1.524a.03.03 0 00-.03.03v1.292a.03.03 0 00.03.03h1.524a.03.03 0 00.03-.03V29.02zm9.172 1.832c.002.291-.207.622-.532.623-.888.002-1.775.001-2.663-.001-.48-.002-.662-.23-.663-.71l-.001-1.738c0-.024-.012-.036-.036-.036h-1.23c-.029 0-.043.014-.043.042l.001 6.346a.034.034 0 00.033.033h6.376a.031.031 0 00.022-.01.032.032 0 00.01-.023v-6.374c0-.009-.005-.013-.014-.013h-1.223c-.025 0-.038.012-.039.038a212.8 212.8 0 00.002 1.823zm-1.141-1.833a.03.03 0 00-.03-.03l-1.522.002a.03.03 0 00-.028.019.03.03 0 00-.002.012l.002 1.29a.03.03 0 00.03.031l1.521-.002.012-.003a.03.03 0 00.01-.006.03.03 0 00.01-.022l-.003-1.29z"/></g></svg>