<svg width="40" height="40" fill="none" xmlns="http://www.w3.org/2000/svg"><g fill="#D08935"><path d="M21.788 31.086c-.867-1.961-.989-3.943-.366-5.947 1.274-4.103 5.61-6.59 9.863-5.688 3.208.681 5.76 3.133 6.499 6.299.89 3.81-1.03 7.75-4.608 9.43-3.602 1.689-7.81.706-10.309-2.358a.077.077 0 00-.063-.03c-6.544 0-13.094-.003-19.648-.008-.194 0-.4.023-.576-.038-.492-.171-.58-.533-.58-1.038V5.132c0-.334.037-.57.112-.705.194-.356.513-.427.929-.427h27.067c.833 0 1.09.318 1.09 1.105v13.693a.02.02 0 01-.015.02h-.009a9.141 9.141 0 00-1.606-.15.07.07 0 01-.05-.021.069.069 0 01-.02-.05V5.708a.037.037 0 00-.037-.036h-7.375a.034.034 0 00-.024.01.033.033 0 00-.01.023l-.001 8.133c0 .246-.027.427-.08.54a.864.864 0 01-.983.447c-.105-.029-.26-.117-.47-.264l-1.613-1.133a.046.046 0 00-.053 0l-1.588 1.116c-.386.271-.775.457-1.174.177l-1.838-1.293a.049.049 0 00-.057 0c-.546.387-1.095.773-1.647 1.158-.212.147-.382.233-.511.256-.392.072-.823-.175-.945-.553-.03-.094-.045-.27-.045-.53V5.7a.03.03 0 00-.03-.03H3.719c-.014 0-.02.007-.02.02v25.39c0 .027.014.04.041.04h18.025c.026 0 .033-.011.023-.034zm-8.143-19.323c.37-.254.716-.306 1.09-.045l1.795 1.252a.043.043 0 00.05 0c.54-.382 1.083-.764 1.63-1.145.411-.286.769-.407 1.187-.11.415.294.72.51.918.645.029.02.043.013.043-.021V5.704a.034.034 0 00-.034-.033H12.78a.036.036 0 00-.036.035v6.65a.02.02 0 00.011.019.022.022 0 00.011.002.021.021 0 00.011-.004c.287-.207.576-.41.868-.61zm22.658 15.87a6.645 6.645 0 00-1.988-4.732 6.833 6.833 0 00-4.797-1.96c-.892 0-1.774.173-2.597.51a6.791 6.791 0 00-2.201 1.45 6.686 6.686 0 00-1.471 2.171 6.613 6.613 0 000 5.122c.34.812.84 1.55 1.47 2.17a6.793 6.793 0 002.202 1.452 6.874 6.874 0 002.597.509 6.83 6.83 0 004.797-1.96 6.646 6.646 0 001.988-4.732z"/><path d="M29.073 26.272c-.31.098-.567.389-.952.165-.096-.056-.223-.19-.382-.399a594.52 594.52 0 00-1.278-1.687c-.34-.446-.397-.773.098-1.104 1.816-1.218 4.27-1.175 6.021.065.43.303.25.698-.021 1.057-.485.636-.968 1.273-1.45 1.912-.2.264-.518.282-.806.15-.444-.202-.744-.313-1.23-.16zm2.233-2.323c-1.087-.484-2.502-.57-3.575.005-.027.015-.032.035-.013.06l.851 1.12c.017.021.038.028.064.019a2.704 2.704 0 011.762-.002.06.06 0 00.072-.021l.854-1.124a.038.038 0 00-.001-.047.036.036 0 00-.014-.01zM9.157 28.936a.605.605 0 01-.183.433.623.623 0 01-.44.178l-2.632-.004a.625.625 0 01-.439-.18.608.608 0 01-.181-.433l.005-2.6a.605.605 0 01.182-.433.621.621 0 01.44-.178l2.632.004a.613.613 0 01.62.613l-.004 2.6zm-1.21-1.986a.032.032 0 00-.02-.03.033.033 0 00-.012-.003l-1.386-.002a.033.033 0 00-.03.02.032.032 0 00-.002.012l-.003 1.37a.032.032 0 00.02.03.033.033 0 00.013.002l1.385.002a.033.033 0 00.023-.01.032.032 0 00.01-.022l.002-1.37zm6.566 1.988a.603.603 0 01-.18.43.62.62 0 01-.435.177h-2.641a.62.62 0 01-.435-.178.603.603 0 01-.18-.429v-2.61c0-.161.064-.316.18-.43a.62.62 0 01.435-.177h2.64a.62.62 0 01.436.178c.115.113.18.268.18.429v2.61zm-1.212-1.987a.034.034 0 00-.035-.035h-1.378a.034.034 0 00-.035.034v1.366c0 .009.004.017.01.024a.04.04 0 00.025.01h1.378a.036.036 0 00.025-.01.037.037 0 00.008-.011.035.035 0 00.002-.014v-1.364zm19.155 5.015c-.357.234-.834.588-1.223.28-.087-.068-.187-.224-.3-.468-.338-.728-.675-1.456-1.011-2.185-.17-.365.052-.602.364-.81.418-.279.636-.673.653-1.182.008-.217.03-.36.065-.428.12-.231.307-.295.576-.334.769-.11 1.538-.218 2.306-.326.585-.083.883.056.93.652a5.2 5.2 0 01-2.36 4.801zm-.554-1.065c1.011-.718 1.665-1.862 1.715-3.096.002-.032-.013-.045-.045-.04l-1.405.198a.051.051 0 00-.046.044 2.604 2.604 0 01-.849 1.532.055.055 0 00-.013.064l.595 1.285a.032.032 0 00.035.019.026.026 0 00.013-.006zm-2.818-1.319c-.336.821-.732 1.627-1.109 2.432-.221.473-.671.39-1.067.167-1.828-1.028-2.948-3.034-2.694-5.133.071-.59.509-.593 1.017-.521.793.11 1.586.223 2.38.338a.51.51 0 01.398.288c.119.231.047.51.108.768.086.364.263.632.529.803.355.227.62.413.438.858zm-1.915 1.298l.59-1.273a.06.06 0 00-.014-.07A2.577 2.577 0 0126.898 28c-.003-.021-.016-.033-.037-.036l-1.42-.202a.042.042 0 00-.047.044c.1 1.292.671 2.322 1.712 3.089.027.02.048.015.063-.016zm2.349-2.522a.73.73 0 00.735-.725.73.73 0 00-.735-.725.73.73 0 00-.736.725c0 .4.33.725.736.725z"/></g></svg>