<svg width="40" height="40" fill="none" xmlns="http://www.w3.org/2000/svg"><g fill="#73777A"><path d="M22.287 11.924c.504.003 1.01.004 1.52.002.478-.002.837.006 1.036.422.05.106.076.263.076.472v1.3c0 .022.01.032.032.032h8.835c.31 0 .527.033.652.099.343.18.383.483.383.867v11.257a.08.08 0 00.043.073c.628.352.998.854 1.11 1.505.173.997-.559 1.946-1.536 2.174-.285.066-.631.053-.94.05-.027 0-.035.011-.024.035.446.965.32 2.017-.359 2.826-1.42 1.689-4.22 1.023-4.707-1.137-.003-.017-.014-.026-.032-.026h-.797c-.025 0-.041.012-.048.036-.613 2.365-3.78 2.875-5.002.702-.431-.766-.415-1.59-.064-2.4.01-.025.003-.037-.025-.037l-4.889.001c-.029 0-.037.013-.025.039a2.617 2.617 0 01-1.115 3.444c-1.61.882-3.532-.037-3.951-1.763a.03.03 0 00-.03-.022h-.801c-.027 0-.043.013-.05.038a2.687 2.687 0 01-3.064 2.04c-1.803-.292-2.742-2.132-1.994-3.75a.017.017 0 00-.001-.016.016.016 0 00-.014-.007c-.372-.004-.777.024-1.14-.1-1.73-.592-1.813-2.797-.227-3.627a.056.056 0 00.033-.053L5.17 15.209c0-.318.029-.535.086-.653.165-.341.474-.404.86-.404h8.913a.042.042 0 00.03-.012.04.04 0 00.011-.029c0-.412 0-.827.002-1.244.001-.257.034-.444.098-.56.187-.338.493-.38.89-.376.546.006 1.091.005 1.636-.002.032 0 .035-.01.01-.03-.614-.46-1.23-.916-1.85-1.366-.302-.219-.489-.396-.56-.53-.236-.448.077-.762.42-1.095.483-.47.962-.94 1.437-1.409a.018.018 0 00.006-.01c0-.003 0-.007-.002-.01a.02.02 0 00-.018-.013c-4.116.002-8.223.005-12.323.012-.844.001-1.145-1.094-.367-1.418.094-.04.241-.06.441-.06h30.14c.267 0 .458.032.574.094.524.279.502 1.047-.027 1.288-.128.058-.345.087-.65.086H22.851c-.029 0-.033.01-.013.03.471.465.946.93 1.424 1.396.263.256.42.453.469.592.158.444-.14.714-.502.98a11384.022 11384.022 0 01-1.955 1.442v.008c0 .002.002.004.005.006a.013.013 0 00.007.002zM17.14 9.592a.033.033 0 00-.007.012.032.032 0 00.011.037l2.834 2.09a.034.034 0 00.039 0l2.833-2.09a.031.031 0 00.013-.023.031.031 0 00-.01-.025l-2.156-2.115a.033.033 0 00-.023-.01l-1.35-.002a.033.033 0 00-.023.009l-2.16 2.117zm6.283 3.835a.028.028 0 00-.008-.02.029.029 0 00-.02-.008h-6.797a.029.029 0 00-.02.008.028.028 0 00-.009.02v.697c0 .004.001.007.003.01a.03.03 0 00.006.01.03.03 0 00.02.008h6.796a.03.03 0 00.011-.002.028.028 0 00.018-.026v-.697zm9.896 2.212a.021.021 0 00-.021-.021H6.695a.021.021 0 00-.022.02v10.509c0 .005.002.01.006.014.005.004.01.007.016.007h26.603a.021.021 0 00.021-.021V15.639zm1.168 12.578a.48.48 0 00-.145-.344.5.5 0 00-.35-.142H6a.5.5 0 00-.35.142.48.48 0 00-.145.344v.006a.48.48 0 00.145.344.5.5 0 00.35.142h27.992a.5.5 0 00.35-.142.48.48 0 00.145-.344v-.006zm-23.078 1.96a.022.022 0 00-.016.01.02.02 0 00-.003.018l.21.606a.02.02 0 00.007.01.021.021 0 00.012.004h.808a.02.02 0 00.012-.005.02.02 0 00.007-.01l.21-.605a.019.019 0 000-.01.021.021 0 00-.003-.009.022.022 0 00-.017-.009H11.41zm13.059 1.399c-.135-.317.059-.75.465-.75l.988-.002a.025.025 0 00.012-.003.023.023 0 00.012-.02l-.003-.012a1.202 1.202 0 00-1.902-.252c-.699.685-.265 1.878.737 1.973.494.047.885-.154 1.172-.602a.02.02 0 000-.02.02.02 0 00-.007-.009.023.023 0 00-.01-.003l-.814-.001c-.284 0-.54-.041-.65-.3zm2.887-1.399a.02.02 0 00-.017.009.019.019 0 00-.004.009.02.02 0 00.001.009l.213.608a.02.02 0 00.02.014l.805-.002a.02.02 0 00.012-.004.02.02 0 00.007-.01l.211-.605a.021.021 0 00.001-.01.021.021 0 00-.004-.009.02.02 0 00-.007-.006.022.022 0 00-.01-.002h-1.228zM8.14 32.211c.579.51 1.481.375 1.852-.3.013-.023.006-.035-.021-.035a150.42 150.42 0 00-.95-.003.735.735 0 01-.3-.049c-.411-.19-.41-.778.01-.95.084-.033.221-.05.412-.05h.839a.02.02 0 00.017-.01.02.02 0 000-.02 1.22 1.22 0 00-1.597-.49c-.739.374-.877 1.365-.262 1.907zm6.953-1.377c.725.012.745 1.039-.091 1.039l-.93.003c-.029 0-.035.012-.022.036.261.447.731.672 1.253.587 1.006-.163 1.335-1.414.557-2.044a1.2 1.2 0 00-1.816.351c0 .003 0 .006.002.008a.018.018 0 00.015.009c.342.002.686.005 1.032.011zm16.247.05c.518.24.311 1.004-.249.994a29.38 29.38 0 00-1.07 0c-.026 0-.032.011-.02.034.523.944 1.97.74 2.21-.3.08-.343.008-.661-.215-.954-.546-.721-1.56-.594-2.002.135a.02.02 0 000 .02.022.022 0 00.018.01l.957.003c.165 0 .289.02.37.057z"/><path d="M9.905 17.064h-.03a.727.727 0 00-.734.719v6.222c0 .397.328.72.733.72h.031a.727.727 0 00.734-.72v-6.222a.727.727 0 00-.734-.72zm4.05.001h-.032a.725.725 0 00-.734.717l-.011 6.223c0 .397.326.719.731.72h.032c.405 0 .733-.32.734-.717l.01-6.224a.725.725 0 00-.73-.719zm4.028 0h-.03a.726.726 0 00-.732.72l.01 6.222c.001.397.33.718.735.717h.03a.726.726 0 00.733-.72l-.012-6.222a.726.726 0 00-.734-.717zm4.057 0h-.031a.726.726 0 00-.735.717l-.01 6.222a.725.725 0 00.731.72h.032a.725.725 0 00.734-.717l.012-6.222a.726.726 0 00-.732-.72zm4.035-.002h-.03a.725.725 0 00-.733.718v6.226c0 .396.328.718.732.718h.031a.725.725 0 00.733-.718v-6.226a.725.725 0 00-.733-.718zm4.038.001h-.032a.727.727 0 00-.732.721l.01 6.22c.001.398.33.72.736.719h.032a.727.727 0 00.732-.721l-.01-6.22a.727.727 0 00-.736-.719z"/></g></svg>