<svg width="40" height="40" fill="none" xmlns="http://www.w3.org/2000/svg"><g fill="#73777A"><path d="M28.427 11.066c1.367.006 2.735.006 4.102-.002 1.357-.007 2.663.771 3.227 2.039.125.28.265.826.42 1.634.225 1.177.45 2.354.677 3.532a.072.072 0 00.042.054c.856.38 1.714.764 2.574 1.153.346.157.52.452.521.887.005 2.023.008 4.047.01 6.07 0 .434-.035.728-.106.883-.217.472-.634.528-1.143.527-.806-.002-1.607-.002-2.405-.002a.049.049 0 00-.033.014.05.05 0 00-.016.034c-.133 2.608-2.398 4.52-4.968 4.035-1.925-.364-3.292-2.074-3.38-4.05a.034.034 0 00-.01-.023.033.033 0 00-.023-.01h-8.121a.035.035 0 00-.035.034c-.08 1.799-1.229 3.412-2.936 3.935-2.682.822-5.281-1.123-5.414-3.937a.028.028 0 00-.028-.027l-.488-.005c-.016 0-.025.009-.026.026-.119 1.502-.74 2.637-1.866 3.405-1.539 1.051-3.52.953-4.955-.235-.937-.774-1.453-1.825-1.549-3.15-.002-.03-.017-.045-.046-.045-.374-.001-.746-.002-1.115 0-.41 0-.69-.039-.843-.116C.048 27.498 0 27.09 0 26.582V9.39c0-.422.034-.708.103-.859.205-.454.603-.53 1.095-.53h25.88c.394 0 .669.042.825.127.426.232.479.62.476 1.116-.004.592-.004 1.183.001 1.774 0 .032.016.047.047.047zm-1.908-1.14a.026.026 0 00-.025-.026H1.887a.026.026 0 00-.018.008.027.027 0 00-.007.019V21.2c0 .007.002.014.007.018a.026.026 0 00.018.008h24.607a.026.026 0 00.026-.026V9.927zm11.56 16.02c.04 0 .06-.02.06-.06v-1.244c0-.025-.013-.038-.036-.04l-.44-.024c-.847-.048-1.445-.738-1.438-1.59.003-.367-.029-.797.062-1.125.173-.626.587-1.003 1.242-1.13.066-.013.068-.032.007-.059a67.44 67.44 0 01-1.875-.84.893.893 0 00-.383-.086 483.276 483.276 0 00-3.117-.002c-.739.002-.92-.24-.92-1l.002-4.461c0-.639.288-.811.896-.815a770.39 770.39 0 011.539-.007c.056 0 .063-.019.021-.057a1.62 1.62 0 00-1.135-.442l-4.154-.002a.032.032 0 00-.023.01.033.033 0 00-.01.023l.002 12.766c0 .053.012.057.037.01 1.548-2.837 5.475-3.144 7.222-.302.09.144.175.291.258.44a.07.07 0 00.061.037h2.121zm-5.508-7.589c0 .01.003.018.01.024.005.006.013.01.022.01h2.338a.033.033 0 00.032-.039l-.673-3.507a.033.033 0 00-.01-.02.032.032 0 00-.021-.007l-1.665.001a.032.032 0 00-.023.01.033.033 0 00-.01.023v3.505zm5.564 4.855v-1.113a.03.03 0 00-.009-.021.03.03 0 00-.02-.01h-.33a.213.213 0 00-.155.067.23.23 0 00-.065.162v.716c0 .061.024.12.065.162a.216.216 0 00.156.067h.328a.03.03 0 00.021-.009.03.03 0 00.009-.021zM2.911 25.913a4.142 4.142 0 017.537 0 .063.063 0 00.059.037l1.262-.008a.049.049 0 00.043-.027c1.513-3.051 5.575-3.299 7.34-.355.07.116.14.233.209.354a.064.064 0 00.058.032l7.063.001c.01 0 .02-.004.027-.011a.04.04 0 00.011-.028v-2.731c0-.026-.013-.038-.038-.038H1.88a.018.018 0 00-.013.006.02.02 0 00-.005.013v2.75c0 .027.013.04.04.04h.955a.058.058 0 00.032-.01.061.061 0 00.022-.024zM9 27.743a2.4 2.4 0 00-.68-1.67 2.316 2.316 0 00-.751-.512 2.28 2.28 0 00-2.527.512 2.4 2.4 0 000 3.34 2.28 2.28 0 002.526.512c.282-.12.537-.294.753-.513A2.4 2.4 0 009 27.742zm8.904 0a2.4 2.4 0 00-.679-1.67 2.281 2.281 0 00-3.278 0 2.4 2.4 0 000 3.34 2.281 2.281 0 003.278 0 2.4 2.4 0 00.679-1.67zm16.538 0a2.4 2.4 0 00-.68-1.67 2.314 2.314 0 00-.751-.512 2.28 2.28 0 00-2.526.512c-.216.219-.386.48-.503.766a2.4 2.4 0 00.503 2.573 2.296 2.296 0 001.639.692c.614 0 1.204-.249 1.639-.692a2.384 2.384 0 00.679-1.67z"/><path d="M5.363 10.742h-.04a.92.92 0 00-.909.93l.013 7.803a.92.92 0 00.913.926h.04a.92.92 0 00.91-.93l-.014-7.803a.92.92 0 00-.913-.926zm4.427 0h-.038a.918.918 0 00-.909.926v7.807c0 .512.407.926.91.926h.038a.917.917 0 00.909-.926v-7.807a.918.918 0 00-.91-.926zm4.42-.002h-.039a.917.917 0 00-.908.925v7.812c0 .51.407.925.908.925h.039a.917.917 0 00.908-.925v-7.812a.917.917 0 00-.908-.925zm4.411.002h-.04a.92.92 0 00-.909.93l.013 7.803a.92.92 0 00.913.926h.04a.92.92 0 00.91-.93l-.014-7.803a.92.92 0 00-.913-.926zm4.437-.001h-.04a.92.92 0 00-.912.927l-.013 7.803a.92.92 0 00.909.93h.04a.92.92 0 00.912-.927l.014-7.803a.92.92 0 00-.91-.93zm10.345 9.978h-1.521a.634.634 0 00-.629.64v.064c0 .354.282.64.629.64h1.52a.634.634 0 00.629-.64v-.064a.634.634 0 00-.628-.64zM6.68 28.562a.813.813 0 00.805-.82c0-.454-.36-.82-.805-.82a.813.813 0 00-.806.82c0 .453.36.82.806.82zm8.904.001a.813.813 0 00.806-.82.813.813 0 00-.806-.821.813.813 0 00-.805.82c0 .453.36.82.805.82zm16.539 0a.813.813 0 00.805-.82.812.812 0 00-.805-.821.813.813 0 00-.806.82c0 .453.36.82.806.82z"/></g></svg>